<svg width="328" height="72" viewBox="0 0 328 72" fill="none" xmlns="http://www.w3.org/2000/svg">
<path d="M327.76 21.17C327.69 20.74 327.7 20.17 327.36 19.83C327.02 19.49 326.94 19.75 326.83 19.26C326.802 18.7737 326.86 18.2864 327 17.82C327.027 17.2692 327.094 16.7211 327.2 16.18C327.557 15.1548 327.765 14.0841 327.82 13C327.82 11.57 327.93 10.14 327.91 8.71998C327.89 7.29998 327.8 5.84998 327.65 4.41998C327.58 3.82998 327.51 3.23998 327.43 2.64998C327.43 2.40998 327.43 1.36998 327.2 1.17998C326.97 0.989976 326.54 1.27998 326.37 1.29998C325.78 1.3782 325.184 1.40163 324.59 1.36998C323.1 1.36998 321.71 0.899976 320.21 0.929976C317.21 0.989976 314.34 0.929976 311.36 0.799976C308.392 0.512026 305.408 0.438502 302.43 0.579976C299.647 0.821729 296.853 0.90853 294.06 0.839976C291.15 0.749976 288.25 0.469976 285.33 0.459976C273.33 0.459976 261.31 0.426643 249.27 0.359976C243.39 0.359976 237.55 0.679976 231.67 0.359976C225.79 0.0399762 219.67 0.139976 213.67 0.189976C210.67 0.189976 207.74 0.619976 204.76 0.609976C201.78 0.599976 198.83 0.339976 195.87 0.259976C189.87 0.109976 183.87 0.479976 177.79 0.399976C175 0.409976 172 -2.37823e-05 169.31 0.599976C167.995 0.766477 166.659 0.654036 165.39 0.269976C163.972 0.0750849 162.538 0.0248266 161.11 0.119976C160.441 0.0821115 159.77 0.119007 159.11 0.229976C158.11 0.509976 159.27 0.939976 158.63 1.22998C157.99 1.51998 157.13 1.00998 156.63 0.889976C155.367 0.621346 154.081 0.477322 152.79 0.459976C149.79 0.329976 146.73 0.459976 143.69 0.359976C140.65 0.259976 137.69 0.109976 134.69 0.0299762C128.69 -0.130024 122.69 0.199976 116.69 0.359976C113.69 0.439976 110.69 0.359976 107.76 0.289976C104.83 0.219976 101.76 0.359976 98.7599 0.429976C92.7599 0.559976 86.7599 -0.160024 80.8199 0.0699762C74.8799 0.299976 68.8199 0.429976 62.8199 0.469976C59.8199 0.469976 56.8899 0.329976 53.9199 0.249976C50.9499 0.169976 48.0399 0.249976 45.0999 0.249976C39.0999 0.339976 33.0999 0.249976 27.0999 0.129976C23.9999 0.139976 21.0599 -2.38046e-05 18.1099 -2.38046e-05C15.1599 -2.38046e-05 12.2499 0.189976 9.3199 0.299976C6.3899 0.409976 3.2599 0.319976 0.219901 0.279976C0.219901 3.91998 0.149901 7.55998 0.219901 11.2C0.289901 14.84 0.589901 18.33 0.399901 21.89C0.309901 23.63 0.0699013 25.37 -9.87425e-05 27.12C-0.0700987 28.87 0.0599013 30.51 0.149901 32.2C0.329901 35.76 0.389901 39.33 0.399901 42.9C0.409901 46.47 0.399901 50.11 0.399901 53.71C0.399901 57.31 0.249901 60.71 0.0999013 64.19C-9.87425e-05 66 0.0999013 67.71 0.149901 69.47C0.149901 69.89 -0.0300988 71.03 0.239901 71.39C0.509901 71.75 1.5499 71.51 1.9299 71.5C3.6499 71.5 5.3599 71.34 7.0799 71.38C8.7999 71.42 10.7799 71.58 12.6399 71.61C14.4999 71.64 16.1999 71.5 17.9799 71.53C19.7599 71.56 21.6499 71.66 23.4799 71.68C25.3099 71.7 27.0599 71.52 28.8499 71.37C30.5995 71.3282 32.35 71.4017 34.0899 71.59C37.7899 71.79 41.5099 71.59 45.2199 71.73C48.9299 71.87 52.6399 71.92 56.3499 71.86C60.0599 71.8 63.4799 71.5 67.0599 71.56C70.6399 71.62 74.4799 71.71 78.1799 71.69C81.8799 71.67 85.4699 71.32 89.1199 71.22C92.7699 71.12 96.5699 71.42 100.29 71.63C104.01 71.84 107.77 71.92 111.52 71.89C115.27 71.86 118.85 71.38 122.52 71.67C123.31 71.73 124.08 71.9 124.86 71.98C125.641 72.027 126.418 71.8276 127.08 71.41C128.4 70.84 130.08 71.48 131.47 71.61C135.105 71.8199 138.751 71.7698 142.38 71.46C144.13 71.38 145.88 71.28 147.63 71.14H147.19C149.7 71.34 152.24 71.31 154.76 71.48C157.305 71.5371 159.852 71.4135 162.38 71.11C164.8 70.94 167.19 71.39 169.61 71.31C172.19 71.22 174.75 71.01 177.34 71.08C179.903 71.3048 182.477 71.3949 185.05 71.35C187.49 71.17 189.89 71.2 192.34 71.21C197.48 71.21 202.63 71.21 207.77 71.13C212.91 71.05 217.83 71.34 222.86 71.31C225.46 71.31 228.04 71.06 230.63 71.04C233.22 71.02 235.63 71.23 238.14 71.12C239.3 71.12 240.43 70.83 241.59 70.72C242.803 70.6964 244.016 70.7935 245.21 71.01C247.73 71.27 250.32 71.11 252.86 71.12C257.79 71.12 262.72 70.84 267.65 70.89C269.53 70.89 271.4 70.89 273.28 70.89C274.64 70.89 275.98 70.89 277.28 70.8C278.58 70.71 279.75 70.46 280.95 70.43C283.67 70.43 286.42 70.43 289.14 70.43H288.65C290.122 70.515 291.598 70.515 293.07 70.43H302.07C303.58 70.43 305.07 70.63 306.54 70.75C309.44 70.97 312.35 70.89 315.26 70.94C318.17 70.99 320.93 71.07 323.79 70.94C324.519 70.9264 325.247 70.873 325.97 70.78C326.195 70.7659 326.417 70.7222 326.63 70.65C327.14 70.53 327.07 70.65 327.14 70.2C327.127 69.651 327.08 69.1033 327 68.56C327 67.77 327.18 66.99 327.22 66.2C327.38 63.62 327.36 61.01 327.45 58.42C327.63 52.58 327.9 46.74 327.9 40.9C327.9 37.58 327.85 34.26 327.9 30.9C327.95 27.54 328.25 24.39 327.76 21.17Z" fill="#8FB23E"/>
</svg>
