<svg width="328" height="528" viewBox="0 0 328 528" fill="none" xmlns="http://www.w3.org/2000/svg">
<path d="M327.391 353.969C327.46 352.479 327.391 350.254 327.391 348.357C327.391 345.317 327.391 342.257 327.391 339.247C327.5 328.836 327.608 318.444 327.737 306.245C327.737 306.245 327.737 305.917 327.737 305.5C327.562 304.99 327.42 304.469 327.312 303.94C327.233 303.874 327.163 303.797 327.104 303.712C327.004 303.624 326.895 303.548 326.778 303.483L326.531 303.116V297.324C326.695 296.266 326.93 295.221 327.233 294.195C327.915 291.92 328.142 286.078 327.915 279.104C327.826 276.541 327.687 274.137 327.559 271.753C327.259 266.911 327.203 262.057 327.391 257.209C327.678 250.533 327.302 244.185 327.391 237.877C327.391 230.337 326.62 226.293 326.758 218.833C326.737 218.444 326.677 218.058 326.581 217.68V210.18C326.652 210.169 326.722 210.149 326.788 210.12C327.618 209.683 327.875 205.153 327.519 197.762C327.351 194.265 327.045 193.033 326.798 195.119C326.719 194.732 326.65 194.355 326.59 193.967V188.523C326.645 188.253 326.717 187.988 326.808 187.728C326.808 187.639 326.857 187.54 326.887 187.45C327.035 188.245 327.183 188.682 327.282 186.457C327.381 184.231 327.401 180.963 327.282 178.986C327.055 174.754 326.482 171.039 327.371 167.552C327.45 167.244 327.371 163.359 327.371 161.204C327.282 155.183 327.094 149.65 327.44 143.262C327.788 137.674 327.526 132.064 326.66 126.533C326.637 126.432 326.607 126.332 326.571 126.235V122.192C326.693 122.291 326.8 122.408 326.887 122.539C327.035 122.758 327.183 124.347 327.322 124.278C327.604 123.605 327.748 122.882 327.747 122.152C327.747 112.217 328.063 101.647 327.391 92.617C327.082 88.628 327.006 84.6242 327.164 80.6263C327.292 77.646 327.727 75.8975 327.826 72.9371C327.905 70.7416 327.49 66.1818 327.589 64.9896C327.835 61.107 327.782 57.2111 327.43 53.3367C327.402 52.1718 327.219 51.0159 326.887 49.8994C326.798 50.3041 326.752 50.7169 326.749 51.1312C326.7 51.053 326.64 50.9826 326.571 50.9226V48.9358C327.432 45.8275 327.806 42.603 327.678 39.3789C327.678 38.0775 327.678 36.7861 327.678 35.4847C327.796 31.809 327.895 28.1929 327.816 25.0338C327.717 20.9607 327.668 17.0863 327.678 13.3013C327.678 11.4038 327.678 9.51632 327.678 7.6288C327.678 5.3141 327.757 2.9994 327.796 0.674764H325.889H324.436H323.29C322.578 0.674764 321.916 0.744304 321.58 0.793976C320.463 0.942991 320.186 1.16155 319.317 1.33043C316.411 1.91656 316.154 1.90662 311.154 1.51918C309.177 1.37017 305.431 1.12181 304.759 1.18141C300.014 1.48971 295.254 1.48971 290.508 1.18141C284.581 0.901008 278.644 0.924218 272.719 1.25096C270.901 1.37017 267.491 1.34036 265.208 1.25096C252.499 0.823779 238.189 1.52912 226.073 0.664829C225.163 0.605223 223.108 0.73437 221.566 0.73437C210.754 0.73437 199.755 0.853582 189.17 0.73437C177.143 0.555552 165.451 0.426405 153.592 0.73437H153.325C150.826 0.535731 148.317 0.505861 145.814 0.644961H145.735C138.135 0.356865 130.447 0.416471 123.005 0.595289C118.34 0.714501 114.239 0.714501 109.456 0.595289C100.818 0.456208 91.9235 0.27739 83.108 0.545617C70.5272 0.923122 57.818 0.863516 45.3064 0.525749C33.615 0.217784 21.8347 -0.179589 9.89629 0.0886381L6.11118 0.168113L0.576818 0.227719C0.685529 8.99973 0.804122 17.8016 0.912833 26.504C1.05119 34.6601 0.90295 41.7234 0.65588 49.1046C0.576818 51.5584 0.487873 54.3996 0.537287 56.764C0.662537 59.4168 0.563353 62.0755 0.240803 64.7115C-0.126837 66.7738 -0.0730362 68.8897 0.398928 70.9304C1.06107 73.6424 1.14014 76.136 0.97213 82.6728C0.863419 86.7955 0.645998 90.9282 0.65588 95.0211C0.715177 109.863 0.781062 124.698 0.853536 139.527C0.853536 148.468 0.853536 157.349 0.853536 166.25C0.853536 174.774 0.517521 184.212 0.784357 191.603C1.17967 202.282 0.912833 213.339 1.29826 223.72C1.49305 228.121 1.44356 232.528 1.15002 236.923C0.962247 239.347 1.02154 244.533 1.15002 247.96C1.48232 255.745 1.39324 263.541 0.883185 271.316C0.833771 272.041 0.883185 274.246 0.883185 275.29C0.800542 275.362 0.744057 275.459 0.722593 275.567C0.70113 275.675 0.715901 275.787 0.764591 275.886C1.12862 276.622 1.36587 277.414 1.46627 278.23C1.31803 279.561 1.16979 280.883 1.07096 282.512C0.942481 284.787 0.814005 287.827 0.863419 290.221C1.01166 298.377 1.02154 306.215 0.695412 314.014C0.695412 315.136 0.774474 316.904 0.804122 318.405C0.90295 323.312 1.07096 328.23 1.07096 333.127C1.07096 341.244 0.962247 349.38 0.863419 357.466C0.804122 362.761 1.00178 367.043 1.1599 371.871C1.30814 376.203 1.01166 381.805 0.962247 386.922C0.962247 392.644 0.962247 398.416 0.962247 404.168C0.962247 406.075 0.873302 408.072 0.90295 409.87C1.07096 417.48 1.23897 425.02 1.39709 432.61C1.45639 435.193 1.54533 438.153 1.46627 440.438C1.2785 446.091 1.30814 451.614 1.28838 457.416C1.28838 463.625 1.16979 469.555 1.41686 475.566C1.41686 476.698 1.41686 478.794 1.32791 479.768C0.956911 485.225 0.937104 490.7 1.26861 496.16C1.38721 498.872 1.47615 502.12 1.43662 504.892C1.36744 508.498 1.30814 512.055 1.23897 515.641C1.23897 517.429 1.23897 519.217 1.16979 521.025V527.651H5.2415L8.20634 527.572C11.2404 527.473 15.0156 527.661 18.4251 527.641C31.3222 527.641 44.1204 528.307 57.1361 527.641C58.1243 527.641 59.8736 527.741 61.3066 527.751L70.0627 527.8L79.313 527.731C92.1607 527.731 104.83 527.731 117.293 527.333C120.416 527.224 125.614 527.333 128.075 527.512C136.075 528.065 144.1 528.148 152.11 527.761C163.594 527.383 175.433 527.125 187.391 527.274C195.604 527.383 204.33 527.155 212.098 527.622C213.274 527.691 215.33 527.701 216.585 527.622C223.928 527.294 231.35 527.294 239.128 527.423C243.081 527.492 247.528 527.304 251.461 527.423C256.403 527.522 260.405 527.423 264.971 527.274C273.866 527.045 282.997 526.847 292.119 526.807C301.241 526.767 310.175 526.936 319.218 526.996H319.999C321.876 527.135 323.744 527.204 325.622 527.214C325.708 527.217 325.793 527.196 325.869 527.155C325.979 527.201 326.103 527.207 326.217 527.17C326.331 527.134 326.428 527.058 326.492 526.956C326.54 526.873 326.566 526.779 326.566 526.683C326.566 526.587 326.54 526.492 326.492 526.41V505.806C326.778 502.965 326.996 498.852 326.996 494.491C326.946 492.583 326.847 488.451 326.749 484.397C326.749 483.275 326.6 482.41 326.521 481.417V481.914V474.96C326.64 475.546 326.758 476.112 326.867 476.708C327.098 476.01 327.212 475.278 327.203 474.542C327.203 468.383 327.302 462.621 327.608 457.247C327.608 456.522 327.608 454.902 327.519 453.949C326.874 446.177 326.742 438.372 327.124 430.583C326.749 423.927 327.124 417.927 327.262 411.618C327.371 407.277 327.599 402.986 327.351 398.008C327.262 396.151 327.44 392.882 327.519 390.359C327.638 386.653 327.836 383.127 327.905 379.352C327.954 376.908 327.905 372.716 327.796 371.812C326.966 366.874 327.055 360.943 327.391 353.969Z" fill="#8FB23E"/>
</svg>
