<svg width="328" height="424" viewBox="0 0 328 424" fill="none" xmlns="http://www.w3.org/2000/svg">
<path d="M328 72.9669C328 71.3157 327.91 69.4097 327.84 67.7484C327.47 59.9717 327.5 52.2459 327.77 44.2347C327.89 40.5451 327.99 36.3051 327.92 32.5747C327.827 27.3563 327.773 22.1548 327.76 16.9703V9.17321C327.76 6.27859 327.777 3.38398 327.81 0.489361L319.13 0.377246C317.345 0.333532 315.559 0.391378 313.78 0.550515C312.019 0.991063 310.181 0.991063 308.42 0.550515C304.63 0.104744 300.809 -0.0111874 297 0.203976C290.83 0.418015 295.48 0.917438 294 1.22321C293.884 1.23944 293.774 1.28499 293.68 1.35571H293C289.37 0.703399 284.12 0.428207 276.76 0.509746C270 0.581092 263.47 0.356861 256.81 0.203976C246.81 -0.0100621 235.58 -0.122177 226.11 0.203976L222.88 0.295707C222.413 0.295707 221.943 0.295707 221.47 0.295707C214.18 0.509746 207.36 0.509746 200 0.367053C196.93 0.367053 193.63 0.367053 190.53 0.367053C180.89 0.53013 171.45 0.642246 162.07 0.153015C159.07 0.00013018 155 0.00013018 151.66 0.0714763C138.82 0.38404 125.86 0.533528 112.78 0.519938C109.94 0.519938 106.84 0.519938 104.31 0.39763C97.94 0.102053 91.74 0.254938 85.31 0.39763C80.11 0.438399 74.74 0.479169 69.44 0.458784L52.44 0.275322C48.88 0.234553 45 0.346669 41.75 0.214169C33.75 -0.101793 26.15 0.0510917 18.53 0.295707C14 0.438399 9.72 0.418015 5 0.367053L0.460003 0.336476C0.460003 4.99436 0.460003 9.7134 0.460003 14.3917C0.460003 18.7336 0.520003 23.0246 0.620003 27.1626C0.770003 34.4603 0.770003 40.963 0.430003 47.0274C0.180003 51.4713 0.200003 54.9367 0.330003 59.4519C0.500003 65.3634 0.610003 71.5807 0.630003 77.7063V109.618C0.630003 112.523 0.630003 115.836 0.530003 118.241C0.0900028 126.222 0.390003 134.212 0.530003 141.683C0.650003 146.647 0.710003 150.449 0.530003 155.066C0.410003 157.532 0.350003 161.181 0.460003 163.495C0.680003 168.143 0.460003 171.955 0.390003 176.225C0.320003 179.171 0.280003 183.003 0.390003 185.398C0.754604 189.592 0.778018 193.809 0.460003 198.006C0.320003 199.637 0.380003 202.929 0.370003 205.477C0.370003 209.136 0.370003 212.856 0.310003 216.444C0.0800028 229.867 -0.109997 243.178 0.470003 256.357C0.550003 258.1 0.410003 260.556 0.410003 262.666C0.410003 273.174 0.0500028 283.958 0.530003 294.109C1.02 304.465 0.730003 314.137 0.390003 323.901C2.83122e-06 336.815 0.0500028 349.841 0.350003 362.755C0.519918 365.164 0.459635 367.584 0.170003 369.981C-0.0599972 371.336 -0.0799972 374.241 0.260003 374.792C0.860003 375.76 0.900003 377.737 0.540003 381.926C0.400003 383.506 0.300003 386.003 0.310003 387.95C0.380003 396.726 0.500003 405.45 0.840003 413.747C0.825088 413.937 0.825088 414.127 0.840003 414.317C0.840003 414.419 0.840003 414.531 0.840003 414.633C0.830044 414.735 0.830044 414.837 0.840003 414.939C0.840003 417.783 0.760003 420.932 0.720003 423.694L3.14 423.745L4.68 423.827C8.63301 424.116 12.6023 424.081 16.55 423.725C20.3835 423.346 24.2429 423.326 28.08 423.664C29.72 423.806 33.51 423.756 35.86 423.664C41.53 423.429 47.56 423.389 52.78 423.592C56.9584 423.868 61.1492 423.888 65.33 423.654C66.85 423.531 69.53 423.654 71.68 423.654C81.39 423.654 91.16 423.725 100.79 423.654C107.59 423.592 114.34 423.541 120.86 423.705C128.86 423.908 136.12 423.878 143.79 423.521C147.05 423.368 151.46 423.521 155.35 423.521C158.41 423.521 162.45 423.603 164.35 423.419C167.578 423.012 170.842 423.012 174.07 423.419C174.73 423.511 176.7 423.47 178.07 423.48L191.74 423.623C193.5 423.623 195.47 423.623 197.01 423.623C205.14 423.266 213.39 423.327 221.83 423.409C228.83 423.47 235.91 423.409 242.96 423.409C243.6 423.418 244.238 423.346 244.86 423.195C244.86 423.195 244.72 423.124 244.51 423.083H250.57L249.83 423.266C250.97 423.266 252.22 423.44 253.21 423.419C254.055 423.37 254.896 423.271 255.73 423.124H255.02H280.73L277.1 423.419C278 423.511 279.23 423.705 279.75 423.684C281.2 423.623 282.39 423.47 283.53 423.348C283.6 423.348 282.78 423.226 281.99 423.124H289.78C289.443 423.187 289.109 423.268 288.78 423.368C289.38 423.368 289.97 423.45 290.59 423.46C296.19 423.46 302.12 423.46 307.33 423.592C308.59 423.643 309.81 423.664 311.01 423.674C311.083 423.679 311.157 423.679 311.23 423.674H311.42C316.16 423.674 320.51 423.562 325.03 423.44C325.674 423.4 326.315 423.322 326.95 423.205L325.53 423.113H326.95V411.831C326.998 411.862 327.041 411.9 327.08 411.943C327.08 411.943 327.08 410.067 327.13 409.058C327.277 399.715 327.423 390.366 327.57 381.009C327.637 375.573 327.71 370.137 327.79 364.701C327.87 354.509 327.59 344.408 327.79 334.196C327.79 331.821 327.79 328.967 327.65 326.766C327.661 325.648 327.492 324.536 327.15 323.473C327.087 323.468 327.023 323.468 326.96 323.473V316.288C326.954 316.261 326.954 316.233 326.96 316.206C327.48 315.544 327.57 311.895 327.66 308.419C327.867 301.018 327.62 293.611 326.92 286.241V280.085C327.295 277.255 327.395 274.394 327.22 271.544C326.99 266.845 327.22 263.298 327.34 259.129C327.49 251.037 328.09 242.628 327.34 234.525V234.423C327.365 233.975 327.365 233.526 327.34 233.078C327.34 228.909 327.29 224.353 327.49 221.102C327.85 215.048 327.74 208.993 327.75 202.939C327.75 189.023 327.75 175.114 327.75 161.212C327.75 157.94 327.8 154.679 327.83 151.407C327.83 145.686 327.83 139.964 327.83 134.243C327.83 125.977 327.39 117.67 327.69 109.578C328.17 97.4386 327.82 85.0855 328 72.9669Z" fill="white"/>
</svg>
