<svg width="24" height="24" viewBox="0 0 24 24" fill="none" xmlns="http://www.w3.org/2000/svg">
<path d="M18.8 17.42C18.2743 16.6084 17.6149 15.8916 16.85 15.3C15.782 14.5224 14.7788 13.6595 13.85 12.72C13.6195 12.4936 13.424 12.2341 13.27 11.95C13.4479 11.7388 13.6053 11.5111 13.74 11.27C13.896 11.0257 14.0882 10.8066 14.31 10.62C14.9 10.05 15.31 9.34003 15.96 8.77003C16.7103 8.14051 17.428 7.47297 18.11 6.77003C18.7752 6.02645 19.4796 5.31879 20.22 4.65003C20.73 4.17003 22.15 3.65003 21.13 2.91003C20.67 2.58003 20.38 2.49003 19.89 2.80003C18.97 3.38003 18.3 4.48003 17.41 5.17003C16.5943 5.71076 15.8773 6.38721 15.29 7.17003C14.5123 8.23798 13.6495 9.24125 12.71 10.17C12.5486 10.3422 12.3634 10.4904 12.16 10.61C11.89 10.42 11.61 10.25 11.36 10.06C10.13 9.13003 9.36 7.84003 8.15 6.94003C7.26226 6.18391 6.46074 5.33209 5.76 4.40003C5.35291 3.89441 4.87851 3.44692 4.35 3.07003C3.75 2.62003 3.89 2.32003 3.25 2.62003C2.36 3.03003 2.55 3.62003 3.15 4.14003C3.75 4.66003 4.28 5.00003 4.8 5.52003C5.08535 5.83797 5.35245 6.17184 5.6 6.52003C5.78 6.77003 5.95 7.03003 6.15 7.26003C6.49674 7.58415 6.88315 7.86303 7.3 8.09003C7.77176 8.51477 8.1944 8.99108 8.56 9.51003C9.12 10.17 9.82 10.76 10.43 11.37L10.73 11.63C10.48 11.95 10.27 12.32 10.03 12.63C9.1 13.86 7.81 14.63 6.91 15.84C6.16382 16.7296 5.3221 17.5344 4.4 18.24C3.89438 18.6471 3.44689 19.1215 3.07 19.65C2.62 20.25 2.32 20.11 2.62 20.75C3.03 21.64 3.62 21.45 4.14 20.85C4.66 20.25 5 19.72 5.52 19.2C5.83794 18.9147 6.17181 18.6476 6.52 18.4C6.77 18.22 7.03 18.05 7.26 17.85C7.58412 17.5033 7.863 17.1169 8.09 16.7C8.51474 16.2283 8.99105 15.8056 9.51 15.44C10.17 14.88 10.76 14.18 11.37 13.57C11.53 13.4 11.68 13.22 11.84 13.04C12.0847 13.3328 12.3878 13.5712 12.73 13.74C12.9743 13.896 13.1935 14.0882 13.38 14.31C13.95 14.9 14.66 15.31 15.23 15.96C15.8595 16.7104 16.5271 17.428 17.23 18.11C17.9736 18.7753 18.6812 19.4796 19.35 20.22C19.83 20.73 20.35 22.15 21.09 21.13C21.42 20.67 21.51 20.38 21.2 19.89C20.59 19 19.49 18.31 18.8 17.42Z" fill="#90B23E"/>
</svg>
