<svg width="24" height="24" viewBox="0 0 24 24" fill="none" xmlns="http://www.w3.org/2000/svg">
<g clip-path="url(#clip0)">
<path d="M23.9801 4.31012C23.8905 3.80012 23.761 3.55012 23.2531 3.43012C22.2573 3.21012 21.132 3.49012 20.1062 3.36012C19.2419 3.17847 18.3536 3.14131 17.4772 3.25012C16.2845 3.43535 15.0791 3.52563 13.8722 3.52012C13.2926 3.46135 12.7194 3.35092 12.1593 3.19012C11.6084 3.18198 11.059 3.24926 10.5261 3.39012C9.12199 3.58012 7.78755 3.25012 6.42324 3.45012C5.36469 3.54347 4.29903 3.51664 3.24648 3.37012C2.6556 3.31009 2.05937 3.33027 1.47386 3.43012C0.796683 3.52012 0.697098 3.24012 0.478011 3.85012C0.159339 4.69012 0.647306 4.93012 1.39419 4.90012C2.14108 4.87012 2.64897 4.70012 3.3859 4.73012C3.77992 4.7487 4.17239 4.79212 4.561 4.86012C4.82988 4.86012 5.10872 4.96012 5.38755 4.98012C5.82614 4.96474 6.26107 4.89419 6.68216 4.77012C7.25873 4.74163 7.83665 4.77853 8.40498 4.88012C9.20166 4.94012 10.0282 4.88012 10.8249 4.88012C11.1834 4.88012 11.5519 4.82012 11.9203 4.81012C12.2888 4.80012 12.4481 4.98012 12.8266 5.05012C13.1631 5.07673 13.5016 5.03594 13.8224 4.93012C14.0832 4.89064 14.3484 4.89064 14.6091 4.93012C15.356 4.93012 16.1129 4.77012 16.8697 4.80012C17.7568 4.885 18.6475 4.92505 19.5386 4.92012C20.4349 4.86012 21.3809 4.92012 22.2772 4.92012C22.9046 4.87012 24.1793 5.45012 23.9801 4.31012Z" fill="#90B23E"/>
<path d="M23.7017 12.86C23.612 12.34 23.4826 12.09 22.9747 11.98C21.9788 11.76 20.8535 11.98 19.8278 11.91C18.9641 11.7234 18.075 11.6862 17.1988 11.8C16.0063 11.9867 14.8005 12.0736 13.5938 12.06C13.0128 12.0109 12.4387 11.9003 11.8809 11.73C11.3295 11.7252 10.7801 11.7959 10.2477 11.94C8.84357 12.13 7.50913 11.79 6.14481 11.99C5.09301 12.0867 4.03356 12.0599 2.98797 11.91C2.38908 11.8632 1.78669 11.8934 1.19543 12C0.518256 12.1 0.418671 11.82 0.199584 12.42C-0.119088 13.27 0.368878 13.51 1.11577 13.48C1.86265 13.45 2.37054 13.28 3.10747 13.3C3.50581 13.3 3.88423 13.38 4.28257 13.43C4.68091 13.48 4.83029 13.53 5.10913 13.56C5.54771 13.5446 5.98264 13.474 6.40373 13.35C6.97992 13.3131 7.55843 13.3467 8.12655 13.45C8.92323 13.52 9.74979 13.45 10.5465 13.45C10.905 13.45 11.2734 13.39 11.6419 13.39C11.9519 13.4359 12.2559 13.5164 12.5481 13.63C12.8847 13.6566 13.2232 13.6158 13.544 13.51C13.8009 13.4448 14.067 13.4245 14.3307 13.45C15.0776 13.45 15.8344 13.3 16.5913 13.33C17.4785 13.4115 18.3693 13.4482 19.2602 13.44C20.1564 13.38 21.1025 13.44 21.9988 13.44C22.6261 13.41 23.9008 14 23.7017 12.86Z" fill="#90B23E"/>
<path d="M23.7017 21.4C23.6121 20.89 23.4827 20.64 22.9748 20.52C21.9789 20.3 20.8536 20.58 19.8279 20.45C18.9635 20.2683 18.0753 20.2312 17.1988 20.34C16.0061 20.5252 14.8007 20.6155 13.5939 20.61C13.0136 20.5561 12.4399 20.4456 11.881 20.28C11.3301 20.2718 10.7806 20.3391 10.2478 20.48C8.84365 20.67 7.50921 20.34 6.1449 20.54C5.09295 20.6318 4.03405 20.605 2.98805 20.46C2.39718 20.3999 1.80095 20.4201 1.21544 20.52C0.53826 20.62 0.438675 20.33 0.219588 20.94C-0.0990841 21.79 0.388883 22.02 1.13577 21.94C1.88266 21.86 2.39054 21.74 3.12747 21.77C3.50353 21.824 3.876 21.9008 4.24283 22C4.5117 22 4.79054 22.1 5.06938 22.12C5.50796 22.1046 5.94289 22.034 6.36399 21.91C6.9398 21.8749 7.51772 21.9051 8.08681 22C8.88349 22.07 9.71004 22 10.5067 22C10.8652 22 11.2337 21.94 11.6022 21.94C11.9706 21.94 12.13 22.1 12.5084 22.18C12.8456 22.2031 13.1841 22.1589 13.5042 22.05C13.7625 21.9938 14.0277 21.977 14.291 22C15.0378 22 15.7947 21.85 16.5515 21.87C17.4382 21.9599 18.3293 22 19.2204 21.99C20.1167 21.93 21.0627 21.99 21.959 21.99C22.6262 22 23.9009 22.54 23.7017 21.4Z" fill="#90B23E"/>
</g>
<defs>
<clipPath id="clip0">
<rect width="24" height="24" fill="white"/>
</clipPath>
</defs>
</svg>
