<svg width="304" height="192" viewBox="0 0 304 192" fill="none" xmlns="http://www.w3.org/2000/svg">
<g clip-path="url(#clip0)" filter="url(#filter0_d)">
<path d="M299.62 36.52C298.91 30.19 300.24 24.78 299.96 17.59C299.89 15.19 299.81 12.77 299.74 10.34C299.74 9.12997 299.68 7.90997 299.66 6.69997L299.58 1.99997C299.58 1.53997 299.58 1.06997 299.58 0.589966L297.13 0.499966L295 0.409966L289.47 0.0999664C286.94 -0.0700336 284.93 -0.0700336 283.64 0.449966C283.264 0.612323 282.859 0.696078 282.45 0.696078C282.041 0.696078 281.636 0.612323 281.26 0.449966C276.36 -0.310034 268.47 1.55997 262.83 0.149966C262.051 0.0504346 261.266 0.000334488 260.48 -3.361e-05C256.62 0.0599664 249.27 0.199966 245.42 0.999966L242.82 1.04997L242.36 1.11997C242.268 1.14097 242.172 1.14097 242.08 1.11997H241.16C240.05 1.17997 238.96 1.26997 237.92 1.40997C236.673 1.57311 235.418 1.66991 234.16 1.69997C234.145 1.66878 234.137 1.6346 234.137 1.59997C234.137 1.56534 234.145 1.53115 234.16 1.49997C234.16 1.35997 233.5 1.21997 233.16 1.07997C232.17 1.1473 231.187 1.29106 230.22 1.50997C226.65 0.709966 221.62 1.14997 217.56 1.20997C217.78 1.14467 218.003 1.09456 218.23 1.05997C220.68 0.639966 217.23 0.289966 215.76 0.629966C212.76 1.56997 206.94 0.329966 202.93 0.969966C202.03 0.969966 201.17 0.969966 200.36 0.969966C199.17 1.01997 198 1.05997 196.86 1.07997C196.51 1.07997 196.16 1.02997 195.8 0.979966C194.55 0.829966 193.3 0.659966 191.91 0.569966C190.546 0.460367 189.177 0.433651 187.81 0.489966C186.75 0.579966 186.24 0.729966 186.31 0.899966C185.794 0.908463 185.279 0.955258 184.77 1.03997C184.42 1.14026 184.084 1.28475 183.77 1.46997L181 1.19997C178.162 0.832958 175.292 0.765921 172.44 0.999966C171.822 1.06683 171.201 1.08689 170.58 1.05997C154.58 0.259966 137.03 0.709966 120.72 1.05997C117.37 1.05997 114.03 1.05997 110.72 0.979966H109.38H109C106.13 0.849966 103.3 0.799966 100.48 0.789966C98.28 0.349966 94.42 0.599966 91.1 0.549966C88.4933 0.429966 85.89 0.356633 83.29 0.329966C82.63 0.329966 81.97 0.329966 81.29 0.329966C75.88 0.329966 70.39 0.539966 64.29 0.839966C60.76 0.709966 57.2 0.639966 53.62 0.739966C52.1327 0.549892 50.6273 0.549892 49.14 0.739966C48.33 0.839966 47.06 0.839966 45.92 0.859966C45.4963 1.06635 45.0391 1.19505 44.57 1.23997C44.2672 1.26492 43.9628 1.26492 43.66 1.23997C43.5809 1.31347 43.4779 1.35606 43.37 1.35997C42.9379 1.36715 42.507 1.31329 42.09 1.19997C41.6552 1.11281 41.2134 1.06594 40.77 1.05997C39.7165 1.11182 38.6607 1.09178 37.61 0.999966C35.17 0.999966 32.74 0.909966 30.33 0.799966L29.09 0.739966C27.968 0.613494 26.8389 0.560048 25.71 0.579966C20.7 0.349966 15.64 0.159966 10.53 0.359966L8.28001 0.439966L4.56001 0.499966C4.61001 2.99997 4.65001 5.41997 4.70001 7.87997C4.47001 8.70997 4.32001 10.56 4.13001 11.88L4.79001 11.5C4.79001 12.92 4.86001 14.34 4.89001 15.76C4.96334 16.8933 5.00001 18 5.00001 19.08C5.00001 19.17 5.00001 19.25 5.00001 19.33C5.00618 19.3798 5.00618 19.4302 5.00001 19.48C5.00001 22.48 4.87001 25.31 4.69001 28.21C4.44001 30.14 4.85001 34.31 4.28001 36.81C3.91328 37.9346 3.97018 39.1544 4.44001 40.24C5.70001 42.82 4.67001 49.24 4.69001 53.52C4.75001 61.7 4.81667 69.88 4.89001 78.06C5.00001 86.7 4.56001 97.75 4.78001 106.77C5.10001 111.62 4.99001 116.6 5.15001 121.41C5.09787 121.812 5.09787 122.218 5.15001 122.62C5.15001 123.24 5.21001 123.86 5.25001 124.48C5.44708 126.905 5.39682 129.345 5.10001 131.76C4.74001 137.15 5.76001 145.02 4.82001 150.76C4.76597 151.607 4.79275 152.458 4.90001 153.3C5.11001 153.77 5.36001 153.64 5.59001 153.76C5.40001 154.76 5.16001 155.76 5.03001 156.96C4.87199 158.371 4.80518 159.79 4.83001 161.21C5.02615 165.566 4.98275 169.929 4.70001 174.28C4.70001 174.9 4.78001 175.87 4.81001 176.7L4.92001 179.32L5.02001 183.22L9.20001 183.17C13.71 183.17 18.2 183.27 22.73 183.37C25.67 183.44 28.05 183.24 30.73 183.08C37.24 183.15 44.33 183.35 51.86 183.36L64.51 182.87C65.94 182.82 67.59 182.73 68.86 182.8C74.11 183.03 80.71 183.06 86.86 182.94C88.1668 183.07 89.4832 183.07 90.79 182.94C93.8086 183.297 96.8577 183.314 99.88 182.99L101.51 182.89C102.56 183.085 103.638 183.064 104.68 182.83H104.74C109.81 182.96 114.74 183.27 120.03 182.98C121.72 182.88 123.83 183.06 125.74 183.04C132.95 183.04 140.12 183.69 147.38 183.04H147.44H148.51C148.91 183.04 149.33 183.1 149.71 183.11C151.33 183.11 152.97 183.16 154.6 183.16H155C155.049 183.098 155.111 183.049 155.182 183.016C155.254 182.983 155.332 182.967 155.41 182.97C157.107 182.848 158.812 182.892 160.5 183.1C164.1 183.1 167.68 183.1 171.25 183.1C171.16 183.23 171.03 183.35 170.92 183.48C175.63 183.42 180.99 182.6 186.59 182.88H187.01C188.902 183.151 190.809 183.301 192.72 183.33C191.63 184.03 193.43 183.93 196.06 183.82C199.41 183.68 202.7 183.59 205.63 183.2C216.15 183.55 227.01 183.71 238.43 183.68C238.553 183.725 238.687 183.725 238.81 183.68H240.59C241.096 183.757 241.613 183.688 242.08 183.48C242.736 183.29 243.404 183.146 244.08 183.05H244.16C244.78 183.05 245.35 183.1 245.79 183.15C250.7 184.15 256.73 182.93 262.49 183.09L280.43 183.5L289.19 183.62L299.82 183.7C299.82 182.76 299.82 181.81 299.82 180.87C299.82 179.93 299.82 178.97 299.82 178.05C299.82 177.31 299.82 176.6 299.75 175.95C299.786 174.991 299.569 174.039 299.12 173.19L299.06 173.68L299.11 173.18C299.535 169.245 299.481 165.272 298.95 161.35C298.688 159.818 298.634 158.257 298.79 156.71C300.04 148.29 298.99 136.88 299.44 127.62C299.64 123.13 298.79 118.52 299.57 114.31C299.57 110.84 298.93 106.62 299.29 102.24C299.51 95.38 299.91 88.39 299.29 81.44C298.64 76.44 300.29 65.1 299.63 59.2C299.664 58.4946 299.565 57.7892 299.34 57.12C299.009 56.4357 298.732 55.7269 298.51 55C298.519 54.9241 298.539 54.8499 298.57 54.78C299.042 53.7262 299.288 52.5848 299.29 51.43C299.45 49.8788 299.497 48.318 299.43 46.76C299.43 46.63 299.43 46.5 299.43 46.4C299.956 43.1318 300.02 39.8059 299.62 36.52Z" fill="white"/>
</g>
<defs>
<filter id="filter0_d" x="0" y="0" width="304" height="192" filterUnits="userSpaceOnUse" color-interpolation-filters="sRGB">
<feFlood flood-opacity="0" result="BackgroundImageFix"/>
<feColorMatrix in="SourceAlpha" type="matrix" values="0 0 0 0 0 0 0 0 0 0 0 0 0 0 0 0 0 0 127 0"/>
<feOffset dy="4"/>
<feGaussianBlur stdDeviation="2"/>
<feColorMatrix type="matrix" values="0 0 0 0 0.51017 0 0 0 0 0.5625 0 0 0 0 0.389062 0 0 0 0.25 0"/>
<feBlend mode="normal" in2="BackgroundImageFix" result="effect1_dropShadow"/>
<feBlend mode="normal" in="SourceGraphic" in2="effect1_dropShadow" result="shape"/>
</filter>
<clipPath id="clip0">
<rect width="296" height="184" fill="white" transform="translate(4)"/>
</clipPath>
</defs>
</svg>
