<svg width="24" height="24" viewBox="0 0 24 24" fill="none" xmlns="http://www.w3.org/2000/svg">
<path d="M19.54 12.0001C19.9 10.2701 18.04 8.29009 16.86 7.33009C15.8466 6.48084 14.6316 5.90685 13.332 5.66339C12.0324 5.41994 10.6921 5.51523 9.44 5.94009C7.91382 6.35398 6.60987 7.34802 5.80648 8.71004C5.0031 10.0721 4.76392 11.6942 5.14 13.2301C6 17.0001 11.35 19.0001 14.77 17.9401C17.05 17.2101 19.75 14.6901 19.54 12.0001ZM18 12.7401C16.66 18.9201 6.41 17.7401 6.68 11.1801C7 3.53009 20.2 7.53009 18 12.7401Z" fill="#8FB23E"/>
<path d="M23.77 14.7099C23.35 13.4499 22.77 12.7099 22.89 11.3299C23.01 9.94995 23.94 8.44995 23.36 7.03995C22.71 5.43995 21.24 5.91995 20.13 5.03995C19.02 4.15995 19.21 1.99995 18 0.85995C16.79 -0.28005 15.39 0.0199497 14.1 0.85995C12.1 2.19995 11.87 1.54995 9.8 0.56995C5.14 -1.61005 6.41 4.32995 3.55 5.11995C2.35 5.45995 1.36 4.98995 0.550002 6.20995C-0.449998 7.66995 0.550002 9.05995 1.19 10.3699C2.19 12.5299 -0.359998 13.4299 0.120002 15.7299C0.600002 18.0299 2.29 17.83 3.84 19C5.22 20 4.65 21.83 5.75 23C6.85 24.17 8.29 24 9.65 23.57C11.35 23.01 11.78 22.66 13.5 23.45C16.65 24.88 17.77 22.7799 19.3 20.24C20.83 17.7 24.83 18.8699 23.77 14.7099ZM22.33 16.5499C21.58 17.9799 19.24 17.7 18.24 19.29C17.43 20.57 17.14 22.9 15.07 22.61C13.66 22.41 13 20.9599 11.2 21.2099C9.67 21.4299 7.93 23.43 6.5 21.99C5.5 20.99 6.07 19.17 4.9 18.15C3.98 17.35 2.38 17.34 1.65 16.3099C0.430002 14.5999 2.45 13.9199 3 12.5499C3.77 10.6799 2.3 9.99995 1.85 8.42995C1.07 5.66995 3.71 7.05995 5.16 5.99995C6.61 4.93995 5.94 2.59995 7.29 1.65995C8.64 0.71995 9.61 2.26995 10.75 2.74995C11.2199 2.96828 11.7318 3.08139 12.25 3.08139C12.7682 3.08139 13.2801 2.96828 13.75 2.74995C14.42 2.45995 15.13 1.40995 15.91 1.37995C17.91 1.28995 17.81 4.00995 18.68 5.18995C19.55 6.36995 21.42 6.34995 22 7.40995C22.77 8.76995 21.24 11.2999 21.63 12.9399C21.92 13.9999 23 15.3599 22.33 16.5499Z" fill="#8FB23E"/>
</svg>
