<svg width="296" height="72" viewBox="0 0 296 72" fill="none" xmlns="http://www.w3.org/2000/svg">
<g clip-path="url(#clip0)">
<path d="M295.92 41.54C295.66 37.72 295.64 33.88 295.68 30.05C295.68 28.19 295.73 26.33 295.76 24.47C295.865 22.7783 295.865 21.0817 295.76 19.39C295.622 18.7954 295.539 18.1896 295.51 17.58C295.538 16.9967 295.602 16.4156 295.7 15.84C295.912 14.3867 295.969 12.9152 295.87 11.45C295.77 8.90996 295.68 6.37996 295.66 3.83996C295.66 3.34996 295.66 2.83996 295.66 2.37996C295.66 2.04996 295.87 0.659958 295.66 0.379958C295.45 0.0999576 293.85 0.379958 293.52 0.379958H291.7C288.549 0.214962 285.391 0.214962 282.24 0.379958C280.46 0.519958 278.69 0.499958 276.91 0.629958C275.13 0.759958 273.44 0.489958 271.71 0.449958L260.46 0.159958C256.9 0.0799576 253.34 0.439958 249.78 0.449958C242.23 0.449958 234.69 0.219958 227.14 0.349958C223.76 0.409958 220.41 0.509958 217.02 0.419958C215.87 0.419958 214.78 0.119958 213.65 0.0299576C212.31 -0.0700424 210.94 0.189958 209.6 0.0899576C208.984 0.00508699 208.361 -0.0250308 207.74 -4.24096e-05C207.4 0.0777981 207.066 0.178017 206.74 0.299958C205.822 0.384777 204.898 0.384777 203.98 0.299958H200.82C197.31 0.299958 193.82 0.359958 190.3 0.379958C186.59 0.379958 182.91 0.469958 179.21 0.209958C177.49 0.0899576 175.72 0.209958 174 0.269958L168.09 0.349958C164.32 0.349958 160.55 0.349958 156.77 0.349958C155.2 0.349958 153.58 0.429958 152.02 0.349958C150.484 0.219526 148.941 0.179456 147.4 0.229958C147.27 0.229958 145.4 0.229958 145.89 0.669958C143.66 0.457005 141.419 0.383529 139.18 0.449958C136.75 0.559958 134.27 0.449958 131.84 0.379958C127.17 0.239958 122.49 0.0599576 117.84 0.0899576C113.19 0.119958 108.75 0.429958 104.19 0.419958C99.63 0.409958 94.81 0.419958 90.12 0.419958C85.43 0.419958 81 -4.24087e-05 76.4 0.109958C71.4 0.189958 66.49 0.389958 61.54 0.439958C59.1 0.439958 56.66 0.439958 54.23 0.439958C51.8 0.439958 49.37 0.219958 46.93 0.239958C42.1 0.239958 37.28 0.449958 32.45 0.379958C27.1 0.309958 21.73 0.109958 16.38 0.109958C11.03 0.109958 5.7 0.379958 0.35 0.329958C0.33 3.99996 0.29 7.71996 0.39 11.42C0.48 14.74 0.61 18.08 0.39 21.42C0.17 24.76 0.25 28 0.36 31.36C0.36 32.92 0.43 34.47 0.46 36.03C0.527444 36.6949 0.527444 37.365 0.46 38.03C0.315163 38.5035 0.211445 38.9886 0.15 39.48C0.0834185 41.0167 0.106792 42.556 0.22 44.09C0.22 45.82 0.09 47.56 0.06 49.3C0 52.92 0 56.5 0 60.09C0 61.41 0 62.75 0 64.09C0.0410692 64.437 0.139049 64.7748 0.29 65.09C0.413491 65.8803 0.447039 66.6821 0.39 67.48C0.39 68.04 0.39 68.59 0.39 69.15C0.284497 69.8661 0.284497 70.5938 0.39 71.31C0.53 71.61 0.86 71.5 1.29 71.5C1.91667 71.5 2.54667 71.52 3.18 71.56C6.25 71.7299 9.29 71.56 12.35 71.64C13.9 71.7 15.45 71.78 17 71.76C18.55 71.74 20 71.54 21.49 71.49C22.98 71.4399 24.49 71.68 25.98 71.71C27.47 71.74 29.12 71.71 30.69 71.71C34.42 71.71 38.15 71.87 41.88 71.9C45.61 71.93 49.21 71.8299 52.88 71.63C56.3 71.45 59.8 71.7 63.23 71.74C66.87 71.79 70.47 71.56 74.1 71.44C77.73 71.32 81.41 71.44 85.1 71.64C88.79 71.84 92.53 71.93 96.25 71.91C99.78 71.91 103.38 71.53 106.9 71.69C108 71.69 109.27 72.28 110.35 71.89C110.826 71.6306 111.358 71.4899 111.9 71.48C112.68 71.48 113.43 71.54 114.2 71.62C117.606 71.8649 121.024 71.8649 124.43 71.62C126.24 71.56 128.06 71.47 129.87 71.35H129.47C130.86 71.47 132.28 71.41 133.68 71.46C135.33 71.52 136.97 71.7299 138.62 71.7C140.27 71.67 141.62 71.4 143.11 71.42C144.6 71.4399 146.22 71.42 147.77 71.5C151.02 71.63 154.28 71.28 157.54 71.37C159.4 71.37 161.26 71.56 163.11 71.55C164.96 71.54 166.77 71.34 168.58 71.46C170.39 71.58 172.07 71.46 173.82 71.46H179.4C183.18 71.46 186.93 71.39 190.71 71.46C194.49 71.53 198.11 71.56 201.78 71.46C205.61 71.2999 209.48 71.53 213.31 71.6C221.5 71.76 229.68 71.68 237.87 71.66H241.87C243.79 71.66 245.68 72.03 247.6 71.93C249.12 71.85 250.6 71.53 252.13 71.42C253.91 71.2999 255.69 71.33 257.47 71.35C259.25 71.3699 260.99 71.28 262.73 71.45C264.221 71.57 265.719 71.57 267.21 71.45C268.506 71.3399 269.81 71.37 271.1 71.54C272.312 71.8112 273.548 71.9587 274.79 71.98C275.65 71.98 276.22 71.54 277.14 71.5C278.93 71.44 280.74 71.5 282.52 71.58C286.52 71.66 290.45 71.65 294.42 71.66H295.63C295.63 65.84 295.63 60.02 295.63 54.21C295.66 49.9 296.2 45.69 295.92 41.54ZM271.21 70.16C269.816 70.0433 268.417 70.0165 267.02 70.08C265.24 70.08 263.47 70.08 261.69 70.08C258 69.99 254.32 69.9 250.63 69.94C247.2 69.94 243.77 70.25 240.35 70.18C236.74 70.1 233.12 70.05 229.52 70.08C225.92 70.11 222.27 70.46 218.64 70.45C215.01 70.4399 211.45 70.18 207.85 70.05C204.25 69.92 200.39 69.89 196.66 69.96C194.84 69.96 193.01 70.04 191.18 70.11C189.843 70.1158 188.507 70.0356 187.18 69.87C186.621 69.7895 186.051 69.8479 185.52 70.04C184.883 70.2849 184.201 70.3906 183.52 70.35C181.88 70.35 180.27 70.06 178.62 70.08C174.48 70.08 170.34 70.22 166.21 70.49H166.61C164.49 70.32 162.35 70.43 160.23 70.24C157.83 70.04 155.53 70.46 153.15 70.43C150.94 70.43 148.72 70.29 146.51 70.35C143.97 70.41 141.51 70.56 138.91 70.49C136.18 70.41 133.47 70.33 130.74 70.36C128.17 70.36 125.61 70.44 123.04 70.43C117.6 70.43 112.15 70.62 106.72 70.43C101.29 70.24 95.66 70.55 90.14 70.43C84.62 70.31 78.85 70.09 73.21 70.16C68.61 70.22 64 70.16 59.39 70.23C57.52 70.23 55.64 70.23 53.77 70.23C51.9 70.23 50.29 69.87 48.52 69.97C46.23 70.09 43.99 70.53 41.67 70.57C38.9602 70.6934 36.2455 70.6567 33.54 70.46C31.54 70.3733 29.5366 70.4034 27.54 70.55C25.49 70.55 23.54 69.83 21.54 69.91C21.2384 69.903 20.9369 69.9265 20.64 69.98C20.48 69.98 20.46 70.16 20.29 70.22C19.2784 70.46 18.2326 70.5209 17.2 70.4C13.46 70.32 9.73 70.26 5.98 70.25C4.73 70.25 3.47 70.25 2.22 70.25C1.66 70.25 1.78 70.25 1.78 69.67V55.67C1.78 52.42 1.85 49.19 2.04 45.95C2.11332 43.5758 2.0666 41.1994 1.9 38.83C1.78 36.02 1.77 33.2 1.79 30.39C1.81 27.58 1.86 24.82 1.92 22.03C1.98743 21.0194 1.95729 20.0047 1.83 19C1.6135 18.0369 1.59649 17.0398 1.78 16.07C2.08662 13.7788 2.12354 11.4597 1.89 9.15996C1.89 7.50996 1.81 5.85996 1.78 4.15996C1.78 3.33996 1.78 2.50996 1.78 1.67996C4.36 1.77996 7 1.99996 9.53 1.99996C12.06 1.99996 14.37 1.68996 16.79 1.66996C18.02 1.66996 19.28 1.45996 20.5 1.52996C21.72 1.59996 22.96 1.71996 24.21 1.74996L32.29 1.92996C34.78 1.98996 37.29 2.06996 39.72 1.92996C42.43 1.75996 45.15 1.71996 47.87 1.73996C53.28 1.73996 58.69 1.82996 64.1 1.84996C69.1 1.84996 74 1.64996 78.95 1.76996C80.64 1.76996 82.23 2.16996 83.95 2.11996C85.718 2.23403 87.4929 2.1771 89.25 1.94996C90.3538 1.80417 91.4699 1.77401 92.58 1.85996C94.02 1.85996 95.47 1.85996 96.91 1.85996C99.33 1.85996 101.74 1.75996 104.16 1.77996C106.87 1.77996 109.58 1.69996 112.29 1.72996C114.73 1.72996 117.15 1.97996 119.6 1.92996C125.77 1.80996 131.94 1.74996 138.11 1.82996C140.64 1.82996 143.11 1.88996 145.66 1.97996C146.994 2.05547 148.331 2.02538 149.66 1.88996C149.84 1.88996 150.66 1.81996 150.27 1.51996C152.033 1.72451 153.805 1.83467 155.58 1.84996C157.42 1.77996 159.25 1.70996 161.1 1.72996C164.8 1.72996 168.5 1.96996 172.2 2.03996C179.41 2.18996 186.6 1.68996 193.81 1.77996C201.31 1.86996 208.81 1.60996 216.29 2.00996C219.9 2.19996 223.54 1.93996 227.16 1.85996C231.1 1.77996 235.03 1.72996 238.97 1.72996C242.72 1.72996 246.46 1.97996 250.2 1.91996C253.94 1.85996 257.8 1.74996 261.6 1.76996C265.4 1.78996 269.13 1.89996 272.89 1.89996C276.65 1.89996 280.39 2.11996 284.16 1.98996C286.08 1.91996 288.01 1.81996 289.93 1.80996C290.81 1.80996 291.68 1.80996 292.55 1.80996C293.038 1.74971 293.532 1.74971 294.02 1.80996C294.36 1.91996 294.29 1.80996 294.28 2.29996C294.28 2.58996 294.28 2.88996 294.28 3.18996C294.28 4.52996 294.28 5.87996 294.28 7.18996C294.28 10.75 294.4 14.31 294.46 17.87C294.52 21.43 294 25 294.15 28.55C294.23 30.28 294.24 32 294.28 33.73C294.444 35.1686 294.444 36.6213 294.28 38.06C293.994 39.3524 293.899 40.68 294 42C294.08 43.73 294.08 45.4 294 47.13C293.87 50.89 293.89 54.66 293.9 58.42C293.9 60 293.9 61.58 293.9 63.16C293.9 64.34 294.22 65.2999 294.27 66.46C294.32 67.62 294.41 69.04 294.39 70.33C292.5 70.27 290.62 70.0799 288.73 70.13C286.84 70.18 284.73 70.24 282.78 70.13C280.992 70.025 279.198 70.025 277.41 70.13C275.35 70.3578 273.272 70.3679 271.21 70.16Z" fill="#EAEAE8"/>
</g>
<defs>
<clipPath id="clip0">
<rect width="296" height="72" fill="white"/>
</clipPath>
</defs>
</svg>
