<svg width="24" height="24" viewBox="0 0 24 24" fill="none" xmlns="http://www.w3.org/2000/svg">
<path d="M18.07 8.69C17.8422 8.50374 17.554 8.40765 17.26 8.42C16.9 8.48 16.76 8.82 16.56 9.07C16.2345 9.47065 15.8579 9.82701 15.44 10.13C15.115 10.3271 14.8073 10.5512 14.52 10.8C14.2258 11.1879 13.9585 11.5955 13.72 12.02C13.43 12.44 13.01 12.77 12.72 13.18C12.59 13.34 12.14 13.93 12.17 13.3C12.17 13.51 10.97 12.55 10.88 12.45C10.61 12.18 10.49 11.87 10.25 11.6C9.93551 11.3318 9.60123 11.0878 9.25 10.87C8.73283 10.3856 8.25156 9.86421 7.81 9.31C7.57507 9.07449 7.30099 8.88162 7 8.74C6.55 8.46 6.69 8.3 6.29 8.48C6.13 8.55 5.57 9.11 5.56 9.29C5.56 9.67 6.29 9.97 6.56 10.11C7.09301 10.515 7.55585 11.0049 7.93 11.56C8.19035 11.8447 8.51169 12.0669 8.87 12.21C9.22339 12.4911 9.52755 12.829 9.77 13.21C10.4019 13.9106 11.0694 14.5781 11.77 15.21C12.04 15.47 12.04 15.63 12.46 15.52C12.88 15.41 13.25 14.88 13.46 14.52C13.4856 14.4483 13.5056 14.3747 13.52 14.3C13.52 14.3 13.71 14.11 13.74 14.06C14.0665 13.5794 14.4455 13.1367 14.87 12.74C15.65 12 16.34 11.26 17.12 10.52C17.4 10.26 17.71 9.95 18.01 9.69C18.31 9.43 18.86 9.13 18.07 8.69Z" fill="#8FB23E"/>
</svg>
