<svg width="16" height="16" viewBox="0 0 16 16" fill="none" xmlns="http://www.w3.org/2000/svg">
<g clip-path="url(#clip0)">
<path d="M15.46 3.52991C15.311 3.24965 15.0856 3.01735 14.81 2.85991C14.2661 2.63437 13.7083 2.44398 13.14 2.28991L12.3 2.10991C12.07 2.10991 12.01 2.10991 11.97 2.02991C11.965 1.99006 11.965 1.94975 11.97 1.90991L11.85 1.73991C11.7654 1.63201 11.6753 1.52854 11.58 1.42991C11.37 1.23696 11.1461 1.0598 10.91 0.899907C10.4807 0.557945 9.99277 0.297021 9.47 0.129907C9.38826 0.065048 9.2923 0.0204961 9.19 -9.32626e-05H8.91H8.63C8.1308 -0.040008 7.6292 -0.040008 7.13 -9.32626e-05C6.81 -9.32626e-05 6.46 0.0899067 6.13 0.0699067C5.8061 0.196564 5.4714 0.293627 5.13 0.359907C5.09788 0.384574 5.07073 0.415115 5.05 0.449907C4.8445 0.510634 4.64657 0.594505 4.46 0.699907C4.21431 0.851 4.00308 1.052 3.84 1.28991C3.49085 1.69448 3.26524 2.19083 3.19 2.71991H2.93C2.70277 2.77756 2.48656 2.87215 2.29 2.99991C2.26023 2.99467 2.22977 2.99467 2.2 2.99991L2 3.08991C1.64232 3.205 1.31915 3.40784 1.06 3.67991C0.884581 3.88094 0.739696 4.10669 0.629999 4.34991C0.487365 4.50076 0.337172 4.64427 0.179999 4.77991C0.0776741 4.92442 0.0155577 5.09352 -9.46224e-07 5.26991C-0.0629296 5.7279 -0.0315189 6.19392 0.0923 6.63932C0.216119 7.08473 0.429729 7.5001 0.719999 7.85991C1.30704 8.60711 2.09946 9.16666 3 9.46991C3.15947 9.56026 3.34461 9.59459 3.52587 9.5674C3.70713 9.54021 3.87406 9.45307 4 9.31991V8.76991V8.62991C4.00468 8.61018 4.00468 8.58963 4 8.56991C3.71983 8.23674 3.35297 7.98755 2.94 7.84991C2.6926 7.76644 2.47347 7.61546 2.30736 7.41401C2.14125 7.21256 2.03479 6.96868 2 6.70991C1.96363 6.08563 2.07677 5.46168 2.33 4.88991C2.39073 4.73763 2.48128 4.59903 2.59634 4.48226C2.7114 4.36548 2.84864 4.27288 3 4.20991C3.15096 4.1346 3.31302 4.08396 3.48 4.05991C3.86289 4.03392 4.24748 4.06765 4.62 4.15991C4.73388 3.93533 4.82759 3.70107 4.9 3.45991L5.07 2.92991C5.1757 2.5509 5.41035 2.22065 5.73346 1.99611C6.05658 1.77157 6.44792 1.66682 6.84 1.69991C7.10863 1.73263 7.38113 1.70878 7.64 1.62991C8.14968 1.48109 8.69169 1.48413 9.19966 1.63866C9.70764 1.79318 10.1595 2.09248 10.5 2.49991L10.6 2.62991C10.65 2.70991 10.71 2.81991 10.76 2.91991C10.8638 3.11772 10.9475 3.32542 11.01 3.53991C11.56 3.53991 12.15 3.59991 12.27 3.63991C12.509 3.66957 12.746 3.71298 12.98 3.76991C13.3822 3.88482 13.7343 4.13129 13.98 4.46991C14.199 4.81473 14.2942 5.2238 14.25 5.62991C14.25 5.85991 14.3 6.14991 14.13 6.32991C13.72 6.75991 13.55 7.14991 13.13 7.60991C13.0145 7.74044 12.8709 7.84302 12.71 7.90991L12.52 7.99991C12.4167 8.00541 12.3133 8.00541 12.21 7.99991H12.11C12.0808 8.03802 12.0431 8.06883 12 8.08991C11.977 8.19754 11.9328 8.29952 11.87 8.38991V8.46991V8.73991V8.89991C11.9013 9.02454 11.9213 9.15171 11.93 9.27991L12.01 9.35991C12.0398 9.36494 12.0702 9.36494 12.1 9.35991C12.1686 9.34018 12.2414 9.34018 12.31 9.35991H12.37H12.5C12.66 9.35991 12.82 9.35991 12.99 9.35991C13.16 9.35991 13.61 9.24991 13.93 9.16991C14.3912 9.02238 14.7756 8.69901 15 8.26991C15.18 7.90991 15 7.50991 15.13 7.26991C15.26 7.02991 15.63 6.78991 15.84 6.46991C15.8705 6.3929 15.8907 6.3122 15.9 6.22991C16.0158 5.77375 16.0365 5.29864 15.9608 4.83414C15.8851 4.36964 15.7146 3.92569 15.46 3.52991Z" fill="white"/>
<path d="M11.26 10.9999C10.968 10.8444 10.7462 10.5833 10.64 10.2699L10.5 9.99992L10.22 9.85992H10.15H10.04C9.88681 9.83868 9.74741 9.76004 9.65 9.63992C9.61092 9.58256 9.58372 9.51796 9.57 9.44992C9.52391 9.38757 9.45611 9.34475 9.38 9.32992C9.28138 9.29904 9.18724 9.25533 9.1 9.19992L8.89 8.99992L8.68 8.75992C8.62181 8.66219 8.57484 8.5582 8.54 8.44992C8.50472 8.3485 8.44807 8.25584 8.37389 8.17821C8.2997 8.10058 8.20971 8.03978 8.11 7.99992L7.85 7.91992C7.51976 8.37652 7.13339 8.78976 6.7 9.14992C6.66395 9.18671 6.62002 9.21483 6.57151 9.23215C6.52301 9.24947 6.4712 9.25555 6.42 9.24992C6.11 9.19992 6.06 9.38992 5.98 9.55992C5.9142 9.69632 5.81431 9.81343 5.69 9.89992C5.53451 9.97693 5.37417 10.0437 5.21 10.0999C5.11 10.1499 5.09 10.2799 4.95 10.2599C4.59 10.2599 4.51 10.4499 4.48 10.7199C4.47435 10.7872 4.44617 10.8506 4.4 10.8999L4.32 10.9999H4.22V11.0899C4.2874 11.1677 4.34765 11.2513 4.4 11.3399V11.3999L4.57 11.5799C4.59182 11.6749 4.6404 11.7617 4.71 11.8299C4.7919 11.9087 4.89128 11.9669 5 11.9999L5.07 12.0599H5.14H5.28L5.53 11.9999C5.63075 11.9535 5.73928 11.9264 5.85 11.9199C5.85495 11.87 5.85495 11.8198 5.85 11.7699C5.85266 11.7333 5.85266 11.6965 5.85 11.6599L5.92 11.5999L6.08 11.4699H6.14H6.08L6.17 11.4099L6.35 11.2999L6.95 11.1199C7.01 11.1199 7.08 11.1199 7.09 11.0299C7.07967 10.9737 7.07967 10.9161 7.09 10.8599C7.10734 10.7953 7.1419 10.7365 7.19 10.6899C7.22684 10.6489 7.27091 10.615 7.32 10.5899L7.49 10.4499L7.64 10.3399C7.71419 10.3039 7.79109 10.2738 7.87 10.2499C7.95551 10.2299 8.04449 10.2299 8.13 10.2499H8.28C8.35156 10.2676 8.41932 10.2981 8.48 10.3399C8.53608 10.3761 8.5838 10.4238 8.62 10.4799C8.68 10.5799 8.72 10.6799 8.79 10.7799L8.89 10.8699C9.04 10.9399 9.17 11.0199 9.07 11.3099C9.07 11.3699 9.13 11.3699 9.17 11.3799C9.59049 11.4915 9.9499 11.7647 10.17 12.1399C10.17 12.2299 10.33 12.1999 10.53 12.0699L10.76 11.8399L10.91 11.6899L11 11.5799C11.34 11.2199 11.36 11.0499 11.26 10.9999Z" fill="white"/>
<path d="M8.84 14.9999C8.68 14.8899 8.67 14.7899 8.78 14.6799C8.89 14.5699 8.78 14.5899 8.78 14.5399C8.78 14.4899 8.59 14.2999 8.86 14.1799C8.85566 14.1602 8.85566 14.1397 8.86 14.1199C8.84971 14.084 8.84971 14.0459 8.86 14.0099V13.9099V13.8499C8.86 13.8499 8.86 13.8499 8.86 13.7899C8.77278 13.6959 8.71687 13.5771 8.7 13.4499C8.7 13.4499 8.7 13.3599 8.8 13.3299C8.9 13.2999 8.93 13.1499 8.85 13.0599C8.77 12.9699 8.85 13.0599 8.85 12.9999C8.86443 12.8871 8.86443 12.7728 8.85 12.6599C8.8784 12.6382 8.90219 12.611 8.92 12.5799C8.92 12.5199 8.86 12.4699 8.92 12.4199C9.19 12.3099 9.06 12.1999 8.86 12.0899C8.66 11.9799 8.77 12.0199 8.76 11.9899V11.9299H8.67H8.33H7.19C7.20416 11.9789 7.20416 12.0309 7.19 12.0799C7.20528 12.1219 7.20528 12.1679 7.19 12.2099C7.13656 12.3008 7.1089 12.4045 7.11 12.5099C7.10253 12.5529 7.10253 12.5969 7.11 12.6399L7 12.6899V12.7899V12.8599C7.31 12.9999 7.24 13.1299 7.07 13.2699C7.06561 13.2775 7.0633 13.2862 7.0633 13.2949C7.0633 13.3037 7.06561 13.3123 7.07 13.3199V13.3999V13.4699C7.07 13.5699 6.99 13.6799 7.18 13.7799C7.17503 13.8398 7.17503 13.9 7.18 13.9599C7.15635 13.9904 7.1254 14.0145 7.09 14.0299C7.09 14.0799 7.09 14.1299 7.09 14.1799V14.2299V14.3599C7.09963 14.4396 7.09963 14.5202 7.09 14.5999H7.03C7.03 14.5999 7.03 14.6499 7.03 14.6699C7.0244 14.703 7.0244 14.7368 7.03 14.7699C7.03452 14.8198 7.03452 14.87 7.03 14.9199C6.96709 14.9529 6.89971 14.9764 6.83 14.9899C6.77 14.9899 6.83 14.9899 6.83 15.0499C7 15.2699 7.12 15.4899 6.91 15.7099C6.91 15.7099 6.91 15.7899 7.21 15.8099H8.2C8.57 15.7599 8.72 15.6899 8.67 15.5999C8.62 15.5099 8.67 15.4899 8.76 15.4299C8.7806 15.359 8.82249 15.2962 8.88 15.2499V15.1099C8.86562 15.0737 8.85229 15.037 8.84 14.9999Z" fill="white"/>
</g>
<defs>
<clipPath id="clip0">
<rect width="16" height="16" fill="white"/>
</clipPath>
</defs>
</svg>
