<svg width="24" height="24" viewBox="0 0 24 24" fill="none" xmlns="http://www.w3.org/2000/svg">
<path d="M23.8941 3.1292C23.8941 2.74945 23.8441 2.3697 23.824 1.99994C23.824 1.41032 23.824 0.830702 23.764 0.271068H21.671H20.2489C19.3076 0.271068 18.3662 0.271068 17.3848 0.201114C16.4034 0.131159 15.4421 0.201114 14.5007 0.201114C11.609 0.398269 8.70645 0.374883 5.81832 0.131159C4.76152 0.00862582 3.69651 -0.0281375 2.63376 0.0212312L1.71245 0.101179L0 0.141153C0.0500716 2.01993 0.110157 3.94867 0.160229 5.86741C0.160229 7.52633 0.220315 9.19524 0.220315 10.8641C0.236911 11.7213 0.206823 12.5786 0.130186 13.4325C-0.00503544 15.3455 -0.00503544 17.2657 0.130186 19.1787L0.190272 21.1774V23.7557H1.66238C3.42489 23.7557 5.11731 23.8457 6.8598 23.8856C7.94135 23.8856 9.13305 23.8357 10.1245 23.8856C12.4823 24.056 14.85 24.036 17.2046 23.8257C17.9056 23.7757 18.5765 23.7557 19.2075 23.7557H20.2089H21.3906H21.8012L22.2318 23.6758C22.4002 23.5701 22.5778 23.4798 22.7625 23.406L22.9528 23.336L23.0429 23.0962V22.9962C23.0914 22.9546 23.1351 22.9076 23.1731 22.8563C23.1731 22.8563 23.1731 22.8563 23.2232 22.8063C23.571 21.3918 23.7027 19.933 23.6137 18.4792C23.6137 16.4305 23.7239 14.4818 23.824 12.4231C24.0323 9.32929 24.0557 6.22582 23.8941 3.1292ZM7.87125 1.31039L8.19171 1.39034L7.74106 1.47028H7.53076L7.87125 1.31039ZM22.5022 3.47897C22.4925 4.3294 22.4188 5.1779 22.2818 6.01731C22.2572 6.43668 22.2572 6.85713 22.2818 7.27649C22.422 11.8535 22.5222 16.4305 22.3419 21.0475C22.3085 21.5416 22.332 22.0378 22.412 22.5265H22.3419C22.1697 22.5566 21.9935 22.5566 21.8212 22.5265H21.661H21.3705L20.2289 22.4766C19.5079 22.4766 18.7868 22.3966 18.0558 22.3267C16.9125 22.2766 15.7671 22.32 14.6309 22.4566C13.6295 22.5565 12.9485 22.8763 12.0272 22.9063C11.1064 22.8558 10.1898 22.7456 9.28327 22.5765C9.10301 22.5765 8.85265 22.5765 8.63234 22.5765L1.6824 22.3267V22.0069V21.6771C1.37798 18.4947 1.33444 15.2928 1.55222 12.1033C1.6123 10.7542 1.55222 9.30517 1.55222 7.89609C1.55222 6.73684 1.55222 5.54762 1.55222 4.38838C1.55222 3.80209 1.55222 3.22247 1.55222 2.64951C1.55222 2.37969 1.55222 2.01993 1.55222 1.84004L1.48212 1.54024L1.79256 1.4403C1.99518 1.41173 2.20082 1.41173 2.40343 1.4403C3.40487 1.61019 4.94707 1.50027 6.00859 1.67015C6.80488 1.65525 7.60124 1.69532 8.39199 1.79008L9.66381 1.67015C10.2233 1.61523 10.7868 1.61523 11.3462 1.67015C11.7263 1.53457 12.1247 1.45708 12.5279 1.4403C13.7601 1.51933 14.997 1.48588 16.2232 1.34037C17.3949 1.34037 18.6967 1.51026 19.9585 1.59021C20.4693 1.59021 21.0301 1.59021 21.5708 1.59021H22.3219H22.5823V3.47897H22.5022ZM23.093 3.57891C22.9793 3.11637 22.9056 2.64495 22.8727 2.16983C22.8672 2.05997 22.8672 1.9499 22.8727 1.84004L22.9328 1.57022C22.9328 1.38034 23.0329 1.16049 23.073 0.91065C23.1467 1.08229 23.2069 1.25937 23.2532 1.4403C23.3116 1.65565 23.3452 1.87694 23.3534 2.09987C23.3162 2.60031 23.2289 3.09578 23.093 3.57891Z" fill="#EAEAE8"/>
</svg>
