<svg width="16" height="16" viewBox="0 0 16 16" fill="none" xmlns="http://www.w3.org/2000/svg">
<g clip-path="url(#clip0)">
<path d="M13.84 7.25267C13.7508 6.85733 13.7272 6.45013 13.77 6.04719C13.7147 5.89043 13.6679 5.73079 13.63 5.56898C13.5598 5.47097 13.4639 5.39406 13.3528 5.34662C13.2417 5.29919 13.1197 5.28306 13 5.29999C12.9706 5.29141 12.9394 5.29141 12.91 5.29999C12.78 5.40958 12.74 5.29999 12.5 5.75827C12.5 5.86786 12.41 5.96749 12.36 6.07708V5.96749C12.25 6.28629 12.36 6.11693 12.14 6.87409C12.14 7.07334 12.14 6.87409 12.14 7.54158C12.14 7.73088 12.14 7.63125 12.3 8.11942C12.19 8.4183 13.2 8.3386 12.39 9.59389C12.3942 9.62363 12.3942 9.65381 12.39 9.68355C12.3995 9.78628 12.3995 9.88967 12.39 9.99239C12.4691 10.1388 12.4905 10.3093 12.45 10.4706C12.45 10.5403 12.45 10.4706 12.45 10.7296C12.45 10.7296 12.45 10.7296 12.45 10.9388C12.4551 11.2761 12.4078 11.6122 12.31 11.9351C12.2 12.1642 12.61 12.2938 12.31 13.3697C12.19 14.4756 10.31 14.2365 7.98999 14.5254H7.38999C7.05141 14.4996 6.71635 14.4395 6.38999 14.3461C6.15178 14.3543 5.91418 14.3171 5.68999 14.2365H5.54999C5.37292 14.3136 5.18307 14.3575 4.98999 14.366C4.92028 14.3749 4.84971 14.3749 4.77999 14.366C4.43999 14.2464 4.18999 14.1369 3.66999 13.2303C3.70756 12.8526 3.70756 12.4722 3.66999 12.0945C3.40999 11.3573 3.43999 11.5266 3.66999 9.61381C3.57999 9.28505 3.66999 9.33486 3.66999 8.37845C3.6358 8.25794 3.6358 8.13034 3.66999 8.00983C3.65867 7.84629 3.697 7.68314 3.77999 7.54158C3.54999 7.15304 4.26999 7.31244 3.58999 5.54906H3.43999C3.21999 5.54906 3.13999 5.39962 2.79999 5.54906C2.76687 5.58292 2.73675 5.61959 2.70999 5.65865C2.45999 7.88031 0.409994 13.4295 4.11999 15.4519C9.60999 15.9899 15.24 18.0422 13.84 7.25267Z" fill="white"/>
<path d="M10.7 1.56407C10.93 0.278886 10 0.229073 8.23001 0.0597081C8.10001 -6.77337e-05 7.67001 0.298811 7.06001 0.159335C5.55001 -0.83693 3.75001 3.34738 6.06001 2.05224C5.93001 1.24526 6.82001 1.4744 7.80001 1.42459C8.11001 1.54414 9.05001 0.856719 9.44001 1.85298C9.58001 2.35112 10.86 2.59022 10.7 1.56407Z" fill="white"/>
<path d="M8.58 12.2439C8.58 12.0347 9.69 5.76819 7.27 7.49172C7 7.92012 7.43 7.58139 7.18 8.48799C7.43 9.06582 6.47 14.5851 8.58 12.2439Z" fill="white"/>
<path d="M11.23 10.9589C10.9 10.2714 12.13 7.28265 10.31 7.06348C9.23 7.82064 10.02 8.7372 9.73 10.6201C9.76532 11.2639 9.76532 11.9091 9.73 12.5529C10.78 13.1606 11.63 12.254 11.23 10.9589Z" fill="white"/>
<path d="M6.24999 10.3811C6.24999 9.70362 5.87999 9.16564 6.34999 7.97012C6.10999 7.38233 5.50999 6.90412 4.77999 7.53177C4.77999 7.64136 4.59999 7.66128 4.77999 7.97012C4.60999 8.6974 4.87999 9.62392 4.71999 10.6401C4.33999 12.8618 6.09999 14.6252 6.24999 10.3811Z" fill="white"/>
<path d="M16 3.56657C14.41 2.08214 9.17999 3.11825 0.729993 2.90904C-0.210007 3.04852 -0.380007 4.34366 1.23999 4.39347C1.46999 4.45325 1.35999 4.62261 2.03999 4.24403C5.07368 4.43366 8.11631 4.43366 11.15 4.24403C11.6163 4.26751 12.0806 4.32075 12.54 4.40343C12.48 4.11452 15.73 5.12074 16 3.56657Z" fill="white"/>
</g>
<defs>
<clipPath id="clip0">
<rect width="16" height="16" fill="white"/>
</clipPath>
</defs>
</svg>
