<svg width="16" height="16" viewBox="0 0 16 16" fill="none" xmlns="http://www.w3.org/2000/svg">
<path d="M15.29 1.37009C14.56 -0.349915 11.08 -0.399915 9.56 1.26008C7.85 3.61009 3.33786e-06 7.07008 6.22 11.0001H6.39C6.61551 11.1717 6.86055 11.3161 7.12 11.4301C7.16963 11.4387 7.22037 11.4387 7.27 11.4301C7.68477 11.6848 8.17456 11.7891 8.65711 11.7254C9.13967 11.6616 9.5856 11.4338 9.92 11.0801C11.63 10.2601 13.06 8.00008 15 6.10008C15.85 5.08008 16.1 3.51009 15.29 1.37009ZM14.38 5.05009C12.12 6.05009 10.65 9.97009 7.68 10.3401C7.56172 10.2314 7.43077 10.1374 7.29 10.0601C7.26053 10.0441 7.23357 10.0239 7.21 10.0001V9.91008C6.9 9.73008 6.56 8.62008 5.6 8.20008C5.75 8.11008 4.27 8.00008 5.44 7.20008C5.44 7.20008 5.5 7.13008 5.53 7.10008C7.84 5.57008 8.12 4.24008 10.77 2.10008C10.896 1.96761 11.037 1.85016 11.19 1.75008C11.8905 1.44687 12.6732 1.39046 13.41 1.59009C13.57 1.88008 13.95 2.07009 13.97 2.41008C14.0365 2.48999 14.0859 2.5827 14.1151 2.68246C14.1444 2.78222 14.1528 2.88692 14.14 2.99008C14.14 3.13008 14.42 3.05009 14.42 3.68008C14.54 3.74008 14.69 3.96008 14.65 4.02008C14.41 4.35008 14.54 4.69008 14.38 5.05009Z" fill="#FFDC82"/>
<path d="M6.54 12.4301C5.36 11.6201 2.88 7.20007 0.87 10.4301C0.394367 11.2642 0.149313 12.2099 0.16 13.1701L0.1 13.3501C0.1 13.4201 0.1 13.3501 0 13.6401C0.023397 13.6677 0.0435303 13.6979 0.06 13.7301H0.11C0.0673601 13.8296 0.0453741 13.9368 0.0453741 14.0451C0.0453741 14.1534 0.0673601 14.2605 0.11 14.3601C0.11 16.5301 3.35 16.0501 5.76 14.8401C6.09815 14.5482 6.3497 14.1692 6.48724 13.7442C6.62478 13.3193 6.64303 12.8647 6.54 12.4301ZM5.47 13.5501C5.45466 13.6134 5.42372 13.6718 5.38 13.7201C5.34629 13.7756 5.29782 13.8206 5.24 13.8501C5.20047 13.8587 5.15953 13.8587 5.12 13.8501C4.85 14.0801 5.12 13.8501 4.2 13.8501C3.95 14.0501 4.01 14.0101 2.8 14.3001C2.53359 14.4146 2.24942 14.4822 1.96 14.5001L1.84 14.5501C1.75588 14.5798 1.66412 14.5798 1.58 14.5501L1.46 14.5001C1.39999 14.4738 1.35064 14.428 1.32 14.3701C1.27087 14.3258 1.23898 14.2656 1.23 14.2001C1.21465 14.1343 1.21465 14.0659 1.23 14.0001C1.23 13.9501 1.23 14.0001 1.32 13.7701C1.41 13.5401 1.32 13.6901 1.53 13.4401V13.3601C1.61639 13.0512 1.65352 12.7306 1.64 12.4101C1.34 12.0801 1.51 12.1001 2.08 11.3301C2.07998 11.2153 2.10741 11.1021 2.16 11.0001L2.24 10.9001C2.30333 10.8417 2.37831 10.7974 2.46 10.7701C2.46 10.6901 2.57 10.6501 2.63 10.6901L2.73 10.7901C2.79022 10.8109 2.84492 10.8451 2.88996 10.8901C2.93501 10.9352 2.96922 10.9899 2.99 11.0501C2.99 11.1101 2.99 11.0501 3.04 11.2801C3.26 11.6201 3.25 11.4401 4.37 12.5401C4.50531 12.5451 4.63526 12.5943 4.74 12.6801C4.8 12.6801 4.89 12.6801 4.93 12.9101H5C5.12483 12.94 5.24115 12.9982 5.34 13.0801L5.42 13.1801C5.45984 13.2574 5.48042 13.3431 5.48 13.4301L5.47 13.5501Z" fill="#FFDC82"/>
</svg>
