<svg width="232" height="40" viewBox="0 0 232 40" fill="none" xmlns="http://www.w3.org/2000/svg">
<path d="M229.94 33.5463C229.94 33.5463 229.99 33.6164 230 33.7767C230.01 33.937 230.06 34.5082 230.14 34.3479L230.06 33.5863L230 33.0653L229.84 32.0633C230.02 31.6424 230.18 31.8629 230.3 32.3539C230.458 33.1417 230.515 33.9464 230.47 34.7487C230.62 34.4253 230.744 34.0901 230.84 33.7467C230.84 33.5763 230.91 33.4962 230.93 33.416C230.96 33.3385 230.98 33.2578 230.99 33.1755C231.021 32.8382 230.987 32.4981 230.89 32.1735C230.602 30.941 230.602 29.6585 230.89 28.426L231.06 30.3599C231.8 29.1174 231.53 27.6044 232 25.41C231.76 25.931 230.82 29.7988 230.49 27.5743C230.627 26.69 230.586 25.7872 230.37 24.919C230.84 24.919 230.73 23.7266 230.7 22.2637L231.32 22.3639C231.15 20.7807 230.83 20.901 230.55 19.9691C230.61 18.1955 231.09 17.8348 231.5 17.414C231.6 14.5883 230.72 19.418 230.61 16.0212C230.772 13.7393 230.641 11.446 230.22 9.19755C230.3 8.60637 230.37 8.47611 230.43 8.52621C230.6 9.94906 230.92 9.28773 230.84 6.99314C230.69 7.80477 230.6 8.84685 230.36 7.40397C230.36 7.50417 230.36 7.59435 230.36 7.69455L230.27 7.43403C230.27 7.0733 230.44 7.19355 230.51 7.24365C230.32 5.95106 229.89 7.36389 229.72 4.7687C229.42 4.54825 229.58 3.52621 229.78 1.93302C228.87 1.8228 227.721 1.69254 226.461 1.63242C225.831 1.63242 225.161 1.63242 224.561 1.63242C224.147 1.64768 223.735 1.70475 223.331 1.80276L223.161 1.74264C223.394 1.65288 223.635 1.58904 223.881 1.55226C223.661 1.55226 223.381 1.64244 223.101 1.68252C223.101 1.56228 223.611 1.422 223.461 1.26168C221.479 1.43045 219.506 1.70472 217.552 2.08332L217.402 2.03322L217.492 2.09334L217.072 2.1735L214.413 1.8228C216.412 2.22361 213.863 2.70457 211.673 3.09535L212.393 3.29575H210.573L211.673 3.09535L211.293 3.00517L210.483 3.31579H209.134C208.834 3.13543 209.364 2.89495 210.033 2.67451L211.293 3.00517C212.153 2.67451 212.963 2.31379 212.783 2.00316C212.405 2.0862 212.02 2.13317 211.633 2.14344C211.863 2.06328 212.003 1.98312 211.903 1.923C211.545 1.93825 211.192 2.00576 210.853 2.1234L210.053 1.53222L209.863 1.76268L205.294 1.39194C202.002 2.16865 198.662 2.72102 195.296 3.04525C195.756 2.80477 195.596 2.43403 195.116 2.04324C196.416 2.1735 198.245 1.79274 200.185 1.75266C199.905 1.8729 199.845 1.99314 200.345 2.16348C202.685 2.16348 201.985 1.85286 203.344 1.70256C199.565 1.79274 204.434 1.50216 201.705 1.29174C202.445 1.23162 203.115 1.21158 203.704 1.20156C203.025 1.15146 202.365 1.10136 201.705 1.03122H201.795C201.965 1.03122 202.015 1.10136 201.795 1.03122H201.715C201.669 1.0903 201.611 1.13827 201.545 1.1715C200.445 1.09134 201.365 1.0713 201.715 1.03122L197.925 1.23162C198.725 1.28172 199.735 1.23162 201.515 1.23162C201.074 1.41448 200.619 1.5619 200.155 1.6725C199.595 1.5723 199.825 1.41198 200.155 1.34184L195.366 1.84284C195.446 1.5222 194.816 1.51218 193.966 1.44204L193.486 1.24164C193.465 1.30201 193.422 1.35219 193.366 1.38192H193.086C193.125 1.41061 193.156 1.44849 193.176 1.49214C192.621 1.62159 192.055 1.70537 191.486 1.74264C191.816 1.81614 192.15 1.86968 192.486 1.90296C191.296 2.09334 188.837 2.0232 187.537 2.20357C187.407 1.91298 187.877 1.63242 190.257 1.69254C188.187 1.20156 187.257 2.09334 185.717 2.23363H185.497C185.887 1.76268 184.497 1.91298 183.078 2.0733C183.093 2.10351 183.118 2.12807 183.148 2.14344C182.008 2.14344 181.058 1.99314 181.518 1.84284H182.098H181.378C183.195 1.48857 185.046 1.33734 186.897 1.39194C185.797 0.88092 186.337 1.45206 184.617 0.85086C186.107 1.59234 178.418 0.85086 180.818 1.60236C179.048 0.91098 177.759 1.31178 175.449 0.720599C175.519 0.89094 176.269 1.04124 174.229 0.96108C174.086 1.02177 173.939 1.072 173.789 1.11138H173.649H173.759C173.669 1.11138 173.659 1.11138 173.759 1.11138C174.102 1.15541 174.438 1.24295 174.759 1.3719C173.229 1.66799 171.677 1.83557 170.12 1.8729C170.205 1.74956 170.309 1.6412 170.43 1.55226L169.57 2.00316C168.57 1.923 170.16 1.81278 169.52 1.63242L167.89 1.93302C167.849 1.87899 167.793 1.83739 167.73 1.81278L168.5 1.30176C168.075 1.45541 167.637 1.56618 167.19 1.63242C166.42 1.41198 165.54 1.24164 167.53 1.09134L165.011 1.00116C163.386 0.785794 161.743 0.755541 160.111 0.91098C158.901 0.820799 157.112 1.3218 158.112 1.03122L154.112 1.26168V1.1715C151.213 1.1715 148.193 1.48212 145.004 1.40196C145.154 1.40196 145.204 1.29174 145.124 1.18152C146.073 1.35186 146.803 1.4721 147.123 1.24164C146.333 1.15146 145.654 1.09134 145.044 1.06128L144.944 0.9711C144.528 0.930102 144.109 0.930102 143.694 0.9711C142.751 0.831375 141.791 0.851699 140.854 1.03122L141.474 1.1214C142.104 1.1214 142.734 1.04124 143.474 1.03122C143.264 1.1214 143.304 1.25166 142.964 1.29174C142.624 1.33182 141.964 1.19154 141.504 1.1214C139.842 1.27354 138.172 1.30703 136.505 1.2216L136.115 1.00116C136.545 1.00116 137.005 0.94104 137.265 0.93102L131.826 0.740639C131.26 0.688056 130.689 0.728674 130.136 0.86088C128.286 -0.000843853 121.817 0.710579 118.808 0.560278L118.698 0.98112C116.628 0.98112 114.638 1.08132 112.069 1.25166L112.219 1.6224C112.049 1.63275 111.879 1.63275 111.709 1.6224C111.379 1.56513 111.044 1.53497 110.709 1.53222C111.019 1.53222 111.269 1.60236 111.459 1.64244C109.249 1.7727 106.13 1.31178 102.98 1.35186C103.56 1.22609 104.16 1.22609 104.74 1.35186C100.551 0.500158 95.9014 1.96308 92.102 1.35186C91.3399 1.46878 90.5644 1.46878 89.8023 1.35186H90.0323H89.6424C89.2324 1.28172 88.7925 1.21158 88.3326 1.15146C88.6955 1.23721 89.0626 1.3041 89.4324 1.35186C88.7025 1.35186 87.6027 1.35186 86.5129 1.50216L86.0529 1.09134H85.803C84.7331 0.95106 84.9431 1.29174 85.513 1.59234C84.9631 1.66248 84.5132 1.74264 84.0732 1.83282C83.2134 1.18152 81.2237 2.05326 80.0739 1.36188C79.394 1.6725 75.2946 1.6224 74.2348 2.18352C73.0792 2.04246 71.9109 2.04246 70.7553 2.18352L70.2454 1.6725L67.6058 2.36389C65.9961 2.04324 65.3262 1.86288 66.9259 1.4721C63.0765 2.08332 63.7964 1.70256 60.5269 2.30377L60.6869 2.00316C59.5171 2.00316 57.6874 2.45407 56.9375 2.18352C54.3179 1.55226 43.9395 2.09334 37.2606 1.51218C38.5604 2.51419 34.1411 1.0713 33.8711 1.83282C33.4812 1.60236 32.5413 1.46208 33.6312 1.26168C30.2017 1.49214 28.482 0.90096 26.1123 1.54224C25.7124 1.30176 26.8422 1.20156 26.4923 1.06128C26.016 1.18613 25.5195 1.21339 25.0325 1.14144C24.6826 1.01118 25.5424 0.95106 26.0324 0.85086C22.5329 0.85086 22.173 1.60236 21.923 2.27371C20.6383 1.9496 19.2874 2.00528 18.0336 2.43403C17.4137 2.22361 16.3839 1.99314 18.5635 1.91298C17.3337 1.91298 11.0847 1.59234 10.9547 2.1234C10.2917 2.02565 9.61803 2.02565 8.95504 2.1234H5.95551C4.95567 2.1234 3.95582 2.1234 2.15611 2.1234L3.23594 2.20357C2.87038 2.44041 2.44117 2.55931 2.00613 2.54425C2.00613 3.39595 1.82616 4.32781 1.88615 5.88092L1.74617 5.81078L1.59619 7.27371C1.59619 7.62441 1.59619 7.90497 1.5462 8.12541C1.53627 8.4269 1.553 8.72868 1.59619 9.02721C1.67077 10.0341 1.60006 11.0465 1.38623 12.0332L1.85615 11.8028C2.856 12.1935 1.26625 15.5703 1.64619 18.0352L1.91614 17.1434C2.25609 18.5262 0.546359 20.941 0.426377 22.2937C0.336392 22.5843 0.286399 21.8328 0.21641 21.412C-0.373497 24.9591 0.826315 21.8729 0.976291 24.5182C0.646343 25.0493 0.136423 23.8869 0.0364387 25.6605C-0.233519 26.5523 1.10627 30.8208 0.466371 33.2457C0.72633 32.7146 0.976291 32.1835 1.16626 33.406C1.35623 34.6284 1.03628 36.4921 0.866308 38.4761C1.86615 38.5463 2.96598 38.5863 3.99582 38.5763C4.88288 38.5949 5.76899 38.5074 6.6354 38.3158C6.91536 38.3759 7.01534 38.436 7.02534 38.4861C8.49511 38.3358 11.5746 38.2256 12.9744 37.945L13.8743 38.0553C14.8741 38.4461 16.9938 38.3258 18.9935 38.1755C18.7935 38.2356 18.6335 38.2957 18.8235 38.3759C19.2469 38.2249 19.6865 38.124 20.1333 38.0753H20.7232C21.4926 38.0361 22.2634 38.0361 23.0328 38.0753L22.7929 38.1555H23.5427C23.5863 38.1802 23.6235 38.2149 23.6513 38.2566C23.6791 38.2984 23.6967 38.3461 23.7027 38.396L28.8119 38.3258L28.6819 38.4561C29.7557 38.4987 30.8311 38.472 31.9014 38.3759C33.6612 38.4661 35.6208 38.5663 38.1605 38.6465L37.7705 38.3459H38.8803C39.3903 38.406 39.6702 38.4761 40.0901 38.5362C40.5201 38.3859 40.4601 38.3058 40.1701 38.2657H40.6001C43.7896 38.3659 48.1689 38.1655 49.0787 38.8168C50.5785 38.8168 49.7886 38.6064 49.7586 38.4761H51.0584L51.2584 38.5563L51.3884 38.4861C52.0983 38.4861 52.8082 38.4861 53.528 38.4861C53.868 38.5964 54.058 38.7166 54.0779 38.8168C53.728 38.8168 53.0781 38.8769 52.6882 38.897C54.6293 39.02 56.5762 39.02 58.5173 38.897L56.5176 38.7567C58.2573 38.6966 60.117 38.6765 62.0067 38.6665C64.7063 38.8368 67.1959 39.0172 68.6957 38.6665C71.2353 38.6665 73.6949 38.5663 75.9645 38.3759L75.5146 38.1855C76.8424 38.0383 78.1801 38.0015 79.514 38.0753C79.5639 38.0753 79.5939 38.1354 79.5839 38.1755H81.1737C81.7336 38.1755 82.4335 38.1755 83.3733 38.1755H84.0232H83.9433H84.0732C85.373 38.1755 86.6628 38.1755 87.9426 38.2356C88.5325 38.3559 89.2224 38.4761 88.3226 38.6064C90.2023 38.4661 90.9922 38.3859 91.4321 38.3058C96.1613 38.426 100.821 38.5663 105.37 38.5763L104.79 38.2056C105.649 38.1145 106.517 38.1859 107.35 38.416C106.987 38.4411 106.623 38.4411 106.26 38.416C106.711 38.5284 107.179 38.5523 107.64 38.4861H107.73L107.84 38.436C108.527 38.3892 109.203 38.2302 109.839 37.9651C113.839 38.2056 108.259 38.6765 109.499 38.6966L111.179 38.6465L110.799 38.5763C111.569 38.436 111.949 38.2857 112.579 38.1955C113.447 38.3094 114.323 38.363 115.198 38.3559C114.778 38.3559 114.748 38.416 114.338 38.406C114.87 38.4661 115.407 38.4661 115.938 38.406C116.014 38.4482 116.102 38.4657 116.188 38.4561C116.188 38.4561 116.398 38.5262 117.188 38.4561L120.188 38.5062C121.327 38.7667 124.527 38.0152 123.377 38.7366C125.047 37.8148 127.476 38.8469 130.296 38.1455L130.106 38.5463C130.829 38.4106 131.561 38.3302 132.296 38.3058L130.816 38.8268C133.096 38.3859 135.215 39.2076 137.405 38.9671C132.816 38.9671 136.405 38.4861 134.405 38.1955C139.934 37.6745 137.775 39.1976 143.604 39.0573C142.604 39.0573 140.934 38.7867 142.104 38.6264C143.293 38.6843 144.476 38.8317 145.644 39.0673C149.833 38.9871 144.994 38.6565 146.783 38.416C147.963 38.8168 148.613 38.416 149.853 38.1855C150.133 38.2197 150.41 38.2733 150.683 38.3459V38.4661C153.362 38.6164 153.432 38.3258 153.742 38.1054C154.381 38.1202 155.02 38.0529 155.642 37.905H156.132L154.432 38.426L156.672 38.2857L156.212 38.7467C158.063 38.4736 159.94 38.4298 161.801 38.6164C161.481 38.4561 161.641 38.2457 162.211 38.0853L164.761 38.1755C165.076 38.2133 165.395 38.2133 165.71 38.1755H166.33C165.501 38.5568 164.56 38.614 163.691 38.3358C163.561 38.4661 163.031 38.5964 162.891 38.7266C164.553 38.8803 166.225 38.9004 167.89 38.7867C167.498 38.7808 167.107 38.7473 166.72 38.6865L169.88 38.2757H171.37C171.153 38.3948 170.915 38.4697 170.67 38.4962C171.42 38.4962 171.979 38.3258 172.919 38.2657H173.009H173.349C173.019 38.5964 173.099 38.937 171.27 39.0873L175.409 38.7266C175.689 38.8669 177.539 39.1174 176.999 39.2376C179.288 39.438 182.628 38.5964 185.677 38.8569C186.041 38.7489 186.418 38.6916 186.797 38.6865C189.657 38.7567 192.196 39.1575 195.586 38.6865L197.515 39.2777C200.165 39.1475 194.906 38.5362 199.325 38.2757C202.465 38.0853 200.495 38.7767 201.595 38.9471C203.932 38.368 206.354 38.2219 208.744 38.5162C207.744 38.6264 207.044 38.5162 206.154 38.5863L208.344 38.917C205.694 39.4581 203.784 39.2677 205.844 39.7286C206.154 38.5863 214.363 39.6084 214.663 38.4761L216.112 38.7166C215.693 38.7166 215.633 38.7166 215.223 38.7166C217.782 39.2176 217.422 38.1254 220.082 38.0452H220.232H220.282C220.482 38.0452 220.692 38.0452 220.932 38.0452C222.192 38.1354 223.071 38.2958 222.212 38.436L223.621 38.2958C224.121 38.2958 224.441 38.1956 225.261 38.1455C226.261 38.1455 226.311 38.3058 225.541 38.3459H227.211L227.271 38.436L227.471 38.3459H230.47V37.2637V37.3338C230.27 36.3318 229.95 34.4481 229.81 33.6465C229.89 33.6465 229.92 33.5362 229.94 33.5463ZM230.49 27.6945C230.58 28.2456 230.89 29.3378 230.61 29.6986C230.07 29.1174 230.33 28.6264 230.49 27.6945ZM22.033 3.35587H20.0333L20.7332 3.08533L19.4334 3.32581H19.5534H19.2534H19.4334C18.7335 3.12541 18.1436 2.95507 17.7437 2.87491L21.2431 2.58433C21.663 2.67451 21.3131 2.86489 20.7332 3.08533L21.3731 3.00517C22.033 3.06529 22.163 3.20557 22.033 3.35587ZM67.3359 3.11539H65.6261L67.3559 2.51419C67.1559 2.65447 67.2059 2.87491 67.2959 3.11539H67.3359ZM74.0248 2.34385C73.9548 2.34385 73.8748 2.26369 74.2848 2.25367C74.1919 2.26117 74.1024 2.2922 74.0248 2.34385ZM99.0209 3.17551C98.8109 3.17551 98.8509 3.17551 99.0209 3.17551C97.3512 3.17551 96.0214 3.09535 94.7216 3.03523C96.0643 2.54001 97.4603 2.20373 98.8809 2.03322L99.5808 2.31379L102.38 2.00316C101.67 2.30377 100.441 2.73463 99.0209 3.17551ZM107.18 38.0753H107.36H107.18ZM116.888 3.38593H114.099L114.288 3.04525H113.929C113.934 2.85982 113.986 2.6788 114.081 2.51927C114.175 2.35974 114.309 2.22695 114.468 2.13342C114.628 2.13342 115.788 2.30377 117.038 2.49415C117.096 2.62242 117.14 2.75687 117.168 2.89495L116.888 3.38593ZM120.468 38.6164L119.898 38.426C120.827 38.2757 121.797 38.5262 122.047 37.9851H121.697C121.697 37.9851 121.517 37.8549 121.087 37.7146C122.978 38.0736 124.903 38.2281 126.827 38.1755C126.017 38.5663 122.637 38.2457 120.468 38.5863V38.6164ZM131.906 3.35587L132.066 3.30577C132.276 3.35587 132.236 3.30577 132.066 3.30577C132.986 3.30577 133.805 3.30577 134.575 3.36589L131.906 3.35587ZM152.812 2.49415H152.592L152.832 2.42401L152.812 2.49415ZM155.872 2.65447C155.901 2.6277 155.924 2.59513 155.939 2.55887C155.955 2.52262 155.963 2.48349 155.962 2.44405C156.592 2.37391 157.112 2.28373 157.552 2.19354C157.053 2.51909 156.466 2.68026 155.872 2.65447ZM162.011 2.53423C161.033 2.22234 160.029 2.00097 159.011 1.8729C159.899 1.7159 160.802 1.66879 161.701 1.73262C162.221 2.00316 162.671 2.49415 162.011 2.53423ZM162.941 1.30176C161.531 1.14144 162.031 1.20156 163.011 1.30176H162.941ZM163.581 2.61439C163.561 2.53112 163.561 2.4445 163.58 2.36114C163.599 2.27778 163.637 2.19989 163.691 2.13342C163.871 2.29375 163.721 2.46409 163.561 2.61439H163.581ZM194.576 2.45407L194.426 2.21359C194.726 2.28373 194.846 2.36389 194.546 2.45407H194.576ZM207.574 2.45407L206.944 2.39395C207.273 2.32759 207.61 2.31071 207.944 2.34385L207.214 2.39395L207.574 2.45407Z" fill="#DDEBBC"/>
</svg>
