<svg width="2" height="40" viewBox="0 0 2 40" fill="none" xmlns="http://www.w3.org/2000/svg">
<path d="M0.860064 6.10352e-05C0.480064 0.0667267 0.450064 0.13895 0.310064 0.322285C-0.109936 0.916729 0.180064 1.79451 0.220064 2.40562C0.320064 3.77229 0.220064 5.13895 0.110064 6.50562C-0.0399432 7.91364 -0.0399432 9.32537 0.110064 10.7334C0.270064 12.1778 0.220064 13.6001 0.220064 15.0501C0.220064 15.7001 0.310064 16.3556 0.330064 17.0112C0.350064 17.6667 0.180064 18.4501 0.170064 19.1723C0.170064 20.6445 0.170064 22.1112 0.290064 23.5778C0.410064 25.0445 0.290064 26.3556 0.180064 27.7278C0.0700639 29.1001 0.430064 30.5056 0.320064 31.9334C0.210064 33.3612 0.140064 34.6556 0.0700639 36.0112C0.0499401 36.6549 0.100032 37.2986 0.220064 37.9389C0.295161 38.2966 0.325234 38.6567 0.310064 39.0167C0.280064 39.2278 0.0600639 39.5056 0.260064 39.7112C0.328972 39.7979 0.441746 39.8716 0.584665 39.9233C0.727583 39.975 0.894485 40.0026 1.06506 40.0026C1.23564 40.0026 1.40254 39.975 1.54546 39.9233C1.68838 39.8716 1.80116 39.7979 1.87006 39.7112C1.97547 39.4223 1.99573 39.1259 1.93006 38.8334C1.93006 38.4112 1.93006 37.9945 1.88006 37.5723C1.75505 36.188 1.75505 34.801 1.88006 33.4167C2.03505 32.0181 2.03505 30.6154 1.88006 29.2167C1.70006 27.7778 2.00006 26.3445 2.00006 24.9056C2.00006 23.4667 2.00006 22.1278 2.00006 20.7556C2.00006 20.2001 1.94006 19.6778 2.00006 19.1445C2.09004 18.5734 2.09004 17.999 2.00006 17.4278C1.88004 16.6645 1.88004 15.8968 2.00006 15.1334C2.00006 14.3834 1.93006 13.6334 1.92006 12.8834C1.92006 11.3278 2.14006 9.77784 2.10006 8.22228C2.06006 6.66673 2.02006 5.03339 2.04006 3.43895C2.04006 2.70006 2.09006 1.96117 2.04006 1.21673C1.94006 0.772285 2.23006 -0.0777168 0.860064 6.10352e-05Z" fill="#FFDC82"/>
</svg>
