<svg width="296" height="40" viewBox="0 0 296 40" fill="none" xmlns="http://www.w3.org/2000/svg">
<path d="M296 38.0499C295.65 27.0499 295.93 16.1599 295.65 5.2199C295.65 4.1199 295.65 3.0299 295.65 1.9299C295.65 -0.0700976 295.36 0.429903 293.31 0.379903C288.84 0.289903 284.52 0.379903 280.07 0.519903C274.01 0.759903 267.9 -0.0800975 261.8 0.0499025C255.29 0.199903 248.8 0.169903 242.26 0.269903C236.02 0.369903 229.47 0.919903 223.26 0.369903C221.18 0.189903 219.26 0.0799025 217.19 0.00990254C215.911 0.0147161 214.636 0.138584 213.38 0.379903C210.38 0.769903 206.92 0.379903 203.88 0.449903C198 0.519903 192.25 0.0499025 186.49 0.209903C174.27 0.539903 161.9 0.619903 149.7 0.449903C147.218 0.314918 144.732 0.314918 142.25 0.449903C140.05 0.649903 138.02 0.0699026 135.77 0.149903C133.52 0.229903 131.88 0.809903 129.71 0.589903C126.57 0.269903 123.37 0.519903 120.21 0.369903C107.5 -0.250097 94.76 0.339903 82 0.469903C78.58 0.499903 75.19 0.0899025 71.75 -9.74564e-05C68.11 -0.0900975 64.44 0.249903 60.81 0.329903C54.68 0.489903 48.22 0.0599025 42.33 0.219903C28.42 0.589903 14.49 -0.210097 0.620005 0.239903C0.850005 5.3099 0.450005 10.2999 0.480005 15.3199C0.480005 18.4099 0.210005 21.5199 0.210005 24.6099C0.210005 26.9999 -0.299995 30.0999 0.270005 32.4699C0.582973 33.2813 0.778284 34.1332 0.850005 34.9999C0.850005 35.5299 0.430005 38.9099 0.850005 39.3199C1.27 39.7299 5.18 39.3199 5.85 39.3199H10.85C13.85 39.3199 16.85 39.6899 19.95 39.5799C23.258 39.3466 26.5762 39.2932 29.89 39.4199C35.41 39.7999 40.95 39.2599 46.45 39.2499C52.7 39.2499 59.03 39.7799 65.31 39.7999C71.85 39.7999 78.31 39.5599 84.91 39.6199C91.51 39.6799 97.83 39.0699 104.39 39.5199C108.32 39.7799 112.24 39.8599 116.18 39.7799C118.12 39.7799 120.07 39.6099 122.01 39.5599C123.27 39.5599 124.72 40.0899 125.92 39.9199C126.71 39.7999 127.13 39.3699 127.92 39.1999C129.25 38.9099 131.28 39.5999 132.67 39.6199C136.617 39.6634 140.563 39.4865 144.49 39.0899H144.3C156.47 39.5799 168.65 39.0899 180.85 39.0899C191.85 39.1399 202.85 39.4299 213.85 39.3799C216.97 39.2581 220.094 39.3015 223.21 39.5099C226.5 39.8399 229.56 38.9599 232.85 39.0199C236.76 39.0999 240.66 38.8699 244.56 38.9299C246.88 38.9299 249.33 40.1599 251.56 39.6399C252.508 39.3463 253.489 39.1749 254.48 39.1299C256.48 39.1299 258.48 39.2499 260.48 39.2899C263.21 39.2899 265.95 39.2899 268.68 39.2899H281.68C286.44 39.2899 291.18 39.7099 295.93 39.6999L296 38.0499ZM196.85 1.2999C195.586 1.64477 194.254 1.64477 192.99 1.2999C194.268 1.08489 195.572 1.08489 196.85 1.2999ZM101.33 0.809903C102.032 0.86771 102.727 1.00183 103.4 1.2099C102.125 1.41995 100.825 1.41995 99.55 1.2099C100.126 1.00704 100.723 0.872783 101.33 0.809903ZM262.8 37.6199C260.37 37.7099 257.936 37.6698 255.51 37.4999C253.51 37.4999 251.51 37.9299 249.51 37.8599C245.12 37.7199 240.71 37.5399 236.3 37.3999C231.15 37.2399 226.09 37.6299 220.96 37.6799C216.04 37.6799 211.12 37.2799 206.2 37.6199C196.12 38.3299 186.07 37.0199 175.95 37.4699C175.006 37.5614 174.058 37.5982 173.11 37.5799C172.252 37.3622 171.374 37.2315 170.49 37.1899C169.19 37.3899 168.77 37.9499 167.27 37.8299C162.184 37.4545 157.076 37.5114 152 37.9999H152.19C136.84 37.3799 121.45 38.2999 106.02 37.8799C95.74 37.5899 85.42 38.0699 75.15 37.6999C73.85 37.6999 72.57 37.3399 71.27 37.3299C69.27 37.3299 67.47 37.9899 65.53 38.0599C61.03 38.2299 56.41 38.1699 51.9 38.0599C50.2531 37.968 48.6153 37.7541 47 37.4199C45.49 37.1799 44.82 37.6999 43.51 37.9599C40.51 38.5599 36.69 37.7999 33.58 37.7799C26.39 37.7799 19.21 37.7799 12.03 37.7799C9.95 37.7799 7.88 37.7799 5.81 37.6199C4.43 37.5099 3.49 37.6799 2.86 36.8299C2.23 35.9799 2.62 33.7099 2.59 32.7099C2.53 31.3299 2.52 29.9599 2.52 28.5799C2.52 25.9899 2.61 23.3999 2.68 20.8099C2.84 14.5999 2.42 8.3699 2.54 2.0899C7.41 2.2599 12 2.1999 16.85 1.9999C22 1.7199 27.34 2.2899 32.53 2.4499C37.72 2.6099 42.8 1.9999 48 2.1299C53.62 2.3299 59.37 2.4099 65 2.1299C69.4 1.8999 73.67 2.6099 78 2.4999C80.44 2.4399 82.51 2.1099 84.93 2.1099C92.75 2.1099 100.57 2.2799 108.38 2.3399C118.97 2.4099 129.66 1.6199 140.23 2.0899C144.613 2.33158 149.005 2.34827 153.39 2.1399C156.85 1.9399 160.2 2.7099 163.66 1.9599C165.66 1.5399 167.66 2.0499 169.76 2.0599C172.59 2.0599 175.4 2.0599 178.24 2.2499C183.683 2.53989 189.137 2.53989 194.58 2.2499C199.58 1.9599 204.58 2.2499 209.58 2.1299C215.07 1.9699 220.48 2.5199 225.94 2.4599C232.1 2.3999 238.24 1.9599 244.41 2.0699C249.41 2.1499 254.05 2.2299 259.02 2.0699C265.23 1.9399 271.51 2.0699 277.7 2.3299C280.991 2.4383 284.285 2.38156 287.57 2.1599C289.44 2.0599 291.97 2.6399 293.71 2.1599C293.88 4.28251 293.9 6.41447 293.77 8.5399C293.64 11.5399 293.6 14.5399 293.45 17.5399C293.25 21.3299 293.3 25.1199 293.32 28.9099C293.32 32.0599 293.94 34.5399 293.96 37.6799C288.5 37.6799 283.01 37.2499 277.57 37.3599C274.87 37.4199 272.18 37.7099 269.49 37.6999C267.22 37.8299 265 37.3999 262.8 37.6199Z" fill="#E19A9A"/>
</svg>
