<svg width="16" height="16" viewBox="0 0 16 16" fill="none" xmlns="http://www.w3.org/2000/svg">
<path d="M10.7026 0.364557C9.76605 0.374684 8.89999 0 8.01379 0C7.09827 0.143181 6.21521 0.448318 5.40554 0.901266C4.60226 1.11766 3.83769 1.45936 3.13968 1.91392L2.29376 2.59241C1.26077 3.92954 0.497878 5.45695 0.0480499 7.08861C0.0480499 7.31139 0.0480499 7.52405 0.0480499 7.74684C0.498673 7.95618 1.00735 8.00268 1.48813 7.87848C1.48813 7.71646 1.48813 7.74684 1.66939 7.5038C1.75286 6.29577 2.19339 5.14038 2.93445 4.18588C3.67551 3.23139 4.6833 2.52133 5.8285 2.14684C6.14093 1.95242 6.4803 1.80568 6.83554 1.71139C8.22177 1.4797 9.64531 1.68116 10.9141 2.28861C10.9818 2.32635 11.0377 2.3825 11.0752 2.45063L11.6895 2.66329C11.756 2.68456 11.8177 2.71899 11.8708 2.76456C13.754 2.67342 12.7771 1.19494 10.7026 0.364557Z" fill="#8FB23E"/>
<path d="M16 8.16194C15.7986 7.98978 14.7412 7.63535 14.3082 8.16194C14.153 9.82005 13.3795 11.3577 12.1431 12.4657C11.8826 12.8287 11.5365 13.121 11.136 13.3164C10.7634 13.4885 10.4009 13.6202 10.0484 13.8126C9.71805 14.0212 9.35813 14.1783 8.98093 14.2784C8.02985 14.4237 7.05742 14.2642 6.20148 13.8227C5.81395 13.5937 5.41002 13.394 4.99303 13.2252C4.48267 13.1541 3.96658 13.1337 3.45225 13.1645C3.35777 13.1539 3.2676 13.119 3.19041 13.0632C2.55597 13.3265 2.81781 14.005 3.62344 14.6531C3.7107 14.6551 3.79653 14.6758 3.8752 14.7138C4.99275 15.4219 6.25732 15.862 7.57107 15.9999C8.3445 15.9911 9.11457 15.896 9.86713 15.7164C12.0625 15.0581 14.3183 13.1948 15.9094 9.14421C15.8737 8.81399 15.9045 8.47991 16 8.16194Z" fill="#8FB23E"/>
<path d="M4.99298 10.3292C4.88221 10.0963 4.66066 9.72162 4.37868 10.2583C4.25246 10.2153 4.11821 10.2015 3.98593 10.2178C3.47234 9.83301 1.29712 9.04314 0.602257 10.5925C0.602257 10.5925 0.602257 10.5925 0.602257 10.6735C0.595355 10.7631 0.567769 10.8497 0.521694 10.9267V10.9773C0.527065 11.0684 0.527065 11.1597 0.521694 11.2507C0.52606 11.2742 0.52606 11.2982 0.521694 11.3216L0.66268 11.433C0.531764 11.5444 0.400848 11.5748 0.431059 11.99C-0.656551 13.1242 0.551905 14.6431 1.43811 14.0153C1.5301 13.882 1.61417 13.7434 1.68987 13.6001C1.68987 13.6001 1.68987 13.4887 1.68987 13.6001C1.68987 13.7115 1.68987 13.6001 1.68987 13.6001L1.75029 13.4077C1.75029 13.2862 1.81071 13.1545 1.83085 13.0229V12.952V12.7393C1.86213 12.6187 1.90956 12.5029 1.97184 12.395C2.02116 12.2478 2.09618 12.1107 2.19339 11.99C2.19339 11.8988 2.19339 11.8279 2.19339 11.7267C2.19339 11.6254 2.19339 11.7267 2.2941 11.6457C2.37466 11.6457 2.2941 11.6457 2.46529 11.5647C2.46529 11.5647 2.46529 11.5647 2.58614 11.5647C2.70698 11.5647 2.64656 11.5647 3.1098 11.5647C3.31879 11.7455 3.56706 11.8746 3.83466 11.9414C4.10226 12.0082 4.38173 12.011 4.65058 11.9495C4.8774 11.4434 4.99414 10.8944 4.99298 10.3393C4.99298 10.3393 4.99298 10.3697 4.99298 10.3292Z" fill="#8FB23E"/>
<path d="M12.8076 4.05064C12.294 4.21267 12.1933 3.73672 11.4279 4.13165C9.83681 6.00507 12.576 5.93419 15.3554 5.82279C15.1742 5.05317 15.9597 3.02786 15.3554 1.77216C14.777 1.74151 14.1983 1.82759 13.6535 2.02533C13.4622 2.19748 13.2104 2.49115 13.8046 2.54178C13.8046 2.64305 13.8046 2.74431 13.8046 2.84558C13.8046 2.94684 13.8046 3.01773 13.7139 3.32153C13.7139 3.44305 13.7139 3.32153 13.7139 3.59495C13.7139 3.59495 13.7139 3.66583 13.7139 3.70634C13.7139 3.70634 13.7139 3.84811 13.7139 3.96963H13.6434C13.6434 4.03039 13.5427 3.96963 13.4219 4.16203C13.4219 4.16203 13.3413 4.16203 13.2809 4.16203C13.2205 4.16203 13.0493 4.24305 12.8076 4.05064Z" fill="#8FB23E"/>
</svg>
