<svg width="232" height="80" viewBox="0 0 232 80" fill="none" xmlns="http://www.w3.org/2000/svg">
<path d="M231.84 77.8088V77.3081C231.847 77.2047 231.847 77.101 231.84 76.9977C231.836 76.7739 231.803 76.5516 231.74 76.3367C231.031 76.2566 231.181 74.4741 231.221 72.9019C231.281 70.7289 231.38 68.5558 231.39 66.3828V46.6251C231.342 44.3342 231.445 42.0426 231.7 39.7655C231.84 38.3704 231.84 36.9647 231.7 35.5696C231.309 30.2845 231.252 24.9797 231.53 19.6874C231.53 18.3956 231.71 16.9536 231.311 16.1624C231.151 15.904 231.061 15.6082 231.05 15.3042C231.04 15.0003 231.109 14.6989 231.251 14.43C231.718 12.9524 231.851 11.3892 231.64 9.85361C231.54 8.45165 231.47 7.03967 231.42 5.62769C231.37 4.21571 231.36 3.17425 231.42 0.53055H229.062L227.543 0.450438C226.557 0.403706 225.558 0.333608 224.546 0.240144C222.978 0.17149 221.407 0.231776 219.849 0.420396C219.513 0.460613 219.18 0.517429 218.85 0.590635H212.574C212.278 0.574772 211.981 0.574772 211.685 0.590635L201.952 0.210101C200.954 0.146604 199.953 0.146604 198.955 0.210101C197.756 0.350298 196.546 0.440424 195.337 0.500508H191.56C190.881 0.500508 190.191 0.500508 189.512 0.550578C188.273 0.550578 187.024 0.470466 185.774 0.410382C183.916 0.320256 181.917 0.410382 179.989 0.410382C178.99 0.410382 177.89 0.410382 176.831 0.410382C173.404 0.410382 169.956 0.48048 166.549 0.410382C165.88 0.411809 165.212 0.462012 164.55 0.560592C163.745 0.577986 162.946 0.413713 162.212 0.0799191C161.696 0.0530438 161.179 0.0530438 160.663 0.0799191C159.999 0.143342 159.331 0.163413 158.665 0.140003C157.226 -0.100333 156.596 -0.0402492 156.147 0.390354C155.904 0.521102 155.64 0.605971 155.367 0.640705H154.788C153.203 0.498666 151.611 0.45185 150.021 0.500508C148.302 0.570606 146.594 0.610663 144.885 0.630691H144.295C143.596 0.630691 142.827 0.630691 142.087 0.630691L139.019 0.580621C137.381 0.580621 135.732 0.510522 134.093 0.450438C133.683 0.450438 133.284 0.360312 132.884 0.290214C132.309 0.245387 131.731 0.245387 131.155 0.290214L128.557 0.360312C127.312 0.186698 126.051 0.15981 124.8 0.2802C124.4 0.291271 124.004 0.355248 123.621 0.470466C119.824 0.53055 116.027 0.53055 112.199 0.38034C111.641 0.337454 111.079 0.337454 110.521 0.38034L108.013 0.2802C103.746 0.0248051 99.4684 0.0248051 95.2021 0.2802C94.063 0.360312 92.9438 0.420396 91.8846 0.460452C91.088 0.415769 90.289 0.43922 89.4964 0.53055C87.7876 0.53055 86.0989 0.53055 84.3302 0.440424C83.0412 0.38034 81.6722 0.440424 80.3332 0.440424C76.3909 0.6946 72.4348 0.634326 68.502 0.260172C67.0514 0.111983 65.5915 0.0751571 64.1353 0.150017C58.7793 0.450438 53.3733 0.580621 47.9174 0.580621C46.7383 0.580621 45.4392 0.58062 44.39 0.470466C41.7554 0.280219 39.1105 0.280219 36.4759 0.470466C34.2876 0.550578 32.0492 0.590635 29.8409 0.570606C27.4726 0.570606 25.1144 0.440424 22.7462 0.390354C21.2573 0.390354 19.6285 0.460452 18.2895 0.390354C15.0618 0.150977 11.82 0.177771 8.59673 0.470466C6.70551 0.556196 4.81117 0.546169 2.92096 0.440424L0.472789 0.410382C0.472789 1.60205 0.472789 2.79372 0.472789 3.9954V5.60766H0.322901L0.472789 6.15843V6.62909C0.472789 8.36152 0.542737 10.0739 0.642662 11.7362C0.854696 14.3786 0.801134 17.0357 0.482781 19.6674C0.256499 21.3269 0.222966 23.0071 0.382856 24.6744C0.512759 27.0177 0.612684 29.4511 0.642662 31.9045V32.7857C0.642662 34.7885 0.642662 36.6812 0.642662 38.6339C0.602811 39.5396 0.489184 40.4405 0.302916 41.3277C0.301691 41.7163 0.328407 42.1045 0.382856 42.4893C0.494889 43.5738 0.544933 44.6637 0.532744 45.7539C0.466872 46.4767 0.466872 47.2041 0.532744 47.9269C0.532744 47.9269 0.532744 48.0471 0.532744 48.0972C0.390217 49.2165 0.316799 50.3435 0.312908 51.4719C0.170841 52.1066 0.0938319 52.7542 0.0830797 53.4046C0.0830797 54.4861 0.342886 55.7479 0.272938 56.6892C0.0131319 59.5132 0.0131319 62.3471 0.0131319 65.2412C0.0131319 66.9436 0.0131319 68.646 0.0131319 70.3383C-0.0235149 71.368 0.0165666 72.399 0.133042 73.4227C0.19122 73.491 0.254704 73.5546 0.322901 73.6129C0.323728 74.055 0.353771 74.4966 0.412834 74.9348C0.502767 75.5957 0.602692 76.2066 0.652655 76.8074V77.2881V77.969C0.652655 78.4297 0.652655 78.9003 0.652655 79.4211C1.27219 79.4211 1.91172 79.5112 2.70113 79.6113H3.06086H3.39061C3.63043 79.6113 3.89024 79.6113 4.17003 79.6113H5.87875C7.37764 79.6113 8.87652 79.6113 10.3654 79.6714C15.7946 80.0191 21.2419 79.9655 26.6632 79.5112C27.3727 79.4411 28.382 79.5713 29.2413 79.5713C33.5381 79.5713 37.9448 79.9218 42.0917 79.4611C46.1429 79.0975 50.2202 79.1411 54.2626 79.5913C59.5441 79.9801 64.8461 80.0036 70.1308 79.6614C71.1308 79.4943 72.1556 79.5559 73.1286 79.8416C73.6782 80.0519 74.8673 80.082 75.1271 79.7515C75.5268 79.1707 76.3262 79.1306 78.0249 79.4811C78.8356 79.6317 79.6586 79.7055 80.4831 79.7014C84.2103 79.6313 87.9275 79.5112 91.4749 79.1407H91.1351H91.5248C92.1744 79.1407 92.8539 79.1407 93.5234 79.2007C94.309 79.2991 95.0999 79.3493 95.8916 79.351H96.1914C97.8483 79.6272 99.5417 79.5967 101.188 79.2608C102.767 78.8941 104.406 78.8736 105.994 79.2007C107.074 79.316 108.162 79.316 109.242 79.2007C111.586 78.968 113.947 78.9445 116.296 79.1307C118.033 79.3761 119.796 79.3761 121.532 79.1307H121.672C122.522 79.1307 123.341 79.1307 124.131 79.1307H124.19C127.668 79.1307 131.185 79.1307 134.633 79.1307C137.271 79.2959 139.918 79.2959 142.557 79.1307C143.394 79.305 144.258 79.305 145.095 79.1307C147.846 79.2817 150.603 79.2415 153.349 79.0105H157.236C160.353 79.0105 163.541 79.6013 166.649 78.9504C167.224 78.9055 167.802 78.9055 168.377 78.9504L173.704 79.0806L186.124 79.4711C187.563 79.4711 189.042 79.4711 190.501 79.4211L205.13 79.351C205.674 79.3577 206.216 79.4147 206.749 79.5212C208.182 79.8397 209.671 79.8018 211.086 79.411C212.953 78.9854 214.869 78.8169 216.781 78.9103C218.78 78.9103 220.778 78.9704 222.727 78.9103C224.291 79.0107 225.86 79.0107 227.423 78.9103H228.063C228.398 78.938 228.732 78.9848 229.062 79.0505L230.361 79.2909C230.791 79.371 231.261 79.4711 231.84 79.5512C231.92 79.1581 231.974 78.76 232 78.3596C231.84 78.4196 231.84 78.1393 231.84 77.8088ZM160.813 0.670747C160.911 0.677262 161.008 0.694043 161.103 0.720817H161.043H160.244C160.432 0.692008 160.622 0.675284 160.813 0.670747ZM70.9602 2.05268H71.7596L71.19 2.16284C71.089 2.14872 70.9889 2.12866 70.8902 2.10275L70.9602 2.05268ZM205.32 77.7087C204.61 77.7788 203.611 77.6486 202.742 77.6486C198.455 77.6486 194.048 77.2981 189.901 77.7587C185.85 78.1224 181.773 78.0788 177.731 77.6285C172.459 77.2411 167.167 77.2177 161.892 77.5584C160.892 77.7239 159.868 77.6623 158.895 77.3782C158.345 77.1679 157.166 77.1379 156.896 77.4683C156.496 78.0491 155.687 78.0992 153.998 77.7387C153.187 77.5891 152.364 77.5153 151.54 77.5184C147.813 77.5885 144.096 77.7087 140.548 78.0792L140.888 78.1292H140.488C139.849 78.1292 139.169 78.1292 138.49 78.0692C137.704 77.9711 136.913 77.921 136.122 77.919H135.812C134.155 77.6413 132.461 77.6719 130.816 78.0091C129.233 78.3757 127.59 78.3962 125.999 78.0692C124.923 77.9539 123.838 77.9539 122.762 78.0692C120.413 78.3019 118.049 78.3253 115.697 78.1393C113.96 77.8936 112.197 77.8936 110.461 78.1393H110.321C109.481 78.1393 108.662 78.1393 107.863 78.1393C104.385 78.1393 100.868 78.1393 97.4204 78.1393C94.7817 77.974 92.1351 77.974 89.4964 78.1393C88.6593 77.9649 87.7953 77.9649 86.9583 78.1393C84.2042 77.9882 81.443 78.0284 78.6944 78.2594H74.9572C71.8295 78.2594 68.6419 77.6686 65.5442 78.3195C64.9691 78.3696 64.3907 78.3696 63.8155 78.3195L58.4395 78.0892L45.9788 77.6786C44.5399 77.6786 43.061 77.6786 41.5921 77.6786L26.993 77.7988C26.4493 77.792 25.9074 77.735 25.3742 77.6285C23.9413 77.3101 22.4524 77.3479 21.0374 77.7387C19.1703 78.1639 17.2542 78.3323 15.3417 78.2394C13.3432 78.1893 11.3447 78.1793 9.39613 78.1893C7.83223 78.089 6.26353 78.089 4.69963 78.1893H4.06011C3.72477 78.1605 3.39121 78.1137 3.06086 78.0491C2.95821 78.037 2.85937 78.0028 2.77107 77.949C2.72054 77.9135 2.67657 77.8695 2.64117 77.8188C2.62215 77.7763 2.61231 77.7302 2.61231 77.6836C2.61231 77.637 2.62215 77.591 2.64117 77.5484L2.80105 77.3181C2.79323 77.2415 2.79323 77.1644 2.80105 77.0878C2.791 76.8639 2.7541 76.642 2.69113 76.4269C1.98166 76.3467 2.14154 74.5643 2.18151 72.9921C2.23148 70.819 2.3314 68.646 2.34139 66.4729V46.7152C2.29417 44.4246 2.3943 42.1333 2.64117 39.8556C2.79298 38.4619 2.80971 37.0567 2.69113 35.6598C2.28732 30.3451 2.22724 25.0098 2.51127 19.6874C2.51127 18.3956 2.69113 16.9536 2.29143 16.1624C2.13334 15.9033 2.04474 15.6077 2.03423 15.3041C2.02373 15.0006 2.09167 14.6995 2.23148 14.43C2.69861 12.9524 2.83173 11.3892 2.62119 9.85361C2.53125 8.45165 2.45131 7.03967 2.41134 5.62769C2.37137 4.21571 2.34139 2.44323 2.41134 2.26298L4.48979 2.3531C5.48905 2.3531 6.4883 2.46326 7.48755 2.55338C9.04867 2.62653 10.6132 2.56623 12.1641 2.37313C12.5171 2.33915 12.8676 2.28228 13.2133 2.20289H19.4886C19.7384 2.20289 20.0782 2.20289 20.3779 2.20289L30.1107 2.55338C31.1088 2.62174 32.1103 2.62174 33.1084 2.55338C34.3075 2.41319 35.5166 2.32306 36.7257 2.26298H40.4929C41.1824 2.26298 41.8719 2.26298 42.5514 2.26298C43.7905 2.26298 45.0295 2.34309 46.2886 2.40317C48.1472 2.48329 50.1457 2.40317 52.0743 2.40317C53.0735 2.40317 54.1727 2.40317 55.2219 2.40317C58.6594 2.45324 62.1068 2.33308 65.5143 2.45324C66.1828 2.45105 66.8504 2.40421 67.5128 2.31305C68.3211 2.2882 69.1244 2.4492 69.861 2.78371C70.3769 2.81046 70.8939 2.81046 71.4099 2.78371C72.0753 2.73953 72.7429 2.73953 73.4084 2.78371C74.8473 3.01403 75.4668 2.95394 75.9265 2.52334C76.1706 2.39718 76.434 2.31257 76.7059 2.27299H77.2855C78.8381 2.38976 80.396 2.41985 81.952 2.36312C83.6707 2.28301 85.3894 2.24295 87.0981 2.22292H87.6877C88.3872 2.22292 89.1566 2.22292 89.8961 2.22292C90.8953 2.22292 91.8946 2.22292 92.9538 2.22292C94.5926 2.22292 96.2313 2.283 97.8801 2.34309L99.0792 2.50331C99.6579 2.54862 100.239 2.54862 100.818 2.50331L103.416 2.43322C104.661 2.60135 105.922 2.62823 107.173 2.51333C107.57 2.50256 107.963 2.43856 108.342 2.32306C112.139 2.32306 115.947 2.32306 119.774 2.41319C120.329 2.45611 120.887 2.45611 121.443 2.41319L123.961 2.55338C128.227 2.80871 132.505 2.80871 136.771 2.55338C137.91 2.46326 139.009 2.40317 140.089 2.36312C140.885 2.40633 141.684 2.38624 142.477 2.30303C144.176 2.30303 145.874 2.30303 147.643 2.38315C148.922 2.44323 150.301 2.38315 151.64 2.38315C155.596 2.13861 159.565 2.20557 163.511 2.58343C164.958 2.73146 166.415 2.76828 167.868 2.69358C173.224 2.39316 178.63 2.26298 184.096 2.26298C185.275 2.26298 186.564 2.26298 187.623 2.37313C190.253 2.58508 192.895 2.60181 195.527 2.4232C197.726 2.34309 199.964 2.30303 202.172 2.32306C204.54 2.32306 206.899 2.45324 209.257 2.50331C210.746 2.50331 212.375 2.43322 213.724 2.50331C216.951 2.7426 220.193 2.71581 223.416 2.4232C225.315 2.29302 227.104 2.31305 229.062 2.3531H229.522V2.76368V5.60766H229.372L229.522 6.15843V6.62909C229.522 8.36152 229.592 10.0739 229.692 11.7362C229.894 14.3789 229.84 17.035 229.532 19.6674C229.302 21.3265 229.265 23.0067 229.422 24.6744C229.602 27.0377 229.702 29.5212 229.732 31.9746V32.3251C229.727 32.3984 229.727 32.472 229.732 32.5454V32.8558C229.732 34.7986 229.732 36.7513 229.732 38.704C229.689 39.61 229.572 40.5109 229.382 41.3978C229.386 41.7862 229.413 42.1741 229.462 42.5594C229.582 43.6433 229.635 44.7335 229.622 45.824C229.561 46.5471 229.561 47.274 229.622 47.997C229.627 48.0537 229.627 48.1106 229.622 48.1673C229.469 49.2856 229.396 50.4133 229.402 51.542C229.26 52.1767 229.183 52.8243 229.172 53.4747C229.172 54.5562 229.432 55.818 229.352 56.7593C229.132 59.5833 229.082 62.4172 229.092 65.3113C229.092 67.0137 229.092 68.7161 229.092 70.4084C229.057 71.4384 229.101 72.4694 229.222 73.4928C229.278 73.5635 229.341 73.6273 229.412 73.683C229.415 74.1247 229.442 74.566 229.492 75.0049C229.592 75.6658 229.682 76.2766 229.742 76.8775C229.742 77.0978 229.742 77.3081 229.742 77.5284C229.757 77.6715 229.757 77.8159 229.742 77.959C229.515 77.9381 229.294 77.8735 229.092 77.7687H229.042H228.892H228.563C228.323 77.7687 228.063 77.7687 227.783 77.7687H226.114C224.626 77.7687 223.117 77.7687 221.638 77.7087C216.206 77.3072 210.752 77.3072 205.32 77.7087Z" fill="#8FB23E"/>
</svg>
