<svg width="88" height="16" viewBox="0 0 88 16" fill="none" xmlns="http://www.w3.org/2000/svg">
<g clip-path="url(#clip0)">
<path d="M88 5.26009C87.9799 5.31318 87.9384 5.3616 87.88 5.40009L87.67 5.53342C87.67 5.58009 87.67 5.63342 87.67 5.68676C87.67 6.75342 87.51 8.26009 87.61 8.94676C87.6143 8.95993 87.6143 8.97358 87.61 8.98676C86.61 9.72676 87.21 11.6534 87.49 12.6201C87.4844 12.6466 87.4844 12.6736 87.49 12.7001C87.4852 12.7556 87.4852 12.8112 87.49 12.8668C87.4874 13.1798 87.4235 13.4914 87.3 13.7934C87.1924 13.9874 87.1414 14.1933 87.15 14.4001C87.1251 14.5441 87.1251 14.6895 87.15 14.8334C87.126 14.9326 87.072 15.0275 86.9911 15.1123C86.9103 15.1971 86.8045 15.2701 86.68 15.3268C86.2925 15.4073 85.8775 15.4073 85.49 15.3268C85.462 15.3678 85.4205 15.4041 85.3685 15.4329C85.3166 15.4618 85.2556 15.4825 85.19 15.4934C84.8625 15.552 84.5175 15.552 84.19 15.4934C84.1165 15.5093 84.0507 15.5382 83.9997 15.5769C83.9486 15.6156 83.9142 15.6628 83.9 15.7134C83.8742 15.7331 83.8539 15.7557 83.84 15.7801C83.23 15.7801 82.59 15.7801 81.97 15.7801L81.5 15.7468C81.1704 15.7 80.8362 15.6688 80.5 15.6534H80.28L79.85 15.7534L79.57 15.8401C79.5204 15.8461 79.4696 15.8461 79.42 15.8401C79.6 15.9401 79.08 15.8868 78.42 15.8068H78.21C78.1217 15.8325 78.0264 15.8457 77.93 15.8457C77.8336 15.8457 77.7383 15.8325 77.65 15.8068C77.2633 15.7356 76.8733 15.6756 76.48 15.6268H76L74.76 15.5734C74.4 15.6534 73.9 15.6934 73.68 15.5268H73.5C73.0064 15.4851 72.5183 15.4183 72.04 15.3268C71.48 15.4401 70.92 15.5468 70.35 15.6268C70.2531 15.6502 70.1469 15.6502 70.05 15.6268C69.77 15.6268 69.34 15.6268 68.85 15.5934H68.73C68.17 15.5934 67.55 15.5534 67.01 15.5468C66.727 15.4931 66.4342 15.4662 66.14 15.4668H65.91C65.55 15.4668 65.19 15.5068 64.84 15.5334H64.75H64.62C64.5224 15.5536 64.431 15.5852 64.35 15.6268C64.3117 15.569 64.2445 15.5219 64.16 15.4934L62.94 15.5468C61.86 15.7601 56.6 15.3868 55.03 15.4268C55.0309 15.4594 55.0482 15.4908 55.079 15.5162C55.1098 15.5416 55.1523 15.5593 55.2 15.5668C54.9884 15.5942 54.7748 15.6142 54.56 15.6268L54.36 15.5801H54.42C53.5795 15.4702 52.7134 15.4816 51.88 15.6134C46.88 15.5734 43.21 15.4601 39.12 15.4134C39.48 15.6468 35.18 15.2868 33.56 15.5134C33.92 15.4268 26.2 15.2934 25.47 15.3468C21.67 14.8268 16.87 15.4001 13.08 15.6468H12.87C12.1986 15.6499 11.5285 15.6074 10.87 15.5201C10.563 15.5665 10.2526 15.6021 9.94 15.6268C9.83 15.6268 9.73 15.6268 9.62 15.6268C9.55644 15.6312 9.49221 15.6263 9.43177 15.6125C9.37133 15.5987 9.31613 15.5762 9.27 15.5468C8.44619 15.5469 7.62591 15.4751 6.83 15.3334C4.83 15.3801 2.83 15.2801 0.759998 15.2468C1.19 13.5401 0.279998 10.8334 0.589998 8.72009C0.589998 8.84009 0.659998 8.96009 0.689998 9.08009C0.859998 8.41342 0.179998 7.68009 0.119998 6.98676C0.0507973 7.0961 0.0266321 7.21577 0.0499984 7.33342C-0.190002 5.79342 0.569998 4.20009 0.159998 2.48676C0.159998 2.55342 0.289999 0.486757 1.34 0.0134242H1.45C1.88 0.0134242 2.34 0.220091 2.75 0.160091C3.67 0.220091 4.82 0.380091 5.37 0.393424C7 0.420091 8.24 0.253424 9.6 0.233424C11.7 0.233424 14.11 0.320091 15.53 0.300091C16.53 0.300091 19.36 0.140091 20.04 0.0600908C20.1266 0.0466557 20.2105 0.0265189 20.29 9.08393e-05C20.7462 -0.019887 21.2038 -0.0198871 21.66 9.08375e-05H21.73L21.9 0.0667575H21.59C28 0.353424 36 0.400091 40.31 0.346757C40.59 0.253424 42.31 0.493424 42.19 0.400091C41.9547 0.362212 41.729 0.301569 41.52 0.220091C42.8425 0.360178 44.1813 0.420422 45.52 0.400091C45.6667 0.347226 45.8345 0.326248 46 0.340091L47 0.393424C47.1052 0.421326 47.2168 0.437106 47.33 0.440091H47.54H47.83H47.93H49.82H50.66H50.72C50.83 0.440091 50.94 0.440091 51.05 0.440091C52.39 0.580091 52.89 0.180091 54.05 0.100091C53.97 0.133424 53.95 0.186758 54.05 0.266757C54.6762 0.0747818 55.3825 0.0324066 56.05 0.146757C56.05 0.200091 56.34 0.280091 56.79 0.360091C57.454 0.311518 58.1228 0.298142 58.79 0.320091C59.1878 0.264805 59.5938 0.240199 60 0.246757C60.58 0.193424 61.18 0.166757 61.79 0.140091C62.2665 0.0928877 62.7492 0.0794795 63.23 0.100091C63.99 0.100091 64.75 0.100091 65.49 0.100091L65.31 0.0534242L65.5 9.08375e-05C67.12 0.0600908 68.81 0.0734242 70.5 0.0800908C71.81 0.0800908 73.12 0.0800908 74.42 0.0800908C75.26 0.0800908 77.08 0.480091 78.89 0.240091H79.05C79.0999 0.243223 79.1501 0.243223 79.2 0.240091L79.74 0.153424C79.98 0.153424 80.23 0.100091 80.47 0.0600908H80.66C80.7704 0.081399 80.8866 0.0859549 81 0.0734242H81.31C81.62 0.0734242 81.78 0.106757 81.66 0.113424C81.54 0.120091 85.82 0.286757 85.73 0.266757C86.09 0.360091 87.14 0.120091 87.44 0.266757C87.54 0.320091 87.55 0.553424 87.53 0.840091V0.900091C87.53 0.900091 87.53 0.900091 87.53 0.946757C87.53 0.993424 87.53 0.980091 87.59 1.00009C87.65 1.02009 87.59 1.00009 87.59 1.03342C87.59 1.06676 87.59 1.03342 87.59 1.03342C87.59 1.25342 87.53 1.31342 87.49 1.31342C87.45 1.31342 87.39 1.42009 87.33 1.47342L87.27 1.77342C87.3156 1.81629 87.34 1.86755 87.34 1.92009C87.34 1.92009 87.34 1.98676 87.34 2.02009C87.4847 2.50266 87.5251 2.99656 87.46 3.48676C87.4945 3.51807 87.5194 3.55364 87.5331 3.59141C87.5469 3.62917 87.5492 3.66838 87.54 3.70676C87.7393 4.17294 87.893 4.64728 88 5.12676C88 5.12676 88 5.16676 88 5.18676V5.26009Z" fill="#C2E07B"/>
</g>
<defs>
<clipPath id="clip0">
<rect width="88" height="16" fill="white"/>
</clipPath>
</defs>
</svg>
