<svg width="14" height="8" viewBox="0 0 14 8" fill="none" xmlns="http://www.w3.org/2000/svg">
<path d="M13.07 0.689997C12.8422 0.503738 12.554 0.407651 12.26 0.419997C11.9 0.479997 11.76 0.819997 11.56 1.07C11.2345 1.47065 10.8579 1.82701 10.44 2.13C10.115 2.32707 9.80729 2.5512 9.52 2.8C9.22578 3.18792 8.95849 3.59554 8.72 4.02C8.43 4.44 8.01 4.77 7.72 5.18C7.59 5.34 7.14 5.93 7.17 5.3C7.17 5.51 5.97 4.55 5.88 4.45C5.61 4.18 5.49 3.87 5.25 3.6C4.93551 3.33184 4.60123 3.08781 4.25 2.87C3.73283 2.38558 3.25156 1.86421 2.81 1.31C2.57507 1.07449 2.30099 0.88162 2 0.739997C1.55 0.459997 1.69 0.299997 1.29 0.479997C1.13 0.549997 0.569998 1.11 0.559998 1.29C0.559998 1.67 1.29 1.97 1.56 2.11C2.09301 2.51501 2.55585 3.00488 2.93 3.56C3.19035 3.84473 3.51169 4.06693 3.87 4.21C4.22339 4.4911 4.52755 4.82905 4.77 5.21C5.40187 5.91058 6.06942 6.57813 6.77 7.21C7.04 7.47 7.04 7.63 7.46 7.52C7.88 7.41 8.25 6.88 8.46 6.52C8.48555 6.44829 8.50561 6.37475 8.52 6.3C8.52 6.3 8.71 6.11 8.74 6.06C9.06646 5.57939 9.44546 5.13665 9.87 4.74C10.65 4 11.34 3.26 12.12 2.52C12.4 2.26 12.71 1.95 13.01 1.69C13.31 1.43 13.86 1.13 13.07 0.689997Z" fill="#8FB23E"/>
</svg>
