<svg width="14" height="8" viewBox="0 0 14 8" fill="none" xmlns="http://www.w3.org/2000/svg">
<path d="M13.0701 0.689997C12.8423 0.503738 12.554 0.407651 12.2601 0.419997C11.9001 0.479997 11.7601 0.819997 11.5601 1.07C11.2345 1.47065 10.858 1.82701 10.4401 2.13C10.1151 2.32707 9.80735 2.5512 9.52006 2.8C9.22585 3.18792 8.95855 3.59554 8.72006 4.02C8.43006 4.44 8.01006 4.77 7.72006 5.18C7.59006 5.34 7.14006 5.93 7.17006 5.3C7.17006 5.51 5.97006 4.55 5.88006 4.45C5.61006 4.18 5.49006 3.87 5.25006 3.6C4.93557 3.33184 4.60129 3.08781 4.25006 2.87C3.73289 2.38558 3.25162 1.86421 2.81006 1.31C2.57513 1.07449 2.30105 0.88162 2.00006 0.739997C1.55006 0.459997 1.69006 0.299997 1.29006 0.479997C1.13006 0.549997 0.570059 1.11 0.560059 1.29C0.560059 1.67 1.29006 1.97 1.56006 2.11C2.09308 2.51501 2.55591 3.00488 2.93006 3.56C3.19041 3.84473 3.51175 4.06693 3.87006 4.21C4.22346 4.4911 4.52761 4.82905 4.77006 5.21C5.40193 5.91058 6.06948 6.57813 6.77006 7.21C7.04006 7.47 7.04006 7.63 7.46006 7.52C7.88006 7.41 8.25006 6.88 8.46006 6.52C8.48561 6.44829 8.50567 6.37475 8.52006 6.3C8.52006 6.3 8.71006 6.11 8.74006 6.06C9.06652 5.57939 9.44553 5.13665 9.87006 4.74C10.6501 4 11.3401 3.26 12.1201 2.52C12.4001 2.26 12.7101 1.95 13.0101 1.69C13.3101 1.43 13.8601 1.13 13.0701 0.689997Z" fill="white"/>
</svg>
