<svg width="24" height="24" viewBox="0 0 24 24" fill="none" xmlns="http://www.w3.org/2000/svg">
<path d="M23.0002 11.6299C22.989 11.5035 22.989 11.3764 23.0002 11.2499C22.9966 11.2234 22.9966 11.1965 23.0002 11.1699H22.8002C22.8002 11.1699 22.7302 11.1699 22.7002 11.1699H22.6502L22.3802 10.9999C22.2279 10.9681 22.0802 10.9177 21.9402 10.8499C21.824 10.8233 21.7036 10.8211 21.5865 10.8435C21.4694 10.8659 21.3583 10.9123 21.2602 10.9799C21.0702 11.0899 20.9302 11.4299 20.7402 11.4599C20.5502 11.4899 20.3802 11.2299 20.2002 11.1099C20.157 11.1052 20.1134 11.1052 20.0702 11.1099L18.6502 10.8399C18.5002 10.8399 18.3302 10.7699 18.2102 10.8399C17.9198 11.0016 17.5979 11.0987 17.2665 11.1246C16.9352 11.1505 16.6021 11.1045 16.2902 10.9899C16.0115 10.9506 15.7288 10.9506 15.4502 10.9899C14.9202 10.9899 14.3702 10.8499 13.8802 11.2399C13.8802 11.2399 13.7902 11.2399 13.7502 11.2399C13.5502 11.0599 13.2502 11.1699 13.0302 10.9999C12.8635 11.0087 12.6986 10.9631 12.5602 10.8699C12.4697 10.9052 12.3826 10.9487 12.3002 10.9999C12.2537 11.0237 12.2023 11.036 12.1502 11.036C12.098 11.036 12.0466 11.0237 12.0002 10.9999C11.9502 11.1199 11.8002 11.2699 11.7702 11.2499C11.4902 11.0599 11.2702 11.2999 11.0302 11.3499C10.7902 11.3999 10.5402 11.1699 10.2802 11.0899C10.1744 11.0699 10.0659 11.0699 9.96016 11.0899C9.51016 11.0899 9.05016 11.2899 8.63016 10.9099C8.57016 10.8599 8.46016 10.9099 8.37016 10.9099C7.45389 11.1136 6.50764 11.1441 5.58016 10.9999C5.38016 10.9999 5.25016 10.9999 5.16016 11.2699V11.5699C5.16514 11.6365 5.16514 11.7034 5.16016 11.7699V11.8999C5.16016 11.8999 5.16016 11.8999 5.16016 11.9599C5.24352 12.1112 5.37251 12.2323 5.52874 12.3059C5.68496 12.3795 5.86044 12.4019 6.03016 12.3699C6.44343 12.37 6.85331 12.4445 7.24016 12.5899C7.8445 12.787 8.49581 12.787 9.10016 12.5899C9.60311 12.3797 10.1597 12.3342 10.6902 12.4599C10.8775 12.505 11.0728 12.505 11.2602 12.4599C11.543 12.3627 11.8431 12.3258 12.1411 12.3516C12.439 12.3774 12.7283 12.4654 12.9902 12.6099C13.1847 12.7197 13.4146 12.7484 13.6302 12.6899C14.3967 12.4663 15.1917 12.3552 15.9902 12.3599C16.1651 12.3446 16.341 12.3757 16.5002 12.4499C16.8699 12.5944 17.2804 12.5944 17.6502 12.4499C17.9795 12.3864 18.3149 12.3596 18.6502 12.3699C19.0002 12.3699 19.3402 12.4699 19.6502 12.5099C19.9602 12.5499 20.1102 12.4499 20.3002 12.5099C20.5262 12.5996 20.7686 12.6406 21.0116 12.6303C21.2545 12.6199 21.4925 12.5585 21.7102 12.4499C21.8413 12.4003 21.9799 12.3732 22.1202 12.3699H22.3302H22.5602H22.6402L22.7302 12.2899C22.7556 12.1894 22.7926 12.0921 22.8402 11.9999V11.9199C22.8402 11.8299 22.8402 11.7499 22.8402 11.6599L23.0002 11.6299ZM9.42016 12.1099C9.34016 12.1099 9.25016 11.9199 9.12016 11.7599C9.25016 11.6499 9.34016 11.5099 9.41016 11.5299C9.48016 11.5499 9.58016 11.6999 9.67016 11.7999C9.53016 11.9099 9.45016 12.1099 9.37016 12.1099H9.42016ZM12.6902 11.3699L12.6202 11.2799L12.7102 11.1999C12.7102 11.1999 12.7602 11.1999 12.7102 11.1999L12.6902 11.3699Z" fill="white"/>
<path d="M6.9998 16.85C6.99366 16.8394 6.99043 16.8273 6.99043 16.815C6.99043 16.8027 6.99366 16.7906 6.9998 16.78V16.73L6.9098 16.56C6.85205 16.4434 6.80194 16.3231 6.7598 16.2C6.7598 16.03 6.4998 15.93 6.3298 15.87H6.1198L6.0598 15.75C5.85555 15.3143 5.54207 14.9388 5.14981 14.66L4.8898 14.21C4.8198 14.1 4.7598 13.97 4.6498 13.94C4.3996 13.8525 4.17152 13.7114 3.98152 13.5266C3.79152 13.3418 3.64418 13.1177 3.5498 12.87C3.42412 12.6859 3.27257 12.5209 3.0998 12.38C3.03122 12.3114 2.96772 12.2378 2.9098 12.16L2.8598 12.1C2.8598 12 2.9398 12.02 2.8598 12.02C2.8204 12.0297 2.77921 12.0297 2.7398 12.02C2.7398 12.02 2.7398 11.97 2.7398 11.92C2.7398 11.87 2.8198 11.86 2.9298 11.92C3.01264 11.8163 3.12958 11.7455 3.2598 11.72L3.3198 11.48C3.32812 11.4335 3.34808 11.3899 3.3778 11.3531C3.40752 11.3164 3.44605 11.2878 3.4898 11.27C3.46151 11.1822 3.46151 11.0878 3.4898 11C3.53686 10.9575 3.59102 10.9237 3.6498 10.9C3.9798 10.8 4.1298 10.5 4.2998 10.21H4.3698C4.4498 10.21 4.4898 10.09 4.5498 10.02C4.7798 9.74 4.9198 9.35 5.3498 9.32C5.4098 9.32 5.4498 9.23 5.4798 9.17L5.85981 8.6C6.02622 8.51825 6.17415 8.40334 6.29453 8.26233C6.41491 8.12131 6.50518 7.95718 6.5598 7.78C6.67279 7.66569 6.79304 7.5588 6.9198 7.46C6.95371 7.43985 6.98297 7.41277 7.00568 7.38053C7.0284 7.34829 7.04404 7.31162 7.05159 7.27291C7.05915 7.2342 7.05844 7.19434 7.04951 7.15592C7.04059 7.11751 7.02365 7.08141 6.9998 7.05V7C6.98952 6.96405 6.98952 6.92595 6.9998 6.89C6.95664 6.80968 6.91986 6.72609 6.8898 6.64V6.57L6.7598 6.39L6.6698 6.29L6.4598 6H6.3898C6.3898 6 6.3898 6.06 6.3298 6.06L5.9998 6.25C5.89408 6.31461 5.78379 6.37143 5.6698 6.42C5.5098 6.49 5.4198 6.73 5.3698 6.94C5.3547 7.02937 5.3547 7.12063 5.3698 7.21L5.0598 7.41C4.75611 7.60199 4.49147 7.84968 4.2798 8.14L3.8298 8.49C3.7151 8.54971 3.62619 8.64929 3.5798 8.77C3.51447 9.04506 3.39156 9.30314 3.21919 9.52722C3.04682 9.7513 2.8289 9.9363 2.5798 10.07C2.4064 10.2291 2.25506 10.4107 2.1298 10.61L1.9298 10.83L1.7098 11.07C1.54775 11.2131 1.4064 11.378 1.2898 11.56L1.0498 12L1.4998 12.41C1.5998 12.64 1.8798 12.89 1.9398 13.16C2.04329 13.2623 2.11009 13.3959 2.1298 13.54L2.3498 13.62C2.39714 13.6308 2.4407 13.6541 2.4759 13.6875C2.5111 13.721 2.53663 13.7633 2.5498 13.81C2.6398 13.81 2.8098 13.81 2.8198 13.81C2.82414 13.8514 2.83704 13.8915 2.8577 13.9276C2.87836 13.9638 2.90632 13.9952 2.9398 14.02C3.05213 14.2744 3.24086 14.4876 3.4798 14.63C3.49529 14.7024 3.51877 14.7728 3.5498 14.84C3.59875 14.9188 3.65946 14.9896 3.7298 15.05C3.9898 15.33 4.3498 15.5 4.3698 16.05C4.3698 16.12 4.4598 16.16 4.5198 16.2L4.9598 16.58C5.0741 16.7714 5.23603 16.9298 5.4298 17.04C5.68484 17.3017 5.90653 17.5939 6.0898 17.91C6.1798 18.06 6.29981 18.09 6.4798 18L6.6398 17.81L6.7498 17.68L6.8098 17.58C6.82455 17.4638 6.82455 17.3462 6.8098 17.23C6.82974 17.1944 6.85319 17.1609 6.8798 17.13V17.06L6.9998 16.85ZM2.3698 13.25H2.2698V13.2L2.3298 13.26L2.3698 13.25Z" fill="white"/>
</svg>
