<svg width="24" height="24" viewBox="0 0 24 24" fill="none" xmlns="http://www.w3.org/2000/svg">
<path d="M23 11.6299C22.9889 11.5035 22.9889 11.3764 23 11.2499C22.9965 11.2234 22.9965 11.1965 23 11.1699H22.8C22.8 11.1699 22.73 11.1699 22.7 11.1699H22.65L22.38 10.9999C22.2278 10.9681 22.08 10.9177 21.94 10.8499C21.8239 10.8233 21.7034 10.8211 21.5864 10.8435C21.4693 10.8659 21.3582 10.9123 21.26 10.9799C21.07 11.0899 20.93 11.4299 20.74 11.4599C20.55 11.4899 20.38 11.2299 20.2 11.1099C20.1568 11.1052 20.1132 11.1052 20.07 11.1099L18.65 10.8399C18.5 10.8399 18.33 10.7699 18.21 10.8399C17.9196 11.0016 17.5978 11.0987 17.2664 11.1246C16.9351 11.1505 16.602 11.1045 16.29 10.9899C16.0114 10.9506 15.7286 10.9506 15.45 10.9899C14.92 10.9899 14.37 10.8499 13.88 11.2399C13.88 11.2399 13.79 11.2399 13.75 11.2399C13.55 11.0599 13.25 11.1699 13.03 10.9999C12.8634 11.0087 12.6985 10.9631 12.56 10.8699C12.4696 10.9052 12.3825 10.9487 12.3 10.9999C12.2536 11.0237 12.2022 11.036 12.15 11.036C12.0979 11.036 12.0465 11.0237 12 10.9999C11.95 11.1199 11.8 11.2699 11.77 11.2499C11.49 11.0599 11.27 11.2999 11.03 11.3499C10.79 11.3999 10.54 11.1699 10.28 11.0899C10.1743 11.0699 10.0658 11.0699 9.96003 11.0899C9.51003 11.0899 9.05003 11.2899 8.63003 10.9099C8.57003 10.8599 8.46003 10.9099 8.37003 10.9099C7.45377 11.1136 6.50752 11.1441 5.58003 10.9999C5.38003 10.9999 5.25003 10.9999 5.16003 11.2699V11.5699C5.16502 11.6365 5.16502 11.7034 5.16003 11.7699V11.8999C5.16003 11.8999 5.16003 11.8999 5.16003 11.9599C5.2434 12.1112 5.37239 12.2323 5.52861 12.3059C5.68484 12.3795 5.86032 12.4019 6.03003 12.3699C6.44331 12.37 6.85319 12.4445 7.24003 12.5899C7.84438 12.787 8.49569 12.787 9.10003 12.5899C9.60299 12.3797 10.1596 12.3342 10.69 12.4599C10.8774 12.505 11.0727 12.505 11.26 12.4599C11.5429 12.3627 11.843 12.3258 12.1409 12.3516C12.4389 12.3774 12.7282 12.4654 12.99 12.6099C13.1846 12.7197 13.4145 12.7484 13.63 12.6899C14.3966 12.4663 15.1915 12.3552 15.99 12.3599C16.165 12.3446 16.3409 12.3757 16.5 12.4499C16.8698 12.5944 17.2803 12.5944 17.65 12.4499C17.9794 12.3864 18.3148 12.3596 18.65 12.3699C19 12.3699 19.34 12.4699 19.65 12.5099C19.96 12.5499 20.11 12.4499 20.3 12.5099C20.5261 12.5996 20.7685 12.6406 21.0114 12.6303C21.2544 12.6199 21.4924 12.5585 21.71 12.4499C21.8412 12.4003 21.9798 12.3732 22.12 12.3699H22.33H22.56H22.64L22.73 12.2899C22.7555 12.1894 22.7924 12.0921 22.84 11.9999V11.9199C22.84 11.8299 22.84 11.7499 22.84 11.6599L23 11.6299ZM9.42003 12.1099C9.34003 12.1099 9.25003 11.9199 9.12003 11.7599C9.25003 11.6499 9.34003 11.5099 9.41003 11.5299C9.48003 11.5499 9.58003 11.6999 9.67003 11.7999C9.53003 11.9099 9.45003 12.1099 9.37003 12.1099H9.42003ZM12.69 11.3699L12.62 11.2799L12.71 11.1999C12.71 11.1999 12.76 11.1999 12.71 11.1999L12.69 11.3699Z" fill="#759A21"/>
<path d="M7.00005 16.85C6.99391 16.8394 6.99067 16.8273 6.99067 16.815C6.99067 16.8027 6.99391 16.7906 7.00005 16.78V16.73L6.91005 16.56C6.85229 16.4434 6.80219 16.3231 6.76005 16.2C6.76005 16.03 6.50005 15.93 6.33005 15.87H6.12005L6.06005 15.75C5.8558 15.3143 5.54231 14.9388 5.15005 14.66L4.89005 14.21C4.82005 14.1 4.76005 13.97 4.65005 13.94C4.39984 13.8525 4.17176 13.7114 3.98176 13.5266C3.79176 13.3418 3.64442 13.1177 3.55005 12.87C3.42437 12.6859 3.27281 12.5209 3.10005 12.38C3.03146 12.3114 2.96796 12.2378 2.91005 12.16L2.86005 12.1C2.86005 12 2.94005 12.02 2.86005 12.02C2.82064 12.0297 2.77946 12.0297 2.74005 12.02C2.74005 12.02 2.74005 11.97 2.74005 11.92C2.74005 11.87 2.82005 11.86 2.93005 11.92C3.01288 11.8163 3.12983 11.7455 3.26005 11.72L3.32005 11.48C3.32837 11.4335 3.34832 11.3899 3.37804 11.3531C3.40777 11.3164 3.4463 11.2878 3.49005 11.27C3.46175 11.1822 3.46175 11.0878 3.49005 11C3.5371 10.9575 3.59126 10.9237 3.65005 10.9C3.98005 10.8 4.13005 10.5 4.30005 10.21H4.37005C4.45005 10.21 4.49005 10.09 4.55005 10.02C4.78005 9.74 4.92005 9.35 5.35005 9.32C5.41005 9.32 5.45005 9.23 5.48005 9.17L5.86005 8.6C6.02646 8.51825 6.1744 8.40334 6.29478 8.26233C6.41515 8.12131 6.50543 7.95718 6.56005 7.78C6.67303 7.66569 6.79328 7.5588 6.92005 7.46C6.95395 7.43985 6.98322 7.41277 7.00593 7.38053C7.02864 7.34829 7.04428 7.31162 7.05184 7.27291C7.05939 7.2342 7.05868 7.19434 7.04976 7.15592C7.04083 7.11751 7.02389 7.08141 7.00005 7.05V7C6.98977 6.96405 6.98977 6.92595 7.00005 6.89C6.95689 6.80968 6.92011 6.72609 6.89005 6.64V6.57L6.76005 6.39L6.67005 6.29L6.46005 6H6.39005C6.39005 6 6.39005 6.06 6.33005 6.06L6.00005 6.25C5.89432 6.31461 5.78403 6.37143 5.67005 6.42C5.51005 6.49 5.42005 6.73 5.37005 6.94C5.35494 7.02937 5.35494 7.12063 5.37005 7.21L5.06005 7.41C4.75636 7.60199 4.49171 7.84968 4.28005 8.14L3.83005 8.49C3.71535 8.54971 3.62643 8.64929 3.58005 8.77C3.51471 9.04506 3.39181 9.30314 3.21944 9.52722C3.04707 9.7513 2.82914 9.9363 2.58005 10.07C2.40665 10.2291 2.25531 10.4107 2.13005 10.61L1.93005 10.83L1.71005 11.07C1.548 11.2131 1.40664 11.378 1.29005 11.56L1.05005 12L1.50005 12.41C1.60005 12.64 1.88005 12.89 1.94005 13.16C2.04353 13.2623 2.11033 13.3959 2.13005 13.54L2.35005 13.62C2.39739 13.6308 2.44095 13.6541 2.47615 13.6875C2.51134 13.721 2.53687 13.7633 2.55005 13.81C2.64005 13.81 2.81005 13.81 2.82005 13.81C2.82438 13.8514 2.83729 13.8915 2.85795 13.9276C2.87861 13.9638 2.90657 13.9952 2.94005 14.02C3.05238 14.2744 3.2411 14.4876 3.48005 14.63C3.49554 14.7024 3.51902 14.7728 3.55005 14.84C3.599 14.9188 3.6597 14.9896 3.73005 15.05C3.99005 15.33 4.35005 15.5 4.37005 16.05C4.37005 16.12 4.46005 16.16 4.52005 16.2L4.96005 16.58C5.07434 16.7714 5.23627 16.9298 5.43005 17.04C5.68509 17.3017 5.90677 17.5939 6.09005 17.91C6.18005 18.06 6.30005 18.09 6.48005 18L6.64005 17.81L6.75005 17.68L6.81005 17.58C6.8248 17.4638 6.8248 17.3462 6.81005 17.23C6.82998 17.1944 6.85343 17.1609 6.88005 17.13V17.06L7.00005 16.85ZM2.37005 13.25H2.27005V13.2L2.33005 13.26L2.37005 13.25Z" fill="#759A21"/>
</svg>
