<svg width="160" height="40" viewBox="0 0 160 40" fill="none" xmlns="http://www.w3.org/2000/svg">
<g clip-path="url(#clip0)">
<path d="M159.45 22.3301C159.45 23.4301 159.45 19.7901 159.45 20.0401C159.5 19.5401 160.2 16.8801 159.99 16.5001L159.58 17.2901C159.434 16.8871 159.376 16.4574 159.41 16.0301C159.66 12.4101 159.71 6.8701 158.81 3.3901C159.2 1.9201 158.91 1.3901 157.93 1.7101L155.93 1.6601C155.55 1.6601 153.09 0.750104 153.52 0.660104C152.52 0.450104 151.63 1.0001 150.61 0.860104C149.88 0.760104 148.26 -0.139896 148.03 -0.00989566C146.81 0.220104 145.51 1.0401 144.31 1.0701C144.78 -0.659896 136.68 0.890104 135.61 0.770104C133.73 0.620165 131.84 0.620165 129.96 0.770104C128.481 0.90275 126.995 0.949495 125.51 0.910104C120.018 0.416568 114.492 0.419915 109 0.920104C105.54 1.3201 100.78 -0.329896 97.21 0.820104C98.08 1.0501 92.33 0.820104 94.79 0.700104C91.4032 0.381587 88.0013 0.251387 84.6 0.310104C81.43 0.520104 78.21 1.5701 75.51 1.5801C71.91 1.5801 68.32 1.3201 64.71 1.3501C64.24 1.3501 59.99 1.2801 59.23 0.670104C59.44 0.990104 59.23 0.980104 58.92 0.980104C58.92 0.980104 59 1.1901 59.06 1.3601C55.8613 1.77993 52.6356 1.96043 49.41 1.9001C48.5536 2.00252 47.6924 2.05926 46.83 2.0701C46.83 2.0701 45.27 1.6601 45.5 1.4301C40.8 2.4301 35.92 2.0001 30.82 1.7501C29.02 1.6601 26.49 1.7501 25.34 1.7501C24.84 1.7501 22.62 1.2401 23.16 1.1001C22.08 1.1901 21 0.810104 20 0.830104C19.46 0.830104 17.64 1.3201 18.25 0.980104C18.25 0.980104 17.31 0.980104 17.14 0.910104C15.55 1.6001 12.45 3.3001 11.83 1.9101C11.83 1.8401 12.67 1.7001 12.74 1.7001C8.94001 1.5501 5.14001 1.8301 1.35001 1.9101C2.23001 1.9101 1.42001 2.9701 1.16001 4.5401C0.81646 7.01093 0.705974 9.50859 0.830007 12.0001C0.880007 13.0001 0.830007 16.1201 0.990007 17.8401C0.770007 18.7701 0.190007 21.8401 0.160007 22.3301C0.0898499 22.0232 0.0364376 21.7128 7.35978e-06 21.4001C-0.014 22.4755 0.0360888 23.5507 0.150007 24.6201C0.150007 26.9201 0.610007 30.8801 0.210007 33.2501C0.530007 32.0901 0.480007 37.6601 0.440007 38.6101C8.29001 39.3501 15.18 38.5101 22.32 38.6901C25.65 38.7801 27.46 37.9801 31.06 38.4101C31.68 38.4901 37.16 38.4101 37.27 38.9701C37.1554 38.9443 37.0367 38.9425 36.9214 38.9649C36.8061 38.9873 36.6966 39.0333 36.6 39.1001C37.7434 39.1551 38.8892 39.1351 40.03 39.0401C37.03 38.7101 41.6 38.8501 41.95 38.8401C43.19 38.8401 44.43 38.8401 45.68 38.8401C46.93 38.8401 48.17 38.8401 49.41 38.7701C49.47 38.7701 52.33 38.3401 52.2 38.3201C54.05 38.1801 55.91 38.4001 57.77 38.4001C58.37 38.4001 61.44 38.7201 60.9 38.8301C64.83 38.4001 68.77 38.8301 72.7 38.8301C71.3 37.5201 75.7 38.8301 73.32 38.7101C74.11 39.0801 76.16 37.3301 76.78 38.5001C76.78 38.5001 75.46 38.9401 75.4 38.9901C75.8219 38.9002 76.2581 38.9002 76.68 38.9901C76.19 38.8501 79.01 38.7001 79.46 38.6901C77.75 38.8601 83.61 39.0401 82.74 38.6201C83.27 38.4901 85.07 38.6201 83.57 37.9001C84.89 37.5901 86.22 38.3501 87.57 38.3801C86.89 38.8701 90.57 38.6901 91.28 38.7001C88.58 40.0701 92.28 39.2001 93.1 39.2101C92.92 39.0301 93.82 38.8401 92.75 38.6101C93.75 38.4701 97.34 40.0601 98.08 39.3701C98.17 39.5301 101.56 39.8101 101.74 39.3701C101.494 39.2543 101.257 39.1206 101.03 38.9701C101.18 38.4701 107.45 38.3201 107.79 38.3601C107.439 38.6271 107.037 38.8209 106.61 38.9301C109.345 38.6689 112.096 38.6054 114.84 38.7401C114.15 39.1101 113.04 38.4801 112.46 39.2901C113.364 39.4344 114.286 39.4344 115.19 39.2901C115.36 39.2901 117.42 39.0301 117.93 39.0001C117.99 39.0001 118.02 39.0001 117.99 39.0001H118.04L119.72 38.7701C119.583 39.0728 119.337 39.3123 119.03 39.4401C121.03 40.8701 125.53 39.4401 127.74 39.3401C128.74 39.3401 136.58 40.5501 136.97 39.6801C136.79 39.5001 136.6 39.3201 136.41 39.1601C136.41 39.4201 143.91 39.0101 144.2 39.0801C143.602 39.1384 143.001 39.1617 142.4 39.1501C143.378 39.4251 144.385 39.5862 145.4 39.6301C146.15 39.6301 146.89 39.3401 147.64 39.2701C147.92 39.2701 150.25 39.2101 148.64 39.2701C150.19 39.7101 152.3 38.8801 153.94 38.8901C154.74 38.8901 155.79 39.0001 156.38 39.0001C157.9 39.0001 158.77 39.4001 159.15 37.5701C159.15 37.3801 159 35.1301 158.88 34.1301C158.88 34.2401 158.88 34.3601 158.94 34.4701C158.94 34.1301 158.94 32.0601 158.89 31.9601C159.33 32.4701 159.16 34.1901 159.15 34.8701C159.83 32.8201 159.15 30.6201 159.08 28.5101C159.01 26.4001 159.45 24.3801 159.45 22.3301ZM14.23 2.8901L14.07 3.0001C13.7991 3.11889 13.513 3.19965 13.22 3.2401C13.69 3.0301 13.33 2.8601 12.14 2.7401C12.67 2.6301 15.35 2.4801 14.23 2.8901ZM68.38 3.0001C67.45 2.6301 66.38 2.9401 65.38 2.8801C67.09 1.9701 68.9 2.1201 70.69 1.8801C69.9417 2.29658 69.1705 2.67051 68.38 3.0001ZM80.72 3.1901H78.79C78.79 3.0701 78.6 1.6901 79.4 1.9401C79.66 2.0001 81.34 2.0001 80.72 3.1801V3.1901ZM111.92 2.3601C111.251 2.08586 110.562 1.8619 109.86 1.6901C110.28 1.5701 112.8 1.7001 111.92 2.3501V2.3601Z" fill="#D87979"/>
</g>
<defs>
<clipPath id="clip0">
<path d="M0 0H160V40H0V0Z" fill="white"/>
</clipPath>
</defs>
</svg>
