<svg width="64" height="24" viewBox="0 0 64 24" fill="none" xmlns="http://www.w3.org/2000/svg">
<path d="M64.0002 16.12C63.9879 16.0406 63.9571 15.9653 63.9102 15.9L63.7602 15.71V15.48C63.7602 13.88 63.6502 11.62 63.7602 10.59C63.7542 10.5671 63.7542 10.543 63.7602 10.52C63.0002 9.37003 63.4202 6.53003 63.6202 5.00003C63.6144 4.96024 63.6144 4.91983 63.6202 4.88003C63.6202 4.80003 63.6202 4.72003 63.6202 4.63003C63.6223 4.16356 63.5788 3.69801 63.4902 3.24003C63.4071 2.94412 63.37 2.63721 63.3802 2.33003C63.3601 2.11383 63.3601 1.89623 63.3802 1.68003C63.3292 1.41867 63.196 1.18044 63.0002 1.00003C62.7102 0.700031 61.7902 1.15003 61.6302 1.00003C61.7302 0.900031 61.8302 1.00003 61.7102 0.700031L61.3602 0.790031C61.2936 0.784322 61.2267 0.784322 61.1602 0.790031C61.1 0.760042 61.0488 0.71462 61.0119 0.658401C60.975 0.602182 60.9537 0.53718 60.9502 0.470031C60.9276 0.440003 60.9106 0.406119 60.9002 0.370031C60.4602 0.370031 60.0002 0.370031 59.5402 0.370031L59.2002 0.420031C58.958 0.490137 58.7105 0.540305 58.4602 0.570031H58.3002L58.0002 0.260031L57.8002 0.120031H57.6802C57.8102 -0.0299692 57.4402 0.0500308 57.0002 0.170031H56.8002C56.7386 0.131967 56.6676 0.111806 56.5952 0.111806C56.5228 0.111806 56.4518 0.131967 56.3902 0.170031C56.1134 0.279535 55.8294 0.369751 55.5402 0.440031H55.2002C54.8902 0.440031 54.5902 0.500031 54.2902 0.520031C53.9902 0.540031 53.6702 0.340031 53.5102 0.590031C53.042 0.680267 52.5833 0.814187 52.1402 0.990031C52.0507 0.975815 51.9596 0.975815 51.8702 0.990031H51.5102C51.2702 0.990031 51.0202 0.990031 50.7802 0.930031L50.3802 0.870031C51.8602 0.330031 51.1402 0.380031 50.0702 0.460031H50.0002C49.5902 0.460031 49.1402 0.530031 48.7402 0.540031C48.5379 0.612031 48.3249 0.649224 48.1102 0.650031H47.9402C47.6783 0.628034 47.4179 0.591309 47.1602 0.540031H47.1002C47.067 0.544436 47.0334 0.544436 47.0002 0.540031C46.9238 0.500055 46.8559 0.445729 46.8002 0.380031C46.7775 0.460617 46.7281 0.531123 46.6602 0.580031L45.7602 0.520031C45.0002 0.190031 41.1402 0.750031 40.0002 0.690031C40.0002 0.570031 40.0002 0.510031 40.1302 0.480031C39.9755 0.442862 39.8184 0.416135 39.6602 0.400031C39.6157 0.431792 39.5643 0.452373 39.5102 0.460031H39.5602C39.3002 0.710031 37.3202 0.460031 37.7102 0.460031C34.1102 0.460031 31.4102 0.680031 28.4402 0.760031C28.7002 0.400031 25.5702 0.940031 24.3902 0.600031C22.4377 0.811098 20.4735 0.894608 18.5102 0.850031C15.7402 1.64003 12.2502 0.770031 9.51017 0.410031H9.36016C8.61349 0.336432 7.86074 0.464193 7.18016 0.780031C7.06016 0.620031 6.85016 0.480031 7.18016 0.350031C6.42694 0.464867 5.69328 0.683617 5.00016 1.00003C3.50016 0.930031 2.00017 1.08003 0.550165 1.13003C0.870165 3.70003 0.210165 7.76003 0.430165 10.92C0.430165 10.74 0.430165 10.56 0.500165 10.38C0.620165 11.38 0.130165 12.48 0.0901652 13.52C0.0225864 13.3553 -0.00813215 13.1779 0.000165213 13C-0.169835 15.31 0.390165 17.71 0.0801652 20.27C0.0801652 20.17 0.180165 23.27 0.940165 23.98H1.03017C1.34017 23.98 1.67017 23.67 1.97017 23.76C2.64017 23.68 3.47017 23.44 3.88017 23.41C4.92362 23.4358 5.96503 23.516 7.00016 23.65C8.53016 23.65 10.2802 23.53 11.3202 23.55C12.4163 23.6056 13.5082 23.7258 14.5902 23.91C14.656 23.9209 14.72 23.9411 14.7802 23.97C15.1128 24.0001 15.4475 24.0001 15.7802 23.97L15.9102 23.9H15.6802C20.3402 23.5 26.1502 23.43 29.3002 23.51C29.5002 23.66 30.7802 23.3 30.6702 23.43C30.4946 23.4958 30.3295 23.5867 30.1802 23.7C31.1451 23.4878 32.1327 23.3971 33.1202 23.43C33.2015 23.4892 33.2996 23.5208 33.4002 23.52C33.6402 23.52 33.8802 23.52 34.1102 23.44C34.183 23.398 34.2661 23.3772 34.3502 23.38H34.5002H34.7202H34.7902H36.1602H36.8102H37.0602C38.0602 23.17 38.4002 23.77 39.2202 23.89C39.1934 23.8539 39.1789 23.81 39.1789 23.765C39.1789 23.72 39.1934 23.6762 39.2202 23.64C39.4352 23.7804 39.6794 23.8695 39.9343 23.9008C40.1891 23.932 40.4477 23.9043 40.6902 23.82C40.6902 23.61 42.3202 23.09 43.1002 23.21C43.1002 23.3 42.6702 23.53 42.6302 23.56C43.2948 23.6701 43.9748 23.6463 44.6302 23.49C44.7963 23.5474 44.9669 23.5909 45.1402 23.62C45.0766 23.6559 45.0272 23.7123 45.0002 23.78C45.4078 23.8662 45.827 23.8831 46.2402 23.83C46.2817 23.7963 46.3299 23.7718 46.3816 23.758C46.4333 23.7442 46.4873 23.7415 46.5402 23.75C46.9822 23.6485 47.4296 23.5717 47.8802 23.52C47.861 23.6123 47.8189 23.6982 47.7577 23.7699C47.6966 23.8416 47.6183 23.8967 47.5302 23.93L47.6602 24.01C48.8402 23.93 50.0702 23.9 51.3002 23.89H54.1502C54.7702 23.89 56.0902 23.29 57.4102 23.65H57.5202H57.6302L58.0202 23.78L58.5502 23.92H58.6902C58.7665 23.8672 58.8573 23.8392 58.9502 23.84H59.1702C59.4002 23.84 59.5202 23.79 59.4302 23.78C59.3402 23.77 62.4302 23.52 62.4302 23.55C62.6902 23.42 63.4302 23.77 63.6802 23.55C63.7511 23.2726 63.7715 22.9847 63.7402 22.7V22.6C63.7402 22.6 63.7402 22.6 63.7402 22.53C63.7402 22.46 63.7402 22.48 63.7402 22.45C63.7402 22.12 63.7402 22.04 63.6702 22.03C63.6383 21.9462 63.5981 21.8658 63.5502 21.79C63.5502 21.64 63.5502 21.49 63.5502 21.35C63.5661 21.2742 63.5661 21.1959 63.5502 21.12C63.5453 21.0702 63.5453 21.0199 63.5502 20.97C63.6516 20.2447 63.6785 19.5108 63.6302 18.78C63.6812 18.6816 63.6987 18.5693 63.6802 18.46C63.7902 17.75 63.8502 17.04 63.8902 16.33V16.22C63.895 16.1902 63.895 16.1598 63.8902 16.13L64.0002 16.12Z" fill="#8FB23E"/>
</svg>
