<svg width="24" height="24" viewBox="0 0 24 24" fill="none" xmlns="http://www.w3.org/2000/svg">
<path d="M20.14 5.01692L19.87 4.87705L19.68 4.79712H19.63H19.49H19.43C19.202 4.86261 18.9926 4.98087 18.8189 5.14231C18.6451 5.30374 18.5119 5.50381 18.43 5.7263C18.1433 6.26615 17.7832 6.76376 17.36 7.20499C16.7416 7.89129 16.2779 8.70217 16 9.58288C15.8259 10.3536 15.4845 11.0766 15 11.701C14.8297 11.9329 14.6949 12.1888 14.6 12.4603C14.3481 13.3012 13.8668 14.0554 13.21 14.6384C12.9593 14.8455 12.7721 15.1191 12.67 15.4277C12.4766 15.9889 12.2529 16.5392 12 17.0762C11.88 17.346 11.76 17.6158 11.63 17.8755L11.52 18.1053L11.44 18.2552C11.44 18.3251 11.35 18.4051 11.31 18.3951C11.3057 18.3552 11.3057 18.315 11.31 18.2752C11.16 17.8056 11.31 18.1553 10.7 17.6058C10.316 17.2996 9.95507 16.9656 9.62 16.6067C9.27 16.227 8.97 15.8074 8.62 15.4077C8.37652 15.1905 8.15542 14.9496 7.96 14.6884C7.60666 14.0618 7.07854 13.5515 6.44 13.2197C6.26073 13.1151 6.09599 12.9874 5.95 12.84L5.74 12.6202L5.5 12.3504L5.42 12.2605H5.27C5.16682 12.3017 5.05955 12.3319 4.95 12.3504H4.85L4.64 12.5103L4.53 12.6302C4.45876 12.7396 4.37485 12.8402 4.28 12.9299C4.28441 12.9631 4.28441 12.9967 4.28 13.0298C4.27577 13.0462 4.27577 13.0634 4.28 13.0798C4.30433 13.0887 4.32613 13.1033 4.34355 13.1224C4.36097 13.1416 4.37348 13.1647 4.38 13.1897V13.2696L4.58 13.5494C4.74082 13.7552 4.88146 13.976 5 14.2088C5.20351 14.4988 5.48904 14.7214 5.82 14.8482C6.1 14.9781 6.5 14.8982 6.72 15.078C6.94 15.2579 6.93 15.6175 7.03 15.8973C7.03 15.9572 7.12 15.9972 7.16 16.0472L8.45 17.7556C8.56614 17.9447 8.72336 18.1052 8.91 18.2252C9.33122 18.4059 9.71716 18.6596 10.05 18.9746C10.57 19.4841 11.05 20.0436 11.64 20.733L11.85 20.4233C12.0569 20.102 12.2439 19.7683 12.41 19.4242C12.57 19.1144 12.72 18.7947 12.88 18.495C13.3516 17.8549 13.6636 17.1116 13.79 16.3269C13.79 16.277 13.86 16.207 13.92 16.177C14.23 15.9972 14.35 15.5576 14.66 15.3678C14.7666 15.1474 14.9243 14.9555 15.12 14.8083C15.12 14.6784 15.12 14.5485 15.18 14.4086C15.2052 14.2405 15.2862 14.0857 15.41 13.969C15.34 13.8491 15.31 13.5793 15.36 13.5494C15.73 13.2696 15.67 12.88 15.8 12.5503C15.93 12.2205 16.32 12.0007 16.58 11.711C16.6722 11.5802 16.7494 11.4394 16.81 11.2914C17.13 10.7019 17.3 10.0125 17.94 9.63284C18.03 9.58288 18.07 9.42302 18.12 9.30313C18.622 8.02041 19.2767 6.80273 20.07 5.67634C20.1505 5.58824 20.2007 5.47674 20.2133 5.35811C20.2259 5.23948 20.2002 5.11994 20.14 5.01692ZM14.66 14.8482C14.6365 14.7997 14.6165 14.7496 14.6 14.6984H14.72C14.73 14.7512 14.73 14.8054 14.72 14.8582L14.66 14.8482ZM16.83 10.3522C16.703 10.4456 16.561 10.5166 16.41 10.562C16.36 10.4022 16.24 10.2023 16.3 10.1024C16.36 10.0025 16.6 9.96255 16.83 9.87263C16.84 10.0924 16.9 10.2723 16.83 10.3522Z" fill="#8FB23E"/>
<path d="M23.86 3.12848C23.86 2.74881 23.81 2.36915 23.79 1.99947C23.79 1.41 23.79 0.83051 23.73 0.271005H21.64H20.22C19.28 0.271005 18.34 0.271005 17.36 0.201067C16.38 0.131129 15.42 0.201067 14.48 0.201067C11.5924 0.398177 8.69401 0.374796 5.81 0.131129C4.75472 0.00862383 3.69123 -0.028131 2.63 0.0212263L1.71 0.101156L0 0.14112C0.05 2.01946 0.11 3.94775 0.16 5.86605C0.16 7.52458 0.22 9.19311 0.22 10.8616C0.236572 11.7185 0.206528 12.5757 0.13 13.4294C-0.00502825 15.342 -0.00502825 17.2617 0.13 19.1743L0.19 21.1725V23.7502H1.66C3.42 23.7502 5.11 23.8401 6.85 23.8801C7.93 23.8801 9.12 23.8301 10.11 23.8801C12.4644 24.0505 14.8288 24.0304 17.18 23.8202C17.88 23.7702 18.55 23.7502 19.18 23.7502H20.18H21.36H21.77L22.2 23.6703C22.3682 23.5646 22.5456 23.4743 22.73 23.4005L22.92 23.3306L23.01 23.0908V22.9909C23.0584 22.9492 23.102 22.9023 23.14 22.851C23.14 22.851 23.14 22.851 23.19 22.8011C23.5373 21.3869 23.6688 19.9283 23.58 18.4749C23.58 16.4267 23.69 14.4784 23.79 12.4202C23.998 9.32713 24.0213 6.22437 23.86 3.12848ZM7.86 1.31009L8.18 1.39001L7.73 1.46994H7.52L7.86 1.31009ZM22.47 3.47817C22.4603 4.32839 22.3868 5.1767 22.25 6.01592C22.2254 6.43519 22.2254 6.85554 22.25 7.2748C22.39 11.8508 22.49 16.4267 22.31 21.0426C22.2766 21.5366 22.3001 22.0327 22.38 22.5213H22.31C22.138 22.5514 21.962 22.5514 21.79 22.5213H21.63H21.34L20.2 22.4714C19.48 22.4714 18.76 22.3914 18.03 22.3215C16.8884 22.2714 15.7445 22.3149 14.61 22.4514C13.61 22.5513 12.93 22.871 12.01 22.901C11.0905 22.8505 10.1752 22.7404 9.27 22.5713C9.09 22.5713 8.84 22.5713 8.62 22.5713L1.68 22.3215V22.0018V21.6721C1.37601 18.4904 1.33253 15.2893 1.55 12.1005C1.61 10.7517 1.55 9.30301 1.55 7.89426C1.55 6.73528 1.55 5.54633 1.55 4.38736C1.55 3.80121 1.55 3.22173 1.55 2.6489C1.55 2.37914 1.55 2.01946 1.55 1.83962L1.48 1.53988L1.79 1.43997C1.99233 1.41141 2.19767 1.41141 2.4 1.43997C3.4 1.60982 4.94 1.49992 6 1.66977C6.79515 1.65487 7.59038 1.69493 8.38 1.78966L9.65 1.66977C10.2087 1.61486 10.7713 1.61486 11.33 1.66977C11.7095 1.53421 12.1073 1.45674 12.51 1.43997C13.7405 1.51898 14.9756 1.48554 16.2 1.34006C17.37 1.34006 18.67 1.50991 19.93 1.58984C20.44 1.58984 21 1.58984 21.54 1.58984H22.29H22.55V3.47817H22.47ZM23.06 3.57808C22.9465 3.11565 22.8729 2.64433 22.84 2.16932C22.8345 2.05949 22.8345 1.94945 22.84 1.83962L22.9 1.56986C22.9 1.38002 23 1.16022 23.04 0.910439C23.1136 1.08204 23.1738 1.25908 23.22 1.43997C23.2783 1.65527 23.3118 1.8765 23.32 2.09939C23.2828 2.5997 23.1957 3.09506 23.06 3.57808Z" fill="#8FB23E"/>
</svg>
