<svg width="24" height="24" viewBox="0 0 24 24" fill="none" xmlns="http://www.w3.org/2000/svg">
<path d="M19.9998 4.68997C19.9282 4.62839 19.8614 4.56153 19.7998 4.48997L19.6498 4.36997L19.5398 4.29997H19.4898L19.3298 4.16997H19.2498H19.1998C19.196 4.19245 19.1853 4.21318 19.1691 4.2293C19.153 4.24543 19.1323 4.25614 19.1098 4.25997H19.0398L18.8098 4.41997C18.6543 4.51464 18.4941 4.60142 18.3298 4.67997C18.1097 4.8231 17.9469 5.039 17.8698 5.28997C17.7198 5.37997 17.5598 5.46997 17.4198 5.56997C16.7615 5.94855 16.2108 6.48895 15.8198 7.13997L15.7398 7.26997L15.4998 7.44997C15.3598 7.55997 15.1698 7.66997 15.1198 7.81997C15.0615 7.99129 14.9843 8.15563 14.8898 8.30997L14.5498 8.56997C14.3605 8.70579 14.1978 8.87528 14.0698 9.06997L13.8498 9.34997L13.5798 9.53997C13.327 9.73941 13.1017 9.97142 12.9098 10.23C12.7712 10.3064 12.6275 10.3732 12.4798 10.43C12.2833 10.5068 12.1107 10.6345 11.9798 10.8C11.6293 10.4842 11.2955 10.1505 10.9798 9.79997C10.8236 9.66429 10.6975 9.49737 10.6098 9.30997C10.4088 8.88649 10.08 8.53673 9.66979 8.30997C9.35896 8.07785 9.06795 7.8203 8.79979 7.53997C8.51979 7.22997 8.29979 6.87997 8.02979 6.53997C7.75979 6.19997 7.35979 6.23997 7.25979 5.99997C6.9933 5.4764 6.54546 5.06765 5.99979 4.84997C5.85224 4.77048 5.71741 4.66936 5.59979 4.54997L5.42979 4.37997L5.24979 4.15997L5.17979 4.08997H5.05979L4.76979 4.19997H4.71979L4.52979 4.35997L4.42979 4.47997C4.35634 4.58187 4.27616 4.67875 4.18979 4.76997C4.19325 4.79652 4.19325 4.82341 4.18979 4.84997C4.20678 4.85107 4.22321 4.85649 4.23751 4.86572C4.25182 4.87495 4.26353 4.88767 4.27155 4.9027C4.27956 4.91772 4.2836 4.93454 4.28329 4.95156C4.28299 4.96858 4.27834 4.98524 4.26979 4.99997V5.07997L4.42979 5.30997C4.52447 5.46207 4.61125 5.61894 4.68979 5.77997C4.84524 6.01591 5.07897 6.18943 5.34979 6.26997C5.57979 6.36997 5.93979 6.26997 6.10979 6.38997C6.27979 6.50997 6.25979 6.85997 6.32979 7.09997C6.36013 7.14237 6.39355 7.18248 6.42979 7.21997L7.42979 8.60997C7.53979 8.74997 7.64979 8.92997 7.80979 8.98997C8.54237 9.28748 9.14747 9.83242 9.51979 10.53C9.72943 10.7926 9.97134 11.0278 10.2398 11.23C10.4598 11.44 10.6598 11.69 10.8798 11.9C10.7898 12.01 10.6898 12.11 10.5998 12.21H10.5298C10.3943 12.3589 10.2218 12.4693 10.0298 12.53C9.97979 12.62 9.94979 12.73 9.89979 12.83C9.87811 12.896 9.8429 12.9568 9.79641 13.0084C9.74992 13.0601 9.69317 13.1015 9.62979 13.13C9.62979 13.13 9.62979 13.19 9.62979 13.22C9.53582 13.3051 9.42747 13.3728 9.30979 13.42C8.88999 13.631 8.54205 13.9615 8.30979 14.37C8.08021 14.6859 7.82249 14.9805 7.53979 15.25C7.27979 15.48 6.99979 15.69 6.71979 15.9C6.64979 15.9 6.58979 16 6.53979 16.07C6.39759 16.2516 6.22504 16.4072 6.02979 16.53C5.51027 16.7936 5.09719 17.2279 4.85979 17.76C4.783 17.9066 4.68531 18.0414 4.56979 18.16L4.38979 18.33L4.31979 18.4L4.18979 18.5C4.09913 18.5526 4.0308 18.6365 3.99765 18.7359C3.96451 18.8354 3.96882 18.9435 4.00979 19.04C4.07979 19.1 4.13979 19.17 4.20979 19.24L4.34979 19.36L4.45979 19.42H4.50979L4.67979 19.56H4.75979C4.76362 19.5375 4.77433 19.5168 4.79045 19.5006C4.80658 19.4845 4.82731 19.4738 4.84979 19.47H4.91979L5.14979 19.31C5.30532 19.2153 5.46553 19.1285 5.62979 19.05C5.85619 18.9023 6.02276 18.679 6.09979 18.42L6.52979 18.15C7.18809 17.7714 7.73882 17.231 8.12979 16.58L8.18979 16.48L8.45979 16.28C8.60979 16.18 8.78979 16.07 8.83979 15.91C8.89844 15.7289 8.98262 15.5572 9.08979 15.4L9.39979 15.15C9.5891 15.0141 9.7518 14.8447 9.87979 14.65L10.0698 14.41L10.3898 14.19C10.6444 13.9785 10.8757 13.7405 11.0798 13.48C11.2002 13.4048 11.3274 13.3412 11.4598 13.29C11.6382 13.2248 11.7967 13.1146 11.9198 12.97C11.99 13.0534 12.0382 13.1531 12.0598 13.26C12.2109 13.3918 12.3189 13.566 12.3698 13.76L12.6798 13.88C12.7449 13.904 12.8043 13.9412 12.8543 13.9894C12.9042 14.0377 12.9435 14.0957 12.9698 14.16C13.0898 14.16 13.3198 14.16 13.3398 14.16C13.4398 14.52 13.7898 14.54 14.0298 14.72C14.2698 14.9 14.3198 15.26 14.4698 15.53C14.5466 15.6352 14.6375 15.7294 14.7398 15.81C15.1198 16.18 15.6398 16.45 15.7398 17.07C15.7398 17.15 15.8698 17.22 15.9498 17.28C16.8467 17.9321 17.6449 18.7101 18.3198 19.59C18.3724 19.6806 18.4563 19.749 18.5557 19.7821C18.6552 19.8153 18.7633 19.8109 18.8598 19.77C18.9198 19.7 18.9898 19.64 19.0598 19.57L19.1798 19.43C19.2068 19.3922 19.2302 19.352 19.2498 19.31C19.2731 19.1181 19.2435 18.9235 19.1642 18.7473C19.0848 18.571 18.9588 18.4198 18.7998 18.31C18.4518 17.9615 18.1615 17.5598 17.9398 17.12C17.5616 16.4673 17.0251 15.9205 16.3798 15.53C15.8042 15.2371 15.3149 14.7994 14.9598 14.26C14.8222 14.0757 14.6569 13.9137 14.4698 13.78C13.8552 13.4243 13.3793 12.8709 13.1198 12.21C13.0509 12.0389 12.945 11.8853 12.8098 11.76L12.9898 11.56L13.1098 11.51C13.2453 11.361 13.4178 11.2506 13.6098 11.19C13.6591 11.0927 13.7025 10.9925 13.7398 10.89C13.7615 10.8239 13.7967 10.7632 13.8432 10.7115C13.8897 10.6599 13.9464 10.6185 14.0098 10.59C14.0042 10.5569 14.0042 10.5231 14.0098 10.49C14.0998 10.4047 14.2049 10.3368 14.3198 10.29C14.7467 10.0657 15.0955 9.71692 15.3198 9.28997C15.552 8.97607 15.8095 8.68175 16.0898 8.40997C16.3398 8.18997 16.6098 7.98997 16.8698 7.78997H16.9698C17.0598 7.78997 17.1198 7.65997 17.1798 7.57997C17.2979 7.42731 17.4438 7.29838 17.6098 7.19997C18.2476 7.01175 18.7862 6.5809 19.1098 5.99997C19.1866 5.8533 19.2843 5.71856 19.3998 5.59997L19.4898 5.51997C19.5853 5.43453 19.6855 5.35441 19.7898 5.27997C19.8946 5.22815 19.9751 5.13761 20.0143 5.02749C20.0535 4.91737 20.0483 4.79632 19.9998 4.68997ZM15.7598 15.69C15.9098 15.69 16.1098 15.61 16.1798 15.69C16.2498 15.77 16.1798 15.97 16.1798 16.19C15.9998 16.19 15.8298 16.19 15.7898 16.1C15.7466 15.9815 15.7263 15.856 15.7298 15.73L15.7598 15.69ZM12.9198 13.51C12.8769 13.5189 12.8327 13.5189 12.7898 13.51V13.45H12.9298L12.9198 13.51Z" fill="#8FB23E"/>
</svg>
