<svg width="24" height="24" viewBox="0 0 24 24" fill="none" xmlns="http://www.w3.org/2000/svg">
<path d="M18.7998 17.42C18.274 16.6084 17.6147 15.8916 16.8498 15.3C15.7818 14.5224 14.7786 13.6595 13.8498 12.72C13.6192 12.4936 13.4238 12.2341 13.2698 11.95C13.4477 11.7388 13.6051 11.5111 13.7398 11.27C13.8957 11.0257 14.0879 10.8066 14.3098 10.62C14.8998 10.05 15.3098 9.34003 15.9598 8.77003C16.7101 8.14051 17.4277 7.47297 18.1098 6.77003C18.775 6.02645 19.4794 5.31879 20.2198 4.65003C20.7298 4.17003 22.1498 3.65003 21.1298 2.91003C20.6698 2.58003 20.3798 2.49003 19.8898 2.80003C18.9698 3.38003 18.2998 4.48003 17.4098 5.17003C16.5941 5.71076 15.8771 6.38721 15.2898 7.17003C14.5121 8.23798 13.6493 9.24125 12.7098 10.17C12.5484 10.3422 12.3632 10.4904 12.1598 10.61C11.8898 10.42 11.6098 10.25 11.3598 10.06C10.1298 9.13003 9.35978 7.84003 8.14978 6.94003C7.26205 6.18391 6.46053 5.33209 5.75978 4.40003C5.3527 3.89441 4.87829 3.44692 4.34978 3.07003C3.74978 2.62003 3.88978 2.32003 3.24978 2.62003C2.35978 3.03003 2.54978 3.62003 3.14978 4.14003C3.74978 4.66003 4.27978 5.00003 4.79978 5.52003C5.08514 5.83797 5.35223 6.17184 5.59978 6.52003C5.77978 6.77003 5.94978 7.03003 6.14978 7.26003C6.49653 7.58415 6.88294 7.86303 7.29978 8.09003C7.77155 8.51477 8.19419 8.99108 8.55978 9.51003C9.11978 10.17 9.81978 10.76 10.4298 11.37L10.7298 11.63C10.4798 11.95 10.2698 12.32 10.0298 12.63C9.09978 13.86 7.80978 14.63 6.90978 15.84C6.16361 16.7296 5.32188 17.5344 4.39978 18.24C3.89416 18.6471 3.44667 19.1215 3.06978 19.65C2.61978 20.25 2.31978 20.11 2.61978 20.75C3.02978 21.64 3.61978 21.45 4.13978 20.85C4.65978 20.25 4.99978 19.72 5.51978 19.2C5.83773 18.9147 6.17159 18.6476 6.51978 18.4C6.76978 18.22 7.02978 18.05 7.25978 17.85C7.5839 17.5033 7.86279 17.1169 8.08978 16.7C8.51452 16.2283 8.99083 15.8056 9.50978 15.44C10.1698 14.88 10.7598 14.18 11.3698 13.57C11.5298 13.4 11.6798 13.22 11.8398 13.04C12.0845 13.3328 12.3876 13.5712 12.7298 13.74C12.9741 13.896 13.1933 14.0882 13.3798 14.31C13.9498 14.9 14.6598 15.31 15.2298 15.96C15.8593 16.7104 16.5268 17.428 17.2298 18.11C17.9734 18.7753 18.681 19.4796 19.3498 20.22C19.8298 20.73 20.3498 22.15 21.0898 21.13C21.4198 20.67 21.5098 20.38 21.1998 19.89C20.5898 19 19.4898 18.31 18.7998 17.42Z" fill="#90B23E"/>
</svg>
