<svg width="16" height="16" viewBox="0 0 16 16" fill="none" xmlns="http://www.w3.org/2000/svg">
<path d="M15.9778 9.26846C16.0074 9.06404 16.0074 8.85633 15.9778 8.65191C15.8083 6.40187 15.7884 4.14281 15.918 1.89005C15.9573 1.60219 15.9195 1.30891 15.8083 1.04103V0.990491C15.8071 0.830872 15.7904 0.671764 15.7585 0.515443C15.7388 0.437739 15.6972 0.367514 15.6389 0.313295C15.5988 0.273837 15.5514 0.242907 15.4993 0.222328H15.4495C15.3868 0.182311 15.3142 0.161271 15.2402 0.161683H14.2433H14.1736H13.8247C13.4758 0.161683 13.1269 0.0808241 12.8279 0.0201796C12.2734 -0.029035 11.7148 0.011911 11.1731 0.141469C11.0462 0.168194 10.9225 0.208863 10.8043 0.262758C10.7454 0.247781 10.6838 0.247781 10.6249 0.262758C10.2414 0.388288 9.84781 0.479603 9.44863 0.535658C9.13962 0.475013 8.8007 0.333509 8.45181 0.25265C8.34556 0.246896 8.23908 0.246896 8.13283 0.25265L6.43824 0.111146L5.58097 0.0505019H5.36167H4.87323L4.11565 0.0606093H4.01596H3.89635C3.89635 0.0606093 3.83654 0.121254 3.89635 0.0606093C3.86047 0.125099 3.83044 0.19276 3.80663 0.262758C3.84623 0.628896 3.84623 0.998327 3.80663 1.36447C3.80663 1.47565 3.80663 1.58683 3.80663 1.69801C3.82156 1.92349 3.82156 2.14973 3.80663 2.37521C3.80663 2.4965 3.80663 2.60768 3.80663 2.72897V2.79972C3.80663 3.07262 3.80663 3.36573 3.80663 3.7296L2.91946 3.65885L2.02232 3.67906H1.78309H1.47407H0.736427H0.507158H0.148303V3.80035V3.861V4.08336C0.148303 4.31583 0.148303 4.5483 0.148303 4.78077C0.148303 5.01324 0.148303 5.29625 0.148303 5.54893C0.148303 5.80162 0.148303 5.90269 0.148303 6.07452C0.148303 6.24635 0.148303 6.24635 0.148303 6.32721C0.179161 6.72732 0.189143 7.12881 0.178207 7.52999C0.167695 8.32378 0.117791 9.11653 0.0286845 9.90523C-0.00956148 10.5785 -0.00956149 11.2534 0.0286845 11.9267C0.0286845 12.4927 0.0286845 13.079 0.0286845 13.645C0.0286845 13.9583 0.0286845 14.1706 0.0286845 14.5546C0.0286845 14.9387 0.0884937 15.5654 0.138335 15.9191L0.905886 15.8181C1.05776 15.7933 1.21255 15.7933 1.36442 15.8181C1.59369 15.8181 1.72328 15.8888 1.86283 15.8989H2.32137C2.60997 15.8997 2.89757 15.9336 3.17864 16H3.33813C3.50393 15.9849 3.67073 15.9849 3.83654 16C4.14555 16 4.45457 16 4.77355 16H5.01278C5.18524 15.9848 5.35867 15.9848 5.53113 16H5.66072H5.75043H5.9498C6.08222 15.9152 6.23248 15.8633 6.3884 15.8484C6.98707 15.9263 7.59465 15.8955 8.18267 15.7574C8.79059 15.7767 9.39504 15.858 9.98692 16H10.8342H12.17V14.9387V14.1301C12.1854 13.7148 12.2558 13.3034 12.3793 12.9071C12.4095 12.7028 12.4095 12.495 12.3793 12.2906C12.3744 12.2605 12.3744 12.2297 12.3793 12.1996H12.6684C12.9774 12.2603 13.2864 12.331 13.5954 12.3613C13.7215 12.3717 13.8481 12.3717 13.9742 12.3613H14.4427H15.7784V11.2899V10.4915C15.7898 10.0765 15.8569 9.66505 15.9778 9.26846ZM10.7744 14.7871H10.1962C9.73771 14.7871 9.27917 14.7871 8.81067 14.7164C8.34634 14.676 7.87945 14.676 7.41512 14.7164C6.01735 14.8872 4.602 14.8395 3.21851 14.5749C2.71078 14.4665 2.18947 14.4392 1.67344 14.494C1.63535 14.5359 1.5873 14.5672 1.53388 14.585C1.50983 14.5678 1.49226 14.5428 1.48404 14.5142C1.47972 14.4908 1.47972 14.4668 1.48404 14.4435V14.1402L1.41426 12.9172C1.41426 12.1086 1.36442 11.2899 1.36442 10.4611C1.34961 10.0417 1.37633 9.62184 1.44417 9.20782C1.57875 8.27278 1.57875 7.32289 1.44417 6.38785L1.36442 5.03346H1.51395L3.71692 5.15475C4.24523 5.15475 4.82339 5.15475 5.29189 5.15475C6.39147 5.3319 7.51173 5.3319 8.6113 5.15475H9.99688C10.2891 5.17032 10.5819 5.17032 10.8741 5.15475H10.9439H10.9937L11.1931 5.03346C11.0204 5.57792 10.9527 6.15099 10.9937 6.7214C10.9984 6.74133 10.9984 6.7621 10.9937 6.78204C11.0083 7.17662 10.9681 7.57131 10.8741 7.9545L10.9538 8.33858L10.8043 9.7233C10.625 11.2407 10.625 12.7744 10.8043 14.2918C10.7992 14.3879 10.8235 14.4833 10.8741 14.5647L10.9339 14.7366L10.7744 14.7871ZM14.4228 6.09474C14.2435 7.61216 14.2435 9.14586 14.4228 10.6633C14.4228 10.916 14.4826 10.8553 14.5025 10.9362C14.5082 10.9933 14.5082 11.0509 14.5025 11.108H14.3131H13.7549H13.0671C12.8946 11.1235 12.7212 11.1235 12.5487 11.108C12.4966 11.0928 12.4414 11.0928 12.3893 11.108C12.3988 11.0444 12.3988 10.9796 12.3893 10.916V10.7441V10.4712V9.93555C12.3893 9.58516 12.3893 9.2314 12.3893 8.87427C12.39 8.16656 12.4703 7.46123 12.6285 6.77193C12.681 6.52253 12.711 6.2688 12.7182 6.01388C12.7182 5.87237 12.7182 5.74098 12.7182 5.60958V5.03346L12.6584 3.90143C12.6094 3.88065 12.5652 3.84966 12.5288 3.81046H12.459H11.9806C11.686 3.84575 11.3899 3.86599 11.0934 3.8711H10.9837H10.6049H10.3159C9.96698 3.8711 9.61809 3.79025 9.31905 3.7296C8.76411 3.67931 8.20478 3.72373 7.66433 3.861C7.44325 3.84678 7.22134 3.86723 7.00642 3.92164H6.71735C6.29708 3.93634 5.87641 3.90925 5.46135 3.84078C5.39158 3.84078 5.23208 3.84078 5.23208 3.79024H5.14237C5.15624 3.74413 5.15624 3.69486 5.14237 3.64874L5.01278 2.7795C5.01278 2.33478 5.01278 1.89005 4.93304 1.43522H5.09253L7.2955 1.56661C7.81989 1.5306 8.34609 1.5306 8.87048 1.56661C10.0093 1.73391 11.1672 1.71343 12.2995 1.50597C12.6296 1.45714 12.9628 1.43349 13.2964 1.43522H13.7948H14.363H14.5623H14.6421H14.7816C14.6301 1.9631 14.5727 2.51418 14.6122 3.06251C14.62 4.07723 14.55 5.09102 14.4028 6.09474H14.4228Z" fill="#8FB23E"/>
</svg>
