<svg width="124" height="2" viewBox="0 0 124 2" fill="none" xmlns="http://www.w3.org/2000/svg">
<path d="M123.885 1.17C122.852 -2.5034e-06 120.096 0.229998 118.592 0.199998C115.929 0.149998 113.242 0.309998 110.555 0.299998C106.663 0.279998 102.759 0.159998 98.8441 -2.48104e-06C93.5167 -0.160002 88.2237 0.199998 82.9193 0.279998C80.3704 0.349998 77.8904 0.219997 75.3759 0.239998C72.5056 0.239998 69.6352 0.409998 66.7763 0.309998C64.17 0.219998 61.5752 -0.0600025 58.9459 -2.48104e-06C56.3167 0.0599975 53.4807 0.199998 50.7481 0.259998C48.0156 0.319998 45.3059 0.339998 42.5963 0.329998C39.8867 0.319998 37.4181 0.129998 34.8233 0.179998C32.2285 0.229998 29.5074 0.359998 26.8437 0.349998C24.18 0.339998 21.3326 0.189998 18.577 0.209998C16.0052 0.229998 13.4563 0.0999975 10.8959 0.0899975C8.33555 0.0799975 5.66037 0.319998 3.03111 0.309998C2.33137 0.222176 1.62197 0.208744 0.918516 0.269998C0.631479 0.349998 -2.27615e-06 0.699997 -2.27615e-06 0.999997C-0.0918541 1.62 0.516664 1.7 1.02185 1.72C3.15741 1.79 5.27 1.78 7.40555 1.72C10.031 1.65333 12.6602 1.62 15.2933 1.62C18.933 1.62 22.5726 1.77 26.2122 1.89C29.3696 2 32.55 1.67 35.7304 1.67C39.393 1.67 43.0441 1.8 46.7067 1.78C50.0248 1.78 53.3659 1.67 56.6841 1.78C59.0722 1.84 61.4259 1.64 63.8026 1.87C65.9969 2.13006 68.2216 2.13006 70.4159 1.87C72.7413 1.69969 75.0769 1.65961 77.4081 1.75C78.939 1.71 80.4699 1.69 82.0007 1.69C84.963 1.69 87.9482 1.64 90.9104 1.77C95.503 1.96 100.096 1.77 104.688 1.77C109.281 1.77 114 1.77 118.638 1.85C119.786 1.85 120.934 1.95 122.014 1.98C122.37 1.91 124.505 1.86 123.885 1.17Z" fill="#8FB23E"/>
</svg>
