<svg width="16" height="16" viewBox="0 0 16 16" fill="none" xmlns="http://www.w3.org/2000/svg">
<path d="M13.84 8.16998C12.7607 7.1184 11.6186 6.13325 10.42 5.21998C10.2163 5.11279 9.99692 5.03854 9.77 4.99998L8.87 4.74998C8.60785 4.68996 8.33817 4.66973 8.07 4.68998C7.36614 4.74987 6.67154 4.89081 6 5.10998C5.52 5.51998 5.11 5.10998 2.16 8.62998C2.14446 8.97164 2.20243 9.31265 2.33 9.62998C3.8403 10.7617 5.44254 11.7652 7.12 12.63C7.47712 12.7929 7.86792 12.8683 8.26 12.85C8.7 12.85 9.15 12.79 9.6 12.74C9.96649 12.6979 10.3134 12.5522 10.6 12.32C11.64 11.43 14.11 9.93998 13.84 8.16998ZM12.21 8.99998L11.45 10.34C10.9251 10.8824 10.2687 11.2795 9.54466 11.4928C8.82065 11.7061 8.05374 11.7282 7.31863 11.557C6.58353 11.3858 5.90529 11.0272 5.35 10.516C4.7947 10.0048 4.38128 9.35845 4.15 8.63998C6.36 5.06998 10.1 4.89998 12.21 8.99998Z" fill="#E17373"/>
<path d="M14.06 10.46L14.14 10.54C14.186 10.591 14.2446 10.629 14.31 10.65C14.3723 10.6661 14.4377 10.6661 14.5 10.65C14.5625 10.6649 14.6275 10.6649 14.69 10.65C14.7524 10.6287 14.8077 10.5907 14.85 10.54L14.93 10.44C14.9729 10.3635 14.9969 10.2778 15 10.19V10.06C14.9768 9.97364 14.932 9.89451 14.87 9.83005L14.79 9.75005C14.7456 9.70412 14.6907 9.66978 14.63 9.65005C14.5648 9.63 14.4952 9.63 14.43 9.65005C14.368 9.63142 14.302 9.63142 14.24 9.65005C14.1793 9.66978 14.1243 9.70412 14.08 9.75005L14 9.85005C13.9616 9.93193 13.9379 10.0199 13.93 10.11V10.24C13.9573 10.3217 14.0016 10.3967 14.06 10.46Z" fill="#E17373"/>
<path d="M12 12.7L12.45 13.28C12.494 13.3286 12.5488 13.3663 12.61 13.39C12.6758 13.405 12.7442 13.405 12.81 13.39C12.8725 13.4049 12.9375 13.4049 13 13.39C13.0624 13.3687 13.1178 13.3306 13.16 13.28C13.2533 13.1871 13.3071 13.0616 13.31 12.93V12.8C13.2888 12.7156 13.2437 12.6392 13.18 12.58L12.73 12C12.6845 11.9555 12.6299 11.9214 12.57 11.9C12.5102 11.8735 12.4454 11.8599 12.38 11.8599C12.3146 11.8599 12.2499 11.8735 12.19 11.9C12.1194 11.9171 12.0541 11.9515 12 12C11.9043 12.0954 11.8503 12.2248 11.85 12.36V12.49C11.8666 12.5761 11.9126 12.6539 11.98 12.71L12 12.7Z" fill="#E17373"/>
<path d="M1.76 10.42L1.56 10.63C1.51134 10.674 1.47367 10.7288 1.45 10.79C1.43584 10.8526 1.43584 10.9175 1.45 10.98C1.435 11.0459 1.435 11.1142 1.45 11.18C1.47367 11.2412 1.51134 11.296 1.56 11.34L1.66 11.42C1.73684 11.4611 1.82291 11.4817 1.91 11.48H2C2.08268 11.4549 2.15813 11.4103 2.22 11.35L2.43 11.14C2.47593 11.0957 2.51027 11.0407 2.53 10.98C2.55005 10.9149 2.55005 10.8452 2.53 10.78C2.54989 10.7183 2.54989 10.6518 2.53 10.59C2.51027 10.5293 2.47593 10.4744 2.43 10.43L2.33 10.35C2.24989 10.307 2.16091 10.283 2.07 10.28H1.94C1.85831 10.3073 1.78334 10.3516 1.72 10.41L1.76 10.42Z" fill="#E17373"/>
<path d="M8.06001 13.67C8.02012 13.962 8.02012 14.2581 8.06001 14.55C8.03996 14.6152 8.03996 14.6849 8.06001 14.75C8.07975 14.8108 8.11409 14.8657 8.16001 14.91C8.25759 15.0012 8.38649 15.0513 8.52001 15.05C8.65048 15.0508 8.77608 15.0006 8.87001 14.91C8.95844 14.8115 9.00506 14.6824 9.00001 14.55C8.97508 14.3241 8.97508 14.096 9.00001 13.87V14V13.93C9.01947 13.8648 9.01947 13.7953 9.00001 13.73C9.01669 13.6712 9.01669 13.6089 9.00001 13.55C8.93168 13.4391 8.82488 13.3572 8.70001 13.32C8.57807 13.2711 8.44195 13.2711 8.32001 13.32L8.22001 13.4C8.15835 13.4609 8.11356 13.5367 8.09001 13.62L8.06001 13.67Z" fill="#E17373"/>
<path d="M4.17 12.7199L3.82 13.3199C3.78105 13.3719 3.76 13.435 3.76 13.4999C3.745 13.5658 3.745 13.6341 3.76 13.6999C3.77769 13.7623 3.80836 13.8203 3.85 13.8699C3.88641 13.9268 3.9385 13.972 4 13.9999C4.11878 14.066 4.2584 14.0839 4.39 14.0499C4.45116 14.0327 4.50828 14.0035 4.55806 13.964C4.60784 13.9245 4.64929 13.8756 4.68 13.8199L5.03 13.2199C5.07818 13.1574 5.09974 13.0783 5.09 12.9999C5.11005 12.9348 5.11005 12.8651 5.09 12.7999C5.07311 12.7489 5.04187 12.7037 5 12.6699C4.96936 12.612 4.92001 12.5662 4.86 12.5399C4.73827 12.4899 4.60173 12.4899 4.48 12.5399C4.35376 12.5744 4.24605 12.657 4.18 12.7699L4.17 12.7199Z" fill="#E17373"/>
</svg>
