<svg width="16" height="16" viewBox="0 0 16 16" fill="none" xmlns="http://www.w3.org/2000/svg">
<path d="M13.84 8.16998C12.7607 7.1184 11.6186 6.13325 10.42 5.21998C10.2163 5.11279 9.99692 5.03854 9.77 4.99998L8.87 4.74998C8.60785 4.68996 8.33817 4.66973 8.07 4.68998C7.36614 4.74987 6.67154 4.89081 6 5.10998C5.52 5.51998 5.11 5.10998 2.16 8.62998C2.14446 8.97164 2.20243 9.31265 2.33 9.62998C3.8403 10.7617 5.44254 11.7652 7.12 12.63C7.47712 12.7929 7.86792 12.8683 8.26 12.85C8.7 12.85 9.15 12.79 9.6 12.74C9.96649 12.6979 10.3134 12.5522 10.6 12.32C11.64 11.43 14.11 9.93998 13.84 8.16998ZM12.21 8.99998L11.45 10.34C10.9251 10.8824 10.2687 11.2795 9.54466 11.4928C8.82065 11.7061 8.05374 11.7282 7.31863 11.557C6.58353 11.3858 5.90529 11.0272 5.35 10.516C4.7947 10.0048 4.38128 9.35845 4.15 8.63998C6.36 5.06998 10.1 4.89998 12.21 8.99998Z" fill="#90B23E"/>
<path d="M10.16 8.52004C10.0402 8.27384 9.868 8.05679 9.65554 7.88406C9.44309 7.71133 9.19546 7.58709 8.92999 7.52004C8.39664 7.33571 7.81272 7.36436 7.29999 7.60004C7.07096 7.69904 6.87068 7.85434 6.71776 8.05149C6.56484 8.24865 6.46425 8.48127 6.42534 8.72773C6.38642 8.97418 6.41045 9.22648 6.49518 9.46116C6.57992 9.69584 6.72261 9.90529 6.90999 10.07C7.11906 10.3151 7.38584 10.5042 7.68626 10.6203C7.98668 10.7364 8.31129 10.7759 8.63079 10.7352C8.9503 10.6946 9.25465 10.575 9.51638 10.3873C9.77812 10.1995 9.98899 9.94962 10.13 9.66004C10.17 9.27004 10.41 9.37004 10.16 8.52004Z" fill="#90B23E"/>
<path d="M8.15 8.71997C8.05 8.71997 8.15 8.71997 7.96 8.90997C7.77 9.09997 8.66 8.99997 8.15 8.71997Z" fill="#90B23E"/>
</svg>
