<svg width="232" height="40" viewBox="0 0 232 40" fill="none" xmlns="http://www.w3.org/2000/svg">
<path d="M231.991 8.74276C232.021 7.90507 231.974 7.06637 231.851 6.2373C231.771 5.70615 231.521 5.1349 231.351 5.12488C231.181 5.11486 230.831 5.27521 230.851 4.23294C230.84 3.69113 230.96 3.15472 231.201 2.66954C231.531 2.54927 231.691 1.76757 231.781 0.665172C231.241 0.625084 230.601 0.595019 229.991 0.564953H228.671C228.271 0.564953 227.881 0.564953 227.501 0.564953C226.776 0.574489 226.052 0.621319 225.331 0.705259C224.037 0.861343 222.754 1.10238 221.492 1.42683L221.812 1.48696L221.492 1.42683H219.962C218.926 0.955398 217.773 0.805316 216.652 0.995892C215.172 1.10385 213.684 1.06356 212.212 0.87563C209.322 0.745346 206.312 0.174102 203.423 0.87563C201.814 0.911018 200.206 0.860839 198.603 0.725302C196.446 0.476779 194.273 0.393023 192.103 0.474757H177.194L173.684 0.404604H167.554C164.555 0.404604 161.625 0.825521 158.735 0.54491C154.415 0.093928 149.995 0.424648 145.665 0.264299C145.039 0.269931 144.415 0.320167 143.796 0.414626C141.006 0.735525 138.19 0.755683 135.396 0.474757C134.011 0.337775 132.618 0.290908 131.226 0.334452C126.546 0.54491 121.897 0.54491 117.227 0.334452C116.556 0.291376 115.883 0.345381 115.227 0.494801C114.935 0.702333 114.585 0.813794 114.227 0.813794C113.869 0.813794 113.519 0.702333 113.227 0.494801C111.883 0.0922503 110.468 -0.0171001 109.077 0.174102C106.817 0.364517 108.517 0.835542 107.977 1.17628C107.867 1.23642 107.857 1.31659 107.807 1.38674C106.477 0.695237 104.498 0.384561 101.668 0.494801C99.2878 0.534888 96.898 0.32443 94.4681 0.184124C90.7356 -0.0613748 86.9911 -0.0613748 83.2587 0.184124C80.0927 0.452085 76.9123 0.505657 73.7392 0.344473C72.6192 0.294364 71.4193 0.344473 70.2793 0.344473C66.8176 0.590715 63.341 0.53035 59.8899 0.164081C58.6253 0.019368 57.3505 -0.014166 56.08 0.0638625C51.4136 0.344473 46.6805 0.481438 41.8808 0.474757C40.8496 0.495281 39.818 0.458478 38.7909 0.364517C36.4881 0.179112 34.1741 0.179112 31.8713 0.364517C30.0014 0.394582 28.0015 0.43467 26.0516 0.414626C24.1017 0.394582 21.9218 0.294364 19.8519 0.244255C18.5519 0.244255 17.122 0.314408 15.9521 0.244255C13.1307 -0.00515781 10.2927 0.00155071 7.47251 0.264299C6.63255 0.334452 5.83259 0.364517 5.00264 0.364517H3.7827L2.37277 0.334452L0.222879 0.304386C0.222879 1.34666 0.222879 2.39895 0.222879 3.46126V5.65604C0.222879 7.11922 0.292875 8.57239 0.39287 9.96542C0.585171 12.2002 0.521426 14.4497 0.20288 16.67C-0.0236879 18.0582 -0.0606923 19.4709 0.0928857 20.8692C0.272877 22.8735 0.372871 24.9581 0.40287 27.0326C0.40287 28.8165 0.40287 30.6204 0.40287 32.4143V38.0766V39.4797C1.40392 39.453 2.40566 39.4864 3.40272 39.5799C6.1814 39.8762 8.98361 39.8762 11.7623 39.5799C13.3548 39.4188 14.9595 39.4188 16.552 39.5799C17.5469 39.7071 18.5522 39.7306 19.5519 39.65C21.0665 39.5137 22.5911 39.5339 24.1017 39.7102C25.1993 39.8112 26.3039 39.8112 27.4015 39.7102C28.8786 39.3602 30.414 39.3362 31.9013 39.64C32.7915 39.731 33.6868 39.7611 34.5811 39.7302C35.8811 39.7302 37.221 39.7302 38.5009 39.7302C43.2538 40.0614 48.0254 40.0111 52.7702 39.5799C53.3902 39.5097 54.2701 39.64 55.0201 39.5799C58.7799 39.5799 62.6297 39.9307 66.2595 39.4797C69.8028 39.1225 73.3747 39.1629 76.909 39.5999C81.5335 39.979 86.1802 40.0025 90.8083 39.6701C91.6724 39.5121 92.5621 39.5706 93.3982 39.8405C93.8781 40.0509 94.9181 40.081 95.1181 39.7603C95.4581 39.189 96.118 39.149 97.6479 39.4897C98.3548 39.6391 99.0754 39.713 99.7978 39.7102C103.068 39.64 106.307 39.5198 109.387 39.169L109.087 39.1189H109.427C110.807 39.189 112.427 39.1189 113.517 39.3494C114.952 39.611 116.424 39.5803 117.847 39.2592C119.226 38.9058 120.668 38.8852 122.057 39.1991C123 39.3148 123.953 39.3148 124.897 39.1991C126.949 38.9679 129.019 38.9411 131.076 39.1189C132.59 39.3796 134.136 39.3999 135.656 39.179C136.428 39.1217 137.204 39.1217 137.976 39.179C141.526 39.179 145.086 39.2492 148.605 39.179C151.095 39.1189 153.605 39.0788 155.935 39.2291C158.72 39.4351 161.518 39.3848 164.295 39.0788C165.484 38.9385 167.094 39.0788 168.514 39.0788C169.605 39.1411 170.699 39.1109 171.784 38.9886C172.937 38.6078 174.181 38.6078 175.334 38.9886C175.818 39.0497 176.306 39.0698 176.794 39.0487L181.794 39.179C182.433 39.2145 183.074 39.2145 183.714 39.179C186.729 38.9056 189.759 38.8386 192.783 38.9786C195.333 39.0387 197.923 38.9786 200.493 38.9786C200.743 38.9786 201.193 38.8383 201.193 38.7681C201.193 38.698 200.853 38.5777 200.553 38.5276C200.185 38.4734 199.814 38.4466 199.443 38.4474C195.583 38.4474 191.703 38.3873 187.863 38.2871C185.373 38.2269 182.864 37.7359 180.604 38.4574C180.354 38.4788 180.103 38.4788 179.854 38.4574L173.704 38.247C173.095 38.1985 172.483 38.1985 171.874 38.247C170.038 38.6004 168.156 38.6478 166.304 38.3873C165.814 38.3422 165.32 38.3624 164.835 38.4474C163.165 39.1189 161.625 38.6779 159.835 38.4474C158.435 38.2971 156.755 38.3472 155.215 38.2971C153.826 38.3012 152.438 38.2343 151.055 38.0967C149.577 37.8797 148.076 37.873 146.595 38.0766C143.646 38.3952 140.675 38.4522 137.716 38.247C137.118 38.1847 136.514 38.1847 135.916 38.247C134.859 38.484 133.768 38.5247 132.696 38.3673C129.469 38.1312 126.231 38.0676 122.997 38.1768C117.737 38.6178 112.847 37.6657 107.807 38.1067C106.347 37.6958 105.248 38.3071 103.808 38.2169C102.368 38.1267 100.978 38.2169 99.5578 38.2169H94.9981C92.2582 38.2169 89.4684 37.6457 86.7585 38.2771C86.2526 38.3169 85.7444 38.3169 85.2386 38.2771L80.5588 38.0766L69.6894 37.7058C68.4294 37.7058 67.1395 37.7058 65.8596 37.7058L53.0602 37.786C52.5822 37.7792 52.1063 37.7221 51.6403 37.6156C50.3912 37.3046 49.0814 37.3393 47.8505 37.7158C46.2192 38.1372 44.5326 38.3028 42.8507 38.2069C40.2908 38.1367 37.671 38.1267 35.1111 38.2069C33.8457 38.3129 32.5719 38.1699 31.3613 37.786C30.9506 37.5943 30.5171 37.4562 30.0714 37.3751C29.5915 37.3485 29.1102 37.389 28.6414 37.4953C28.5614 38.1668 26.9615 38.0265 25.5616 37.9864C23.6117 37.9864 21.6718 37.8361 19.7219 37.8261H2.10278L2.16278 36.1023C2.16278 35.2705 2.28277 34.4387 2.40277 33.6169C2.56466 32.4442 2.58145 31.256 2.45277 30.0792C2.05267 25.6206 1.9925 21.1378 2.27277 16.67C2.27277 15.5776 2.46277 14.355 2.05279 13.6635C1.90531 13.4481 1.82638 13.1931 1.82638 12.9319C1.82638 12.6707 1.90531 12.4156 2.05279 12.2003C2.4845 10.9867 2.59812 9.68228 2.38277 8.41204C2.29277 7.21944 2.21278 6.0068 2.17278 4.84427V3.05036V2.09829L3.87269 2.18849C4.74265 2.18849 5.60261 2.29873 6.47256 2.3789C7.84144 2.45549 9.2145 2.39843 10.5724 2.20853C11.7223 2.07825 12.5723 1.64731 13.6922 1.60722C14.7982 1.67191 15.8979 1.81931 16.982 2.04818C17.202 2.04818 17.492 2.04818 17.752 2.04818L26.2716 2.38892C27.1572 2.44917 28.0458 2.44917 28.9314 2.38892C32.7641 1.9721 36.6271 1.91171 40.4708 2.20853C42.0908 2.28871 43.8407 2.20853 45.5306 2.20853C48.684 2.33511 51.8424 2.22792 54.9801 1.88783C55.2279 1.87085 55.4768 1.8877 55.7201 1.93794C57.37 2.2386 60.0298 1.86779 61.0898 2.58936C61.5427 2.61625 61.9968 2.61625 62.4497 2.58936C63.0177 2.53021 63.5892 2.51346 64.1596 2.53925C65.4296 2.76975 65.9696 2.70962 66.3695 2.28871C66.8314 2.07511 67.3311 1.95587 67.8394 1.93794C69.3167 2.04291 70.8007 1.99927 72.2692 1.80766C73.7638 1.8421 75.2556 1.95248 76.739 2.13838C77.349 2.13838 78.0289 2.13838 78.6689 2.13838C81.3369 1.96998 84.0146 2.04714 86.6685 2.36888C87.1744 2.40868 87.6826 2.40868 88.1884 2.36888C93.7081 2.18849 99.1879 2.0582 104.778 2.28871C106.567 2.36888 107.367 2.09829 108.047 1.44687C109.677 1.64731 111.427 1.79764 112.917 2.06823C114.052 2.3287 115.232 2.3287 116.367 2.06823C117.367 1.85777 118.637 1.77759 119.787 1.63729C121.623 2.27029 123.596 2.39493 125.497 1.99807C126.466 1.87774 127.447 1.87774 128.416 1.99807C129.934 2.30891 131.504 2.25395 132.996 1.83772C134.04 1.54493 135.139 1.51737 136.196 1.75755C137.866 2.09606 139.586 2.09606 141.256 1.75755C142.434 1.43588 143.677 1.43588 144.856 1.75755C145.342 1.76879 145.828 1.72848 146.305 1.63729C146.225 1.15624 147.035 1.07607 148.145 1.33663C150.707 1.94997 153.375 1.96711 155.945 1.38674C157.63 0.974356 159.4 1.09336 161.015 1.72748C162.001 2.0626 163.048 2.1822 164.085 2.07825C166.724 1.89785 169.444 1.74753 171.914 1.43685C172.958 1.33047 174.01 1.33047 175.054 1.43685C177.174 1.54709 179.324 2.11834 181.604 1.53707C181.952 1.48593 182.305 1.48593 182.654 1.53707C183.654 1.66735 184.993 2.16844 184.964 1.33663C185.271 1.3376 185.578 1.35768 185.883 1.39676C186.508 1.67514 187.162 1.88028 187.833 2.0081C190.103 1.84775 192.833 2.31877 194.703 1.62727C195.6 2.00595 196.572 2.17063 197.543 2.10831C199.693 2.19851 199.813 2.21855 199.993 1.53707C200.063 1.2765 200.273 1.22639 200.993 1.18631C201.713 1.14622 202.473 1.05602 203.213 0.98587C203.163 1.4569 203.883 1.69742 205.602 1.64731L205.432 2.41899L207.342 1.86779C207.862 1.86779 208.402 1.86779 208.892 1.86779C210.947 1.56258 213.039 1.59982 215.082 1.97803C215.162 1.97803 216.152 1.75755 216.722 1.63729L216.422 1.58718H216.762C217.78 1.84857 218.854 1.78195 219.832 1.39676C221.432 2.21855 221.772 2.22858 223.482 1.56714C223.998 1.34633 224.555 1.23251 225.116 1.23251C225.678 1.23251 226.234 1.34633 226.751 1.56714C227.619 1.94015 228.558 2.11804 229.501 2.08827H229.991H230.371V2.41899V2.84993C230.371 3.35102 230.371 3.85211 230.371 4.3532C230.349 5.2998 230.221 6.24097 229.991 7.15931C229.993 7.4953 230.023 7.83054 230.081 8.16149C230.193 9.07573 230.243 9.99649 230.231 10.9175C230.1 11.9095 230.185 12.9182 230.481 13.8739C230.839 14.7767 230.871 15.7763 230.571 16.7001L230.511 16.9707L230.561 16.66C230.561 15.8582 230.421 14.9763 230.141 15.4073C229.888 16.0445 229.762 16.7256 229.771 17.4116C229.771 18.3236 230.031 19.416 229.961 20.1877C229.75 22.5868 229.66 24.9951 229.691 27.4034C229.691 28.8465 229.691 30.2796 229.691 31.7128C229.657 32.5835 229.7 33.4555 229.821 34.3184C230.228 34.6918 230.736 34.9359 231.281 35.02C231.281 35.02 231.281 34.3886 231.331 34.0178C231.481 30.8609 231.621 27.704 231.771 24.5472C231.851 22.7232 231.941 20.8892 231.981 19.0552C232.061 15.6077 231.781 12.1802 231.991 8.74276ZM1.23283 26.4814V25.9703C1.23283 26.0605 1.23283 26.1607 1.23283 26.2409C1.24308 26.3207 1.24308 26.4015 1.23283 26.4814ZM11.7123 1.31659C11.7123 1.31659 11.6623 1.31659 11.6423 1.25646H12.1123C11.9802 1.28435 11.8467 1.30443 11.7123 1.31659ZM62.2297 1.99807C62.1503 1.98004 62.0732 1.95315 61.9997 1.9179L62.4097 1.75755L62.7797 1.86779C62.5995 1.92369 62.4158 1.96722 62.2297 1.99807ZM82.1087 1.57716C81.5801 1.51262 81.0582 1.40196 80.5488 1.24644C81.0106 1.04013 81.4984 0.898492 81.9987 0.825521C82.6173 0.900367 83.2248 1.04838 83.8086 1.26648C83.251 1.40847 82.6823 1.50235 82.1087 1.54709V1.57716ZM140.276 1.46692C140.096 1.46692 139.916 1.46692 139.746 1.40679L140.176 1.2765C140.283 1.30534 140.387 1.34566 140.486 1.39676C140.486 1.39676 140.336 1.43685 140.276 1.43685V1.46692ZM195.273 1.53707C195.073 1.58672 194.869 1.62024 194.663 1.63729C194.713 1.56714 194.663 1.48696 194.823 1.43685C194.983 1.38674 195.323 1.34666 195.583 1.29655C195.489 1.38412 195.381 1.45526 195.263 1.507L195.273 1.53707Z" fill="#D87979"/>
<path d="M230.522 38.668C230.582 38.5978 230.662 38.5577 230.672 38.4274C230.673 38.2359 230.656 38.0446 230.622 37.8562L230.402 38.207L230.502 38.668C230.321 38.6294 230.137 38.6126 229.952 38.6179C227.801 38.8484 225.632 38.8484 223.482 38.6179C222.782 38.5477 221.942 38.6179 220.842 38.5577C219.992 38.5577 218.842 38.6179 217.692 38.688C217.482 38.688 217.362 38.8484 217.202 38.9285C217.42 38.9733 217.64 39.0034 217.862 39.0187C219.862 39.0187 222.072 39.0187 223.982 39.149C226.135 39.2801 228.296 39.2332 230.442 39.0087C230.683 38.9687 230.918 38.898 231.142 38.7983L230.522 38.668Z" fill="#D87979"/>
<path d="M208.182 39.3494C207.942 39.3494 207.452 39.2692 207.022 39.1891C206.862 39.1891 206.732 39.0688 206.762 39.0087C206.792 38.9485 206.992 38.8684 207.182 38.8483C207.564 38.8018 207.948 38.7851 208.332 38.7982C209.332 38.8784 210.682 38.4475 211.492 38.9085C211.902 39.139 210.442 39.3494 208.182 39.3494Z" fill="#D87979"/>
<path d="M214.562 38.6277C214.882 38.7479 215.322 38.8883 215.292 38.8983C214.842 39.0432 214.38 39.1472 213.912 39.209C213.572 39.1614 213.237 39.0808 212.912 38.9684L214.562 38.6277Z" fill="#D87979"/>
<path d="M203.593 38.4875L205.143 38.7281C204.851 38.8628 204.541 38.954 204.223 38.9987C203.81 38.9833 203.399 38.9363 202.993 38.8584L203.593 38.4875Z" fill="#D87979"/>
</svg>
