<svg width="16" height="16" viewBox="0 0 16 16" fill="none" xmlns="http://www.w3.org/2000/svg">
<path d="M12.92 4.59009C13.86 5.57009 14.79 6.70009 16 8.00009C15.25 8.31009 14 10.6601 12.85 11.6901C12.64 11.5701 12.72 11.6901 12.27 11.2501C12.16 11.2501 11.95 11.0001 11.77 10.6801V10.6101C11.77 10.3901 11.88 10.5301 11.95 10.0601C12.037 10.027 12.133 10.027 12.22 10.0601C12.3012 9.96964 12.3748 9.87264 12.44 9.77009V9.82009C12.6 9.72009 12.62 8.95009 13.31 8.58009C13.4795 8.41643 13.6124 8.21877 13.7 8.00009C14.15 7.00009 9.87 5.70009 12.92 4.59009Z" fill="white"/>
<path d="M12.41 7.75006C12.41 7.63006 12.41 7.34006 12.01 7.20006C12.01 7.14006 12.01 7.20006 12.01 7.07006C11.4276 6.93582 10.8224 6.93582 10.24 7.07006C10.17 7.17006 9.44999 6.81006 9.14999 7.02006C8.77999 6.94006 9.07999 7.02006 8.14999 7.02006C7.98661 7.03877 7.82131 7.03202 7.65999 7.00006C6.17999 6.54006 3.37999 8.81006 6.99999 8.75006C7.31867 8.87088 7.66039 8.91872 7.99999 8.89006C8.87999 8.70006 10.2 8.95006 11.61 8.76006C11.61 8.76006 11.88 8.83006 12.02 8.63006C12.02 8.63006 12.02 8.55006 12.02 8.41006C12.1344 8.3408 12.23 8.24428 12.298 8.12912C12.3661 8.01395 12.4045 7.88372 12.41 7.75006Z" fill="white"/>
<path d="M11.21 12.9399C11.0567 12.9499 10.9071 12.9907 10.77 13.0599C10.5022 13.4814 10.36 13.9705 10.36 14.4699C10.2408 14.4899 10.1192 14.4899 10 14.4699C8 13.9499 5.46 14.3699 1.68 14.3799C1.85 11.2099 1.44 6.5699 1.77 1.9999C1.78698 1.9445 1.78698 1.88529 1.77 1.8299C2.98 1.2299 4.14 2.2799 10.29 1.7299C10.3075 1.97292 10.3075 2.21688 10.29 2.4599C10.3208 2.51797 10.3475 2.57812 10.37 2.6399C10.5075 2.725 10.6321 2.82939 10.74 2.9499C11.0098 3.01228 11.2902 3.01228 11.56 2.9499C11.5953 2.90203 11.6395 2.86131 11.69 2.8299C11.6941 2.78332 11.6941 2.73647 11.69 2.6899C11.6648 2.61872 11.6648 2.54107 11.69 2.4699C11.79 1.4699 11.69 2.1499 11.89 0.169899C10.8813 -0.00317864 9.84448 0.1005 8.89 0.469899L7.29 0.439899C4.26 -0.000101268 4.2 -0.000101268 0.27 0.319899C0 3.0499 0.49 4.6999 0.13 10.3299C0.142083 10.6681 0.098157 11.006 0 11.3299L0.12 11.8199C-0.012901 12.7137 0.0554278 13.6259 0.32 14.4899C0.46 14.9999 -0.48 15.1399 0.61 15.8399C3.98 15.8399 6.87 15.8399 11.7 15.8399C11.53 15.0299 12.16 14.7199 11.51 12.9499L11.21 12.9399Z" fill="white"/>
</svg>
