<svg width="108" height="2" viewBox="0 0 108 2" fill="none" xmlns="http://www.w3.org/2000/svg">
<path d="M107.9 1.17C107 -2.5034e-06 104.6 0.229998 103.29 0.199998C100.97 0.149998 98.63 0.309998 96.29 0.299998C92.9 0.279998 89.5 0.159998 86.09 -2.48104e-06C81.45 -0.160002 76.84 0.199998 72.22 0.279998C70 0.349998 67.84 0.219997 65.65 0.239998C63.15 0.239998 60.65 0.409998 58.16 0.309998C55.89 0.219998 53.63 -0.0600025 51.34 -2.48104e-06C49.05 0.0599975 46.58 0.199998 44.2 0.259998C41.82 0.319998 39.46 0.339998 37.1 0.329998C34.74 0.319998 32.59 0.129998 30.33 0.179998C28.07 0.229998 25.7 0.359998 23.38 0.349998C21.06 0.339998 18.58 0.189998 16.18 0.209998C13.94 0.229998 11.72 0.0999975 9.49002 0.0899975C7.26002 0.0799975 4.93002 0.319998 2.64002 0.309998C2.03057 0.222176 1.41271 0.208744 0.800022 0.269998C0.550022 0.349998 2.16439e-05 0.699997 2.16439e-05 0.999997C-0.0799784 1.62 0.450022 1.7 0.890022 1.72C2.75002 1.79 4.59002 1.78 6.45002 1.72C8.73669 1.65333 11.0267 1.62 13.32 1.62C16.49 1.62 19.66 1.77 22.83 1.89C25.58 2 28.35 1.67 31.12 1.67C34.31 1.67 37.49 1.8 40.68 1.78C43.57 1.78 46.48 1.67 49.37 1.78C51.45 1.84 53.5 1.64 55.57 1.87C57.4812 2.13006 59.4188 2.13006 61.33 1.87C63.3554 1.69969 65.3895 1.65961 67.42 1.75C68.7534 1.71 70.0867 1.69 71.42 1.69C74 1.69 76.6 1.64 79.18 1.77C83.18 1.96 87.18 1.77 91.18 1.77C95.18 1.77 99.29 1.77 103.33 1.85C104.33 1.85 105.33 1.95 106.27 1.98C106.58 1.91 108.44 1.86 107.9 1.17Z" fill="#EAEAE8"/>
</svg>
