<svg width="88" height="16" viewBox="0 0 88 16" fill="none" xmlns="http://www.w3.org/2000/svg">
<path d="M87.9999 5.25997C87.9798 5.31306 87.9383 5.36148 87.8799 5.39997L87.6699 5.5333C87.6699 5.57997 87.6699 5.6333 87.6699 5.68664C87.6699 6.7533 87.5099 8.25997 87.6099 8.94664C87.6143 8.95981 87.6143 8.97346 87.6099 8.98663C86.6099 9.72663 87.2099 11.6533 87.4899 12.62C87.4843 12.6465 87.4843 12.6734 87.4899 12.7C87.4851 12.7555 87.4851 12.8111 87.4899 12.8666C87.4873 13.1797 87.4234 13.4912 87.2999 13.7933C87.1923 13.9873 87.1414 14.1932 87.1499 14.4C87.125 14.5439 87.125 14.6893 87.1499 14.8333C87.1259 14.9325 87.0719 15.0274 86.9911 15.1122C86.9103 15.197 86.8044 15.27 86.6799 15.3266C86.2924 15.4071 85.8774 15.4071 85.4899 15.3266C85.4619 15.3677 85.4204 15.4039 85.3684 15.4328C85.3165 15.4616 85.2555 15.4823 85.1899 15.4933C84.8624 15.5519 84.5175 15.5519 84.1899 15.4933C84.1164 15.5092 84.0506 15.538 83.9996 15.5767C83.9486 15.6155 83.9141 15.6626 83.8999 15.7133C83.8741 15.733 83.8538 15.7555 83.8399 15.78C83.2299 15.78 82.5899 15.78 81.9699 15.78L81.4999 15.7466C81.1703 15.6998 80.8361 15.6686 80.4999 15.6533H80.2799L79.8499 15.7533L79.5699 15.84C79.5203 15.846 79.4695 15.846 79.4199 15.84C79.5999 15.94 79.0799 15.8866 78.4199 15.8066H78.2099C78.1216 15.8323 78.0263 15.8456 77.9299 15.8456C77.8336 15.8456 77.7382 15.8323 77.6499 15.8066C77.2633 15.7355 76.8733 15.6755 76.4799 15.6266H75.9999L74.7599 15.5733C74.3999 15.6533 73.8999 15.6933 73.6799 15.5266H73.4999C73.0063 15.485 72.5182 15.4181 72.0399 15.3266C71.4799 15.44 70.9199 15.5466 70.3499 15.6266C70.253 15.6501 70.1468 15.6501 70.0499 15.6266C69.7699 15.6266 69.3399 15.6266 68.8499 15.5933H68.7299C68.1699 15.5933 67.5499 15.5533 67.0099 15.5466C66.7269 15.493 66.4341 15.4661 66.1399 15.4666H65.9099C65.5499 15.4666 65.1899 15.5066 64.8399 15.5333H64.7499H64.6199C64.5223 15.5535 64.4309 15.5851 64.3499 15.6266C64.3116 15.5689 64.2445 15.5218 64.1599 15.4933L62.9399 15.5466C61.8599 15.76 56.5999 15.3866 55.0299 15.4266C55.0309 15.4593 55.0481 15.4907 55.0789 15.5161C55.1097 15.5414 55.1523 15.5592 55.1999 15.5666C54.9883 15.5941 54.7747 15.6141 54.5599 15.6266L54.3599 15.58H54.4199C53.5794 15.4701 52.7133 15.4815 51.8799 15.6133C46.8799 15.5733 43.2099 15.46 39.1199 15.4133C39.4799 15.6466 35.1799 15.2866 33.5599 15.5133C33.9199 15.4266 26.1999 15.2933 25.4699 15.3466C21.6699 14.8266 16.8699 15.4 13.0799 15.6466H12.8699C12.1985 15.6497 11.5284 15.6073 10.8699 15.52C10.5629 15.5663 10.2525 15.6019 9.93991 15.6266C9.82991 15.6266 9.72991 15.6266 9.61991 15.6266C9.55636 15.631 9.49213 15.6262 9.43169 15.6124C9.37124 15.5985 9.31604 15.5761 9.26991 15.5466C8.44611 15.5467 7.62582 15.475 6.82991 15.3333C4.82991 15.38 2.82991 15.28 0.759915 15.2466C1.18991 13.54 0.279914 10.8333 0.589915 8.71997C0.589915 8.83997 0.659915 8.95997 0.689915 9.07997C0.859915 8.4133 0.179915 7.67997 0.119915 6.98663C0.0507134 7.09598 0.0265482 7.21565 0.0499145 7.3333C-0.190085 5.7933 0.569915 4.19997 0.159915 2.48664C0.159915 2.5533 0.289915 0.486635 1.33991 0.0133021H1.44991C1.87991 0.0133021 2.33991 0.219969 2.74991 0.159969C3.66991 0.219969 4.81991 0.379969 5.36991 0.393302C6.99991 0.419969 8.23991 0.253302 9.59991 0.233302C11.6999 0.233302 14.1099 0.319969 15.5299 0.299969C16.5299 0.299969 19.3599 0.139969 20.0399 0.0599688C20.1265 0.0465336 20.2104 0.0263969 20.2899 -3.1231e-05C20.7461 -0.0200091 21.2037 -0.0200091 21.6599 -3.12328e-05H21.7299L21.8999 0.0666354H21.5899C27.9999 0.353302 35.9999 0.399969 40.3099 0.346635C40.5899 0.253302 42.3099 0.493302 42.1899 0.399969C41.9546 0.36209 41.7289 0.301447 41.5199 0.219969C42.8424 0.360056 44.1812 0.4203 45.5199 0.399969C45.6666 0.347104 45.8344 0.326126 45.9999 0.339969L46.9999 0.393302C47.1052 0.421204 47.2167 0.436984 47.3299 0.439969H47.5399H47.8299H47.9299H49.8199H50.6599H50.7199C50.8299 0.439969 50.9399 0.439969 51.0499 0.439969C52.3899 0.579969 52.8899 0.179969 54.0499 0.0999688C53.9699 0.133302 53.9499 0.186635 54.0499 0.266635C54.6761 0.0746598 55.3824 0.0322845 56.0499 0.146635C56.0499 0.199969 56.3399 0.279969 56.7899 0.359969C57.4539 0.311396 58.1227 0.29802 58.7899 0.319969C59.1877 0.264683 59.5937 0.240077 59.9999 0.246635C60.5799 0.193302 61.1799 0.166635 61.7899 0.139969C62.2664 0.0927656 62.7491 0.0793575 63.2299 0.0999688C63.9899 0.0999688 64.7499 0.0999688 65.4899 0.0999688L65.3099 0.0533021L65.4999 -3.12328e-05C67.1199 0.0599688 68.8099 0.0733021 70.4999 0.0799688C71.8099 0.0799688 73.1199 0.0799688 74.4199 0.0799688C75.2599 0.0799688 77.0799 0.479969 78.8899 0.239969H79.0499C79.0998 0.243101 79.15 0.243101 79.1999 0.239969L79.7399 0.153302C79.9799 0.153302 80.2299 0.0999688 80.4699 0.0599688H80.6599C80.7703 0.0812769 80.8865 0.0858328 80.9999 0.0733021H81.3099C81.6199 0.0733021 81.7799 0.106635 81.6599 0.113302C81.5399 0.119969 85.8199 0.286635 85.7299 0.266635C86.0899 0.359969 87.1399 0.119969 87.4399 0.266635C87.5399 0.319969 87.5499 0.553302 87.5299 0.839969V0.899969C87.5299 0.899969 87.5299 0.899969 87.5299 0.946635C87.5299 0.993302 87.5299 0.979969 87.5899 0.999969C87.6499 1.01997 87.5899 0.999969 87.5899 1.0333C87.5899 1.06664 87.5899 1.0333 87.5899 1.0333C87.5899 1.2533 87.5299 1.3133 87.4899 1.3133C87.4499 1.3133 87.3899 1.41997 87.3299 1.4733L87.2699 1.7733C87.3155 1.81617 87.34 1.86742 87.3399 1.91997C87.3399 1.91997 87.3399 1.98664 87.3399 2.01997C87.4846 2.50254 87.525 2.99643 87.4599 3.48664C87.4944 3.51794 87.5193 3.55352 87.533 3.59128C87.5468 3.62905 87.5491 3.66826 87.5399 3.70664C87.7393 4.17282 87.8929 4.64715 87.9999 5.12664C87.9999 5.12664 87.9999 5.16664 87.9999 5.18664V5.25997Z" fill="#B0DCEF"/>
</svg>
