<svg width="296" height="2" viewBox="0 0 296 2" fill="none" xmlns="http://www.w3.org/2000/svg">
<path d="M295.822 1.22005C294.04 0.340047 291.711 0.420047 289.696 0.360047C286.476 0.280047 283.255 0.160047 280.035 0.250047C273.814 0.410047 267.551 0.330047 261.329 0.250047C252.518 0.250047 243.72 0.0800469 234.909 -0.0199531C222.315 -0.169953 209.735 0.290047 197.155 0.280047C191.084 0.280047 185.014 0.190047 178.929 0.210047C172.516 0.210047 166.116 0.370047 159.744 0.280047C153.372 0.190047 147.095 -0.129953 140.764 -0.0199531C134.433 0.0900469 128.02 0.240047 121.661 0.300047C115.303 0.360047 108.903 0.380047 102.476 0.370047C96.5013 0.370047 90.4443 0.150047 84.442 0.180047C71.8072 0.240047 59.1861 0.330047 46.5924 0.230047L28.435 0.100047C21.9257 0.0600469 15.485 0.310047 9.00314 0.320047C7.63277 0.320047 6.18018 0.320047 4.7687 0.320047C3.37154 0.162836 1.94187 0.308894 0.657586 0.740047C-1.41167 1.65005 2.2061 1.74005 2.94611 1.74005C8.42759 1.82005 13.8131 1.74005 19.2672 1.74005C25.0228 1.68005 30.7738 1.65005 36.5202 1.65005C45.1261 1.65005 53.7183 1.80005 62.3106 1.93005C69.3543 2.03005 76.398 1.70005 83.4417 1.70005C91.2528 1.70005 99.0639 1.86005 106.889 1.83005C114.714 1.80005 122.607 2.00005 130.445 1.79005C142.244 1.45005 154.016 2.13005 165.815 1.91005C167.706 1.91005 169.556 1.69005 171.447 1.73005C174.654 1.79005 177.874 1.83005 181.039 1.79005C185.479 1.74005 189.906 1.68005 194.346 1.68005C200.115 1.68005 205.898 1.68005 211.681 1.68005C223.11 1.78005 234.539 1.73005 245.94 1.74005C257.999 1.74005 270.059 1.92005 282.104 1.82005C284.955 1.82005 287.805 1.91005 290.655 1.95005C291.683 1.95005 292.697 2.01005 293.711 1.95005C294.136 2.00005 296.685 1.64005 295.822 1.22005Z" fill="#ECECEA"/>
</svg>
