<svg width="88" height="2" viewBox="0 0 88 2" fill="none" xmlns="http://www.w3.org/2000/svg">
<path d="M87.9188 1.17C87.1854 -2.5034e-06 85.2299 0.229998 84.1625 0.199998C82.2721 0.149998 80.3654 0.309998 78.4588 0.299998C75.6965 0.279998 72.9262 0.159998 70.1476 -2.48104e-06C66.3669 -0.160002 62.6106 0.199998 58.8462 0.279998C57.0373 0.349998 55.2773 0.219997 53.4928 0.239998C51.4558 0.239998 49.4188 0.409998 47.3899 0.309998C45.5402 0.219998 43.6988 -0.0600025 41.8328 -2.48104e-06C39.9669 0.0599975 37.9543 0.199998 36.015 0.259998C34.0758 0.319998 32.1528 0.339998 30.2299 0.329998C28.3069 0.319998 26.555 0.129998 24.7136 0.179998C22.8721 0.229998 20.941 0.359998 19.0506 0.349998C17.1602 0.339998 15.1395 0.189998 13.1839 0.209998C11.3588 0.229998 9.54986 0.0999975 7.73283 0.0899975C5.91579 0.0799975 4.01727 0.319998 2.15135 0.309998C1.65476 0.222176 1.15131 0.208744 0.652086 0.269998C0.448383 0.349998 0.00023465 0.699997 0.00023465 0.999997C-0.0649505 1.62 0.366901 1.7 0.72542 1.72C2.24098 1.79 3.74023 1.78 5.25579 1.72C7.119 1.65333 8.98493 1.62 10.8536 1.62C13.4365 1.62 16.0195 1.77 18.6025 1.89C20.8432 2 23.1002 1.67 25.3573 1.67C27.9565 1.67 30.5476 1.8 33.1469 1.78C35.5017 1.78 37.8728 1.67 40.2276 1.78C41.9225 1.84 43.5928 1.64 45.2795 1.87C46.8368 2.13006 48.4156 2.13006 49.9728 1.87C51.6231 1.69969 53.2806 1.65961 54.935 1.75C56.0215 1.71 57.1079 1.69 58.1943 1.69C60.2965 1.69 62.4151 1.64 64.5173 1.77C67.7765 1.96 71.0358 1.77 74.2951 1.77C77.5543 1.77 80.9032 1.77 84.1951 1.85C85.0099 1.85 85.8247 1.95 86.5906 1.98C86.8432 1.91 88.3588 1.86 87.9188 1.17Z" fill="white"/>
</svg>
