<svg width="184" height="2" viewBox="0 0 184 2" fill="none" xmlns="http://www.w3.org/2000/svg">
<path d="M183.889 1.22005C182.782 0.340047 181.334 0.420047 180.081 0.360047C178.08 0.280047 176.078 0.160047 174.076 0.250047C170.209 0.410047 166.316 0.330047 162.448 0.250047C156.971 0.250047 151.502 0.0800469 146.024 -0.0199531C138.196 -0.169953 130.376 0.290047 122.556 0.280047C118.782 0.280047 115.009 0.190047 111.226 0.210047C107.24 0.210047 103.261 0.370047 99.3004 0.280047C95.3393 0.190047 91.4378 -0.129953 87.5022 -0.0199531C83.5667 0.0900469 79.58 0.240047 75.6274 0.300047C71.6748 0.360047 67.6967 0.380047 63.7015 0.370047C59.9874 0.370047 56.2222 0.150047 52.4911 0.180047C44.637 0.240047 36.7915 0.330047 28.963 0.230047L17.6759 0.100047C13.6296 0.0600469 9.62593 0.310047 5.59667 0.320047C4.74482 0.320047 3.84185 0.320047 2.96444 0.320047C2.09594 0.162836 1.20723 0.308894 0.408889 0.740047C-0.877407 1.65005 1.37148 1.74005 1.83148 1.74005C5.23889 1.82005 8.58667 1.74005 11.977 1.74005C15.5548 1.68005 19.1298 1.65005 22.7019 1.65005C28.0515 1.65005 33.3926 1.80005 38.7337 1.93005C43.1122 2.03005 47.4907 1.70005 51.8693 1.70005C56.7248 1.70005 61.5804 1.86005 66.4445 1.83005C71.3085 1.80005 76.2152 2.00005 81.0878 1.79005C88.4222 1.45005 95.7396 2.13005 103.074 1.91005C104.25 1.91005 105.4 1.69005 106.575 1.73005C108.569 1.79005 110.57 1.83005 112.538 1.79005C115.298 1.74005 118.05 1.68005 120.81 1.68005C124.396 1.68005 127.991 1.68005 131.586 1.68005C138.69 1.78005 145.794 1.73005 152.882 1.74005C160.378 1.74005 167.874 1.92005 175.362 1.82005C177.134 1.82005 178.906 1.91005 180.678 1.95005C181.317 1.95005 181.947 2.01005 182.577 1.95005C182.841 2.00005 184.426 1.64005 183.889 1.22005Z" fill="#8FB23E"/>
</svg>
