<svg width="232" height="40" viewBox="0 0 232 40" fill="none" xmlns="http://www.w3.org/2000/svg">
<path d="M230.72 36.3025C230.72 36.9839 231.1 36.7334 231.17 36.8436C231.08 35.7113 230.62 36.3326 230.72 36.3025Z" fill="#759A21"/>
<path d="M231.29 10.2606C231.29 10.0401 231.29 9.72949 231.29 9.19843C231.02 9.54913 231.06 8.00604 231.2 10.501C231.25 10.3708 231.27 10.3407 231.29 10.2606Z" fill="#759A21"/>
<path d="M231.29 10.2605C231.29 11.3627 231.52 9.54911 231.29 10.2605V10.2605Z" fill="#759A21"/>
<path d="M231.32 6.12227V6.44291V6.64331C231.344 6.596 231.361 6.54533 231.37 6.49301V6.10223C231.37 5.81165 231.42 5.49101 231.44 5.21045C231.44 4.64932 231.52 4.20844 231.58 4.6894C231.45 1.92387 231.29 2.68539 231.03 4.24852L231.15 5.49101L231.32 6.12227Z" fill="#759A21"/>
<path d="M230.63 2.22437L230.73 3.36665C230.819 2.98492 230.784 2.5848 230.63 2.22437Z" fill="#759A21"/>
<path d="M230.81 4.53904C230.61 4.39876 230.81 4.8196 230.95 5.94185L230.73 3.3667C230.62 3.77752 230.4 3.8677 230.81 4.53904Z" fill="#759A21"/>
<path d="M220.202 0.531006C220.102 0.651246 220.772 0.871687 220.892 1.03201L222.132 0.881707C221.492 0.801547 220.292 0.721387 220.202 0.531006Z" fill="#759A21"/>
<path d="M220.892 1.00195L219.002 1.25195C220.692 1.27195 221.002 1.17195 220.892 1.00195Z" fill="#759A21"/>
<path d="M229.86 2.40479C230.04 3.48695 230.22 4.69938 230.39 6.03204C230.22 4.52904 230.05 3.15629 229.88 1.92383H229.57H229.86V2.40479Z" fill="#759A21"/>
<path d="M214.193 0.219971L212.323 0.659971L213.143 0.509971L214.193 0.219971Z" fill="#759A21"/>
<path d="M208.464 0.561122C209.244 0.320641 207.404 0.150301 208.224 0C207.101 0.0537036 205.983 0.201175 204.884 0.440882C206.078 0.336173 207.28 0.376546 208.464 0.561122Z" fill="#759A21"/>
<path d="M203.245 0.719941C203.765 0.659941 204.305 0.549941 204.885 0.439941C204.332 0.494273 203.784 0.587842 203.245 0.719941Z" fill="#759A21"/>
<path d="M215.893 1.19162C215.449 0.945279 214.95 0.817817 214.443 0.821616L215.173 1.18162L215.893 1.19162Z" fill="#759A21"/>
<path d="M216.082 1.19238H215.892C215.921 1.20906 215.954 1.21784 215.987 1.21784C216.021 1.21784 216.054 1.20906 216.082 1.19238Z" fill="#759A21"/>
<path d="M219.092 1.38281L217.002 1.63281L219.002 1.72281C218.902 1.62281 218.552 1.48281 219.092 1.38281Z" fill="#759A21"/>
<path d="M216.982 1.64327L216.252 1.60327L216.022 1.75327L216.982 1.64327Z" fill="#759A21"/>
<path d="M206.604 1.05217C205.671 1.19067 204.728 1.25753 203.784 1.25217C204.904 1.32217 206.064 1.35217 207.174 1.35217C207.324 1.24217 207.814 1.00217 206.604 1.05217Z" fill="#759A21"/>
<path d="M210.783 1.15234H210.593C210.703 1.20234 210.803 1.21234 210.783 1.15234Z" fill="#759A21"/>
<path d="M193.466 1.24243L193.636 1.31243V1.25243L193.466 1.24243Z" fill="#759A21"/>
<path d="M207.354 1.42272C207.967 1.48448 208.586 1.44051 209.184 1.29272C208.557 1.33272 207.891 1.35272 207.184 1.35272C207.104 1.40272 207.084 1.44272 207.354 1.42272Z" fill="#759A21"/>
<path d="M200.365 0.881858C200.805 0.961858 201.305 1.02186 201.825 1.08186C201.353 0.933776 200.859 0.866166 200.365 0.881858Z" fill="#759A21"/>
<path d="M210.303 1.07203H210.433C210.153 1.00203 210.193 1.00203 210.303 1.07203Z" fill="#759A21"/>
<path d="M210.304 1.07202C209.926 1.12324 209.552 1.1967 209.184 1.29202C209.704 1.29202 210.174 1.25202 210.594 1.17202C210.493 1.1524 210.395 1.11874 210.304 1.07202Z" fill="#759A21"/>
<path d="M197.326 1.34185H198.126C197.195 1.26701 196.272 1.11651 195.366 0.891846C194.036 1.05185 193.766 1.18185 193.666 1.29185H197.606L197.326 1.34185Z" fill="#759A21"/>
<path d="M217.412 2.09391L217.302 2.00391C217.252 2.00391 217.302 2.06391 217.412 2.09391Z" fill="#759A21"/>
<path d="M193.526 0.681396L191.706 1.22248L193.106 1.06216L193.526 0.681396Z" fill="#759A21"/>
<path d="M189.157 0.781494L188.077 0.981494L189.007 1.11149L189.157 0.781494Z" fill="#759A21"/>
<path d="M8.87508 34.8395L9.80508 34.7495C9.36508 34.7795 9.08508 34.8095 8.87508 34.8395Z" fill="#759A21"/>
<path d="M5.09649 34.6294L4.90649 34.7094C5.03649 34.7494 5.08649 34.7194 5.09649 34.6294Z" fill="#759A21"/>
<path d="M88.363 1.15219C87.023 0.841573 85.503 0.360611 85.663 0.731352L86.083 1.09207C86.8431 1.03695 87.6068 1.05709 88.363 1.15219Z" fill="#759A21"/>
<path d="M20.7334 3.08618L19.4333 3.32618L19.8234 3.43618L20.7334 3.08618Z" fill="#759A21"/>
<path d="M16.7038 4.59912C17.2926 4.70762 17.8868 4.7844 18.4838 4.82912L16.7038 4.59912Z" fill="#759A21"/>
<path d="M45.5093 34.4581L46.5993 34.0681C44.8993 34.0681 45.6493 34.2781 45.5093 34.4581Z" fill="#759A21"/>
<path d="M6.03642 38.7071C6.29629 38.7065 6.55502 38.6728 6.80642 38.6071C6.93976 38.5671 6.99976 38.5271 6.98642 38.4871C6.53642 38.5571 5.86642 38.6171 6.03642 38.7071Z" fill="#759A21"/>
<path d="M178.388 34.7596H178.688C178.688 34.7596 178.588 34.7496 178.388 34.7596Z" fill="#759A21"/>
<path d="M173.829 1.12195C173.462 1.06319 173.091 1.02314 172.719 1.00195C172.899 1.00195 173.229 1.07195 173.829 1.12195Z" fill="#759A21"/>
<path d="M173.649 0.941845H174.409C174.519 0.921845 174.419 0.881845 173.649 0.941845Z" fill="#759A21"/>
<path d="M18.6035 4.65897C18.5462 4.64207 18.4928 4.61392 18.4464 4.57615C18.4 4.53837 18.3617 4.49174 18.3335 4.43896C18.0835 4.50896 18.0835 4.58897 18.6035 4.65897Z" fill="#759A21"/>
<path d="M45.3093 34.529H45.4093C45.4501 34.5188 45.4858 34.4939 45.5093 34.459L45.3093 34.529Z" fill="#759A21"/>
<path d="M181.318 0.781494L179.628 0.871494C180.198 0.852476 180.769 0.899455 181.328 1.01149C181.288 0.921494 181.008 0.811494 181.318 0.781494Z" fill="#759A21"/>
<path d="M169.66 1.23162C170.29 1.32162 170.06 0.791616 170.41 0.931616C171.11 0.501616 166.24 1.46162 169.66 1.23162Z" fill="#759A21"/>
<path d="M223.521 38.8976L225.281 39.0776L224.151 38.7876L223.521 38.8976Z" fill="#759A21"/>
<path d="M5.80641 24.6693L6.16641 23.4869L6.03641 23.3767C5.85338 23.7816 5.77431 24.226 5.80641 24.6693Z" fill="#759A21"/>
<path d="M10.6747 34.2986L11.4347 34.7886L11.0847 34.3086L10.6747 34.2986Z" fill="#759A21"/>
<path d="M28.452 33.7472C30.222 33.6572 31.262 34.2972 31.042 33.6772C30.222 33.6572 29.272 33.7672 28.452 33.7472Z" fill="#759A21"/>
<path d="M5.7165 9.19843C5.4465 9.54913 5.4765 8.00604 5.6265 10.501C5.6265 10.3708 5.6265 10.3407 5.6965 10.2606C5.7665 10.1804 5.6965 9.72949 5.7165 9.19843Z" fill="#759A21"/>
<path d="M5.69641 10.2605C5.69641 11.3627 5.92641 9.54911 5.69641 10.2605V10.2605Z" fill="#759A21"/>
<path d="M6.09639 6.37271C5.96639 6.17231 5.80639 6.02201 5.54639 6.15227L5.66639 6.35267L5.72639 6.44285C5.72639 6.44285 5.72639 6.56309 5.72639 6.61319C5.72925 6.56313 5.72925 6.51295 5.72639 6.46289V6.41279L5.79639 6.35267C5.79904 6.31281 5.81739 6.27564 5.84739 6.24933C5.8774 6.22302 5.9166 6.20973 5.95639 6.21239C5.99617 6.21505 6.03327 6.23343 6.05952 6.2635C6.08578 6.29357 6.09904 6.33285 6.09639 6.37271Z" fill="#759A21"/>
<path d="M5.0365 5.44092L5.1365 5.78092C5.2065 5.76092 5.2265 5.73092 5.0365 5.44092Z" fill="#759A21"/>
<path d="M5.21648 6.07208C5.00648 5.95183 5.21648 6.16226 5.35648 6.3827C5.26908 6.18775 5.19556 5.98684 5.13648 5.78149C5.03648 5.79151 4.79648 5.75143 5.21648 6.07208Z" fill="#759A21"/>
<path d="M10.9151 5.95193C11.0151 5.82167 10.3551 5.61125 10.2251 5.45093L9.03508 5.60123C9.62508 5.68139 10.8251 5.76155 10.9151 5.95193Z" fill="#759A21"/>
<path d="M10.2249 5.45055L12.0349 5.23055C10.4249 5.20055 10.1249 5.31055 10.2249 5.45055Z" fill="#759A21"/>
<path d="M4.37647 4.52905H4.25647V4.72945C4.39694 5.27846 4.57401 5.81742 4.78647 6.34268C4.58201 5.7552 4.41172 5.15633 4.27647 4.54909L4.37647 4.52905Z" fill="#759A21"/>
<path d="M16.9237 6.26178L18.7937 5.82178L17.9737 5.97178L16.9237 6.26178Z" fill="#759A21"/>
<path d="M22.6529 5.92188C21.8829 6.16236 23.7129 6.3327 22.8929 6.483C24.017 6.41511 25.1339 6.25763 26.2329 6.01206C25.0404 6.12671 23.8383 6.09643 22.6529 5.92188Z" fill="#759A21"/>
<path d="M27.8723 5.76147C27.3523 5.82147 26.8223 5.93147 26.2323 6.04147C26.7851 5.98796 27.3332 5.89438 27.8723 5.76147Z" fill="#759A21"/>
<path d="M15.224 5.29053C15.6674 5.53686 16.1669 5.66433 16.674 5.66053L15.954 5.30053L15.224 5.29053Z" fill="#759A21"/>
<path d="M15.0341 5.29067H15.2141C15.1871 5.27382 15.156 5.26489 15.1241 5.26489C15.0923 5.26489 15.0611 5.27382 15.0341 5.29067Z" fill="#759A21"/>
<path d="M12.0346 5.08952L14.1446 4.83952L12.1446 4.75952C12.2146 4.85952 12.5646 5.00952 12.0346 5.08952Z" fill="#759A21"/>
<path d="M14.1343 4.83949L14.8643 4.86949L15.0943 4.72949L14.1343 4.83949Z" fill="#759A21"/>
<path d="M24.5127 5.43043C25.4462 5.29232 26.389 5.22546 27.3327 5.23043C26.2127 5.16043 25.0527 5.12043 23.9527 5.13043C23.7927 5.24043 23.3127 5.44043 24.5127 5.43043Z" fill="#759A21"/>
<path d="M20.3432 5.33064H20.5232C20.4132 5.28064 20.3232 5.27064 20.3432 5.33064Z" fill="#759A21"/>
<path d="M37.6505 5.24041L37.4905 5.17041C37.4877 5.19031 37.4877 5.21051 37.4905 5.23041L37.6505 5.24041Z" fill="#759A21"/>
<path d="M23.763 5.06006C23.15 4.9983 22.531 5.04228 21.933 5.19006C22.563 5.19006 23.233 5.13006 23.933 5.13006C24.033 5.07006 24.033 5.01006 23.763 5.06006Z" fill="#759A21"/>
<path d="M30.7518 5.60088C30.3118 5.52088 29.8118 5.46088 29.2918 5.40088C29.7639 5.54841 30.2574 5.616 30.7518 5.60088Z" fill="#759A21"/>
<path d="M20.8132 5.41089H20.6832C20.9632 5.50089 20.9232 5.46089 20.8132 5.41089Z" fill="#759A21"/>
<path d="M20.8133 5.41043C21.2433 5.35043 21.5833 5.27043 21.9333 5.19043C21.4133 5.19043 20.9333 5.25043 20.5233 5.31043C20.6241 5.33005 20.7217 5.36372 20.8133 5.41043Z" fill="#759A21"/>
<path d="M37.4513 5.23047H33.5213H33.7913H32.9913C33.922 5.30531 34.845 5.45581 35.7513 5.68047C37.0813 5.47047 37.3613 5.34047 37.4513 5.23047Z" fill="#759A21"/>
<path d="M13.7043 4.38867L13.8143 4.45867C13.8643 4.44867 13.8143 4.41867 13.7043 4.38867Z" fill="#759A21"/>
<path d="M37.5905 5.80158L39.4105 5.2605L38.0105 5.42082L37.5905 5.80158Z" fill="#759A21"/>
<path d="M41.9598 5.70061L43.0398 5.50061L42.1098 5.37061L41.9598 5.70061Z" fill="#759A21"/>
<path d="M222.242 38.8376L221.322 38.9276C221.752 38.8976 222.002 38.8676 222.242 38.8376Z" fill="#759A21"/>
<path d="M230.69 38.0761L230.5 37.7153C230.61 38.1562 230.68 38.4067 230.69 38.0761Z" fill="#759A21"/>
<path d="M145.454 5.75141L145.014 5.39069C144.254 5.44581 143.49 5.42567 142.734 5.33057C144.104 5.64119 145.614 6.12215 145.454 5.75141Z" fill="#759A21"/>
<path d="M211.683 3.1561L211.293 3.0061L210.383 3.3561L211.683 3.1561Z" fill="#759A21"/>
<path d="M214.423 1.88332C213.834 1.77551 213.24 1.69874 212.643 1.65332L214.423 1.88332Z" fill="#759A21"/>
<path d="M185.607 39.2185L184.527 39.5885C186.217 39.5885 185.467 39.3985 185.607 39.2185Z" fill="#759A21"/>
<path d="M224.721 34.97C224.661 34.97 224.391 35.03 224.271 35.07C224.151 35.11 224.081 35.15 224.091 35.19C224.761 35.13 224.761 35.07 224.721 34.97Z" fill="#759A21"/>
<path d="M52.7282 38.9177H52.4282C52.3982 38.9277 52.5282 38.9277 52.7282 38.9177Z" fill="#759A21"/>
<path d="M57.2874 5.3606C57.6174 5.4106 57.9974 5.4406 58.4074 5.4706C58.2274 5.4406 57.8874 5.4106 57.2874 5.3606Z" fill="#759A21"/>
<path d="M57.4675 5.53101H56.7076C56.5976 5.56101 56.6975 5.60101 57.4675 5.53101Z" fill="#759A21"/>
<path d="M58.5973 5.53098H59.8073C59.3173 5.53098 58.8073 5.53098 58.4073 5.53098C58.5773 5.50098 58.6473 5.52098 58.5973 5.53098Z" fill="#759A21"/>
<path d="M229.94 33.5463C229.94 33.5463 229.99 33.6164 230 33.7767C230.01 33.937 230.06 34.5082 230.14 34.3479L230.06 33.5863L230 33.0653L229.84 32.0633C230.02 31.6424 230.18 31.8629 230.3 32.3539C230.458 33.1417 230.515 33.9464 230.47 34.7487C230.62 34.4253 230.744 34.0901 230.84 33.7467C230.84 33.5763 230.91 33.4962 230.93 33.416C230.96 33.3385 230.98 33.2578 230.99 33.1755C231.021 32.8382 230.987 32.4981 230.89 32.1735C230.602 30.941 230.602 29.6585 230.89 28.426L231.06 30.3599C231.8 29.1174 231.53 27.6044 232 25.41C231.76 25.931 230.82 29.7988 230.49 27.5743C230.627 26.69 230.586 25.7872 230.37 24.919C230.84 24.919 230.73 23.7266 230.7 22.2637L231.32 22.3639C231.15 20.7807 230.83 20.901 230.55 19.9691C230.61 18.1955 231.09 17.8348 231.5 17.414C231.6 14.5883 230.73 19.418 230.61 16.0212C230.772 13.7393 230.641 11.446 230.22 9.19755C230.3 8.60637 230.37 8.47611 230.43 8.52621C230.6 9.94906 230.92 9.28773 230.84 6.99314C230.69 7.80477 230.6 8.84685 230.36 7.40397C230.36 7.50417 230.36 7.59435 230.36 7.69455L230.27 7.43403C230.27 7.0733 230.44 7.19355 230.51 7.24365C230.32 5.95106 229.89 7.36389 229.72 4.7687C229.42 4.54825 229.58 3.52621 229.78 1.93302C228.87 1.8228 227.721 1.69254 226.461 1.63242C225.831 1.63242 225.161 1.63242 224.561 1.63242C224.147 1.64768 223.735 1.70475 223.331 1.80276L223.161 1.74264C223.394 1.65288 223.635 1.58904 223.881 1.55226C223.661 1.55226 223.381 1.64244 223.101 1.68252C223.101 1.56228 223.611 1.422 223.461 1.26168C221.479 1.43045 219.506 1.70472 217.552 2.08332L217.402 2.03322L217.492 2.09334L217.072 2.1735L214.413 1.8228C216.412 2.22361 213.863 2.70457 211.673 3.09535C212.373 3.29575 212.963 3.46609 213.363 3.54625L209.873 3.82681C209.444 3.74665 209.803 3.55627 210.373 3.33583L209.733 3.46609C208.484 3.26569 209.134 2.95507 210.023 2.65447L211.283 2.98513C212.143 2.65447 212.953 2.29375 212.773 1.98312C212.395 2.06616 212.01 2.11313 211.623 2.1234C211.853 2.04324 211.993 1.96308 211.893 1.90296C211.535 1.91821 211.182 1.98572 210.843 2.10336L210.043 1.51218L209.853 1.74264L205.284 1.3719C201.992 2.14861 198.652 2.70098 195.286 3.02521C195.746 2.78473 195.586 2.41399 195.106 2.0232C196.406 2.15346 198.235 1.7727 200.175 1.73262C199.895 1.85286 199.835 1.9731 200.335 2.14344C202.675 2.14344 201.975 1.83282 203.335 1.68252C199.555 1.7727 204.424 1.48212 201.695 1.2717C202.435 1.21158 203.105 1.19154 203.694 1.18152C203.015 1.13142 202.355 1.08132 201.695 1.01118H201.785C201.955 1.01118 202.005 1.08132 201.785 1.01118H201.705C201.659 1.07026 201.601 1.11823 201.535 1.15146C200.435 1.0713 201.355 1.05126 201.705 1.01118L197.915 1.21158C198.715 1.26168 199.725 1.21158 201.505 1.21158C201.064 1.39444 200.609 1.54186 200.145 1.65246C199.585 1.55226 199.815 1.39194 200.145 1.3218L195.356 1.8228C195.436 1.50216 194.806 1.48212 193.956 1.422L193.476 1.2216C193.455 1.28197 193.412 1.33215 193.356 1.36188H193.076C193.115 1.39057 193.146 1.42845 193.166 1.4721C192.611 1.60155 192.045 1.68533 191.476 1.7226C191.806 1.7961 192.14 1.84964 192.476 1.88292C191.286 2.0733 188.827 2.00316 187.527 2.18352C187.397 1.89294 187.867 1.61238 190.247 1.6725C188.177 1.18152 187.247 2.0733 185.707 2.21359H185.487C185.877 1.74264 184.487 1.89294 183.068 2.05326C183.083 2.08347 183.108 2.10803 183.138 2.1234C181.998 2.1234 181.048 1.9731 181.508 1.8228H182.088H181.368C183.185 1.46853 185.036 1.3173 186.887 1.3719C185.787 0.86088 186.327 1.43202 184.607 0.830819C186.097 1.5723 178.408 0.83082 180.808 1.58232C179.038 0.89094 177.749 1.29174 175.439 0.700559C175.509 0.8709 176.259 1.0212 174.219 0.94104C174.076 1.00173 173.929 1.05196 173.779 1.09134H173.639H173.749C173.659 1.09134 173.649 1.09134 173.749 1.09134C174.092 1.13537 174.428 1.22291 174.749 1.35186C173.219 1.64795 171.667 1.81553 170.11 1.85286C170.195 1.72952 170.299 1.62116 170.42 1.53222L169.57 2.00316C168.57 1.923 170.16 1.81278 169.52 1.63242L167.89 1.93302C167.849 1.87899 167.793 1.83739 167.73 1.81278L168.5 1.30176C168.075 1.45541 167.637 1.56618 167.19 1.63242C166.42 1.41198 165.55 1.24164 167.53 1.09134L165.011 1.00116C163.386 0.785794 161.743 0.755541 160.111 0.91098C158.901 0.820799 157.112 1.3218 158.112 1.03122L154.112 1.26168V1.1715C151.213 1.1715 148.193 1.48212 145.004 1.40196C145.154 1.40196 145.204 1.29174 145.124 1.18152C146.073 1.35186 146.803 1.4721 147.123 1.24164C146.333 1.15146 145.654 1.09134 145.044 1.06128L144.944 0.9711C144.528 0.930102 144.109 0.930102 143.694 0.9711C142.751 0.831375 141.791 0.851699 140.854 1.03122L141.474 1.1214C142.104 1.1214 142.734 1.04124 143.474 1.03122C143.264 1.1214 143.304 1.25166 142.964 1.29174C142.624 1.33182 141.964 1.19154 141.504 1.1214C139.842 1.27354 138.172 1.30703 136.505 1.2216L136.115 1.00116C136.545 1.00116 137.005 0.94104 137.265 0.93102L131.826 0.740639C131.26 0.688056 130.689 0.728674 130.136 0.86088C128.286 -0.000843853 121.817 0.710579 118.808 0.560278L118.698 0.98112C116.628 0.98112 114.638 1.08132 112.069 1.25166L112.219 1.6224C112.049 1.63275 111.879 1.63275 111.709 1.6224C111.379 1.56513 111.044 1.53497 110.709 1.53222C111.029 1.53222 111.269 1.60236 111.459 1.64244C109.249 1.7727 106.13 1.31178 102.98 1.35186C103.56 1.22609 104.16 1.22609 104.74 1.35186C100.551 0.500158 95.9014 1.96308 92.102 1.35186C91.3399 1.46878 90.5644 1.46878 89.8023 1.35186H90.0323H89.6424C89.2324 1.28172 88.7925 1.21158 88.3326 1.15146C88.6955 1.23721 89.0626 1.3041 89.4324 1.35186C88.7025 1.35186 87.6027 1.35186 86.5129 1.50216L86.0529 1.09134H85.803C84.7331 0.95106 84.9431 1.29174 85.513 1.59234C84.9631 1.66248 84.5132 1.74264 84.0732 1.83282C83.2134 1.18152 81.2237 2.05326 80.0739 1.36188C79.394 1.6725 75.2946 1.6224 74.2348 2.18352C73.0792 2.04246 71.9109 2.04246 70.7553 2.18352L70.2454 1.6725L67.6058 2.36389C65.9961 2.04324 65.3262 1.86288 66.9259 1.4721C63.0765 2.08332 63.7964 1.70256 60.5269 2.30377L60.6869 2.00316C59.5171 2.00316 57.6874 2.45407 56.9375 2.18352C54.3179 1.55226 43.9395 2.09334 37.2606 1.51218C38.5604 2.51419 34.1411 1.0713 33.8711 1.83282C33.4812 1.60236 32.5413 1.46208 33.6312 1.26168C30.2017 1.49214 28.482 0.90096 26.1123 1.54224C25.7124 1.30176 26.8422 1.20156 26.4923 1.06128C26.016 1.18613 25.5195 1.21339 25.0325 1.14144C24.6826 1.01118 25.5424 0.95106 26.0324 0.85086C22.5329 0.85086 22.173 1.60236 21.923 2.27371C20.6383 1.9496 19.2874 2.00528 18.0336 2.43403C17.4137 2.22361 16.3839 1.99314 18.5635 1.91298C17.3337 1.91298 11.0847 1.59234 10.9547 2.1234C10.2917 2.02565 9.61803 2.02565 8.95504 2.1234H5.95551C4.95567 2.1234 3.95582 2.1234 2.15611 2.1234L3.23594 2.20357C2.87038 2.44041 2.44117 2.55931 2.00613 2.54425C2.00613 3.39595 1.82616 4.32781 1.88615 5.88092L1.74617 5.81078L1.59619 7.27371C1.59619 7.62441 1.59619 7.90497 1.5462 8.12541C1.53627 8.4269 1.553 8.72868 1.59619 9.02721C1.67077 10.0341 1.60006 11.0465 1.38623 12.0332L1.85615 11.8028C2.856 12.1935 1.26625 15.5703 1.64619 18.0352L1.91614 17.1434C2.25609 18.5262 0.546359 20.941 0.426377 22.2937C0.336392 22.5843 0.286399 21.8328 0.21641 21.412C-0.373497 24.9591 0.826315 21.8729 0.976291 24.5182C0.646343 25.0493 0.136423 23.8869 0.0364387 25.6605C-0.233519 26.5523 1.10627 30.8208 0.466371 33.2457C0.72633 32.7146 0.976291 32.1835 1.16626 33.406C1.35623 34.6284 1.03628 36.4921 0.866308 38.4761C1.86615 38.5463 2.96598 38.5863 3.99582 38.5763C4.88288 38.5949 5.76899 38.5074 6.6354 38.3158C6.91536 38.3759 7.01534 38.436 7.02534 38.4861C8.49511 38.3358 11.5746 38.2256 12.9744 37.935C13.2644 37.935 13.5643 38.0252 13.8743 38.0553C14.8741 38.4461 16.9938 38.3258 18.9935 38.1755C18.7935 38.2356 18.6335 38.2957 18.8235 38.3759C19.2469 38.2249 19.6865 38.124 20.1333 38.0753H20.7232C21.4926 38.0361 22.2634 38.0361 23.0328 38.0753L22.7929 38.1555H23.5427C23.5863 38.1802 23.6235 38.2149 23.6513 38.2566C23.6791 38.2984 23.6967 38.3461 23.7027 38.396L28.8119 38.3258L28.6819 38.4561C29.7557 38.4987 30.8311 38.472 31.9014 38.3759C33.6612 38.4661 35.6208 38.5663 38.1605 38.6465L37.7705 38.3459H38.8803C39.3903 38.406 39.6702 38.4761 40.0901 38.5362C40.5201 38.3859 40.4601 38.3058 40.1701 38.2657H40.6001C43.7896 38.3659 48.1689 38.1655 49.0787 38.8168C50.5785 38.8168 49.7886 38.6064 49.7586 38.4761H51.0584L51.2584 38.5563L51.3884 38.4861C52.0983 38.4861 52.8082 38.4861 53.528 38.4861C53.868 38.5964 54.058 38.7166 54.0779 38.8168C53.728 38.8168 53.0781 38.8769 52.6882 38.897C54.6293 39.02 56.5762 39.02 58.5173 38.897L56.5176 38.7567C58.2573 38.6966 60.117 38.6765 62.0067 38.6665C64.7063 38.8368 67.1959 39.0172 68.6957 38.6665C71.2353 38.6665 73.6949 38.5663 75.9645 38.3759L75.5146 38.1855C76.8424 38.0383 78.1801 38.0015 79.514 38.0753C79.5639 38.0753 79.5939 38.1354 79.5839 38.1755H81.1737C81.7336 38.1755 82.4335 38.1755 83.3733 38.1755H84.0232H83.9433H84.0732C85.373 38.1755 86.6628 38.1755 87.9426 38.2356C88.5325 38.3559 89.2224 38.4761 88.3226 38.6064C90.2023 38.4661 90.9922 38.3859 91.4321 38.3058C96.1613 38.426 100.821 38.5663 105.37 38.5763L104.79 38.2056C105.649 38.1145 106.517 38.1859 107.35 38.416C106.987 38.4411 106.623 38.4411 106.26 38.416C106.711 38.5284 107.179 38.5523 107.64 38.4861H107.73L107.84 38.436C108.527 38.3892 109.203 38.2302 109.839 37.9651C113.839 38.2056 108.259 38.6765 109.499 38.6966L111.179 38.6465L110.799 38.5763C111.569 38.436 111.949 38.2857 112.579 38.1955C113.447 38.3094 114.323 38.363 115.198 38.3559C114.778 38.3559 114.748 38.416 114.338 38.406C114.87 38.4661 115.407 38.4661 115.938 38.406C116.014 38.4482 116.102 38.4657 116.188 38.4561C116.188 38.4561 116.398 38.5262 117.188 38.4561L120.188 38.5062C121.327 38.7667 124.527 38.0152 123.377 38.7366C125.047 37.8148 127.476 38.8469 130.296 38.1455L130.106 38.5463C130.829 38.4106 131.561 38.3302 132.296 38.3058L130.816 38.8268C133.096 38.3859 135.215 39.2076 137.405 38.9671C132.816 38.9671 136.405 38.4861 134.405 38.1955C139.934 37.6745 137.775 39.1976 143.604 39.0573C142.604 39.0573 140.934 38.7867 142.104 38.6264C143.294 38.6793 144.477 38.8268 145.644 39.0673C149.833 38.9871 144.994 38.6565 146.783 38.416C147.963 38.8168 148.613 38.416 149.853 38.1855C150.133 38.2197 150.41 38.2733 150.683 38.3459V38.4661C153.362 38.6164 153.432 38.3258 153.742 38.1054C154.381 38.1202 155.02 38.0529 155.642 37.905H156.132L154.432 38.426L156.672 38.2857L156.212 38.7467C158.063 38.4736 159.94 38.4298 161.801 38.6164C161.481 38.4561 161.641 38.2457 162.211 38.0853L164.761 38.1755C165.076 38.2133 165.395 38.2133 165.71 38.1755H166.33C165.501 38.5568 164.56 38.614 163.691 38.3358C163.561 38.4661 163.031 38.5964 162.891 38.7266C164.553 38.8803 166.225 38.9004 167.89 38.7867C167.498 38.7808 167.107 38.7473 166.72 38.6865L169.88 38.2757H171.37C171.153 38.3948 170.915 38.4697 170.67 38.4962C171.42 38.4962 171.979 38.3258 172.919 38.2657H173.009H173.349C173.019 38.5964 173.099 38.937 171.27 39.0873L175.409 38.7266C175.689 38.8669 177.539 39.1174 176.999 39.2376C179.288 39.438 182.628 38.5964 185.677 38.8569C186.041 38.7489 186.418 38.6916 186.797 38.6865C189.657 38.7567 192.196 39.1575 195.586 38.6865L197.515 39.2777C200.165 39.1475 194.906 38.5362 199.325 38.2757C202.465 38.0853 200.495 38.7767 201.595 38.9471C203.932 38.368 206.354 38.2219 208.744 38.5162C207.744 38.6264 207.044 38.5162 206.154 38.5863L208.344 38.917C205.694 39.4581 203.784 39.2677 205.844 39.7286C206.154 38.5863 214.363 39.6084 214.663 38.4761L216.112 38.7166C215.703 38.7166 215.633 38.7166 215.223 38.7166C217.782 39.2176 217.422 38.1254 220.082 38.0452H220.232H220.282C220.482 38.0452 220.692 38.0452 220.932 38.0452C222.192 38.1354 223.071 38.2958 222.212 38.436L223.621 38.2958C224.121 38.2958 224.441 38.1956 225.261 38.1455C226.261 38.1455 226.311 38.3058 225.541 38.3459H227.211L227.271 38.436L227.471 38.3459H230.47V37.2637V37.3338C230.27 36.3318 229.95 34.4481 229.81 33.6465C229.89 33.6465 229.92 33.5362 229.94 33.5463ZM230.49 27.6945C230.58 28.2456 230.89 29.3378 230.61 29.6986C230.07 29.1174 230.33 28.6264 230.49 27.6945ZM207.904 2.32381L207.174 2.37391L207.494 2.43403L206.864 2.37391C207.206 2.30348 207.557 2.28658 207.904 2.32381ZM194.546 2.45407L194.396 2.21359C194.726 2.28373 194.846 2.36389 194.546 2.45407ZM163.831 3.36589H165.53L163.801 3.96709C164.011 3.82681 163.921 3.60637 163.831 3.36589ZM163.671 2.13342C163.871 2.29375 163.721 2.46409 163.561 2.61439C163.541 2.53112 163.541 2.4445 163.56 2.36114C163.579 2.27778 163.617 2.19989 163.671 2.13342ZM163.011 1.28172H162.941C161.511 1.14144 162.011 1.20156 163.011 1.28172ZM161.721 1.73262C162.241 1.98312 162.721 2.49415 162.011 2.53423C161.033 2.22234 160.029 2.00097 159.011 1.8729C159.899 1.7159 160.802 1.66879 161.701 1.73262H161.721ZM156.012 2.44405C156.642 2.37391 157.162 2.28373 157.602 2.19354C157.103 2.51909 156.516 2.68026 155.922 2.65447C155.951 2.6277 155.974 2.59513 155.989 2.55887C156.005 2.52262 156.013 2.48349 156.012 2.44405ZM157.192 4.19755C157.272 4.19755 157.342 4.27771 156.942 4.28773C157.015 4.25109 157.079 4.19995 157.132 4.13743L157.192 4.19755ZM152.882 2.47411H152.662H152.882ZM132.116 3.30577C132.326 3.35587 132.286 3.30577 132.116 3.30577C133.795 3.30577 135.115 3.38593 136.425 3.44605C135.08 3.94481 133.68 4.28118 132.256 4.44805L131.556 4.17751L128.746 4.48813C129.446 4.17751 130.676 3.74665 132.066 3.30577H132.116ZM114.518 2.11338C114.678 2.11338 115.838 2.28373 117.088 2.47411C117.146 2.60238 117.19 2.73683 117.218 2.87491L116.878 3.46609H117.238C117.235 3.65194 117.183 3.83371 117.088 3.99357C116.994 4.15342 116.859 4.28587 116.698 4.37791C116.538 4.37791 115.378 4.20757 114.129 4.01719C114.075 3.88722 114.031 3.75321 113.999 3.61639L114.338 3.02521H113.979C113.979 2.84446 114.023 2.66654 114.109 2.5074C114.194 2.34826 114.318 2.21288 114.468 2.11338H114.518ZM98.8709 2.00316L99.5708 2.28373L102.38 2.00316C101.67 2.29375 100.441 2.72461 99.0509 3.16549C98.8409 3.16549 98.8809 3.16549 99.0509 3.16549C97.3811 3.16549 96.0514 3.08533 94.7516 3.02521C96.0807 2.52617 97.463 2.1832 98.8709 2.00316ZM78.3041 4.00717H78.5241C78.4447 4.02014 78.3673 4.04373 78.2941 4.07731L78.3041 4.00717ZM74.2348 2.19354C74.1575 2.2276 74.0891 2.27903 74.0348 2.34385C73.9048 2.23363 73.8248 2.20357 74.2348 2.19354ZM75.2346 3.82681C75.2044 3.8521 75.1813 3.88472 75.1672 3.92157C75.1532 3.95841 75.1489 3.99823 75.1546 4.03723C74.5147 4.10737 74.0048 4.19755 73.5549 4.28773C74.0559 3.96016 74.6471 3.7989 75.2446 3.82681H75.2346ZM69.1156 3.94705C70.0933 4.25856 71.0973 4.47992 72.1151 4.60837C71.2243 4.7652 70.3177 4.81231 69.4155 4.74866C68.8956 4.49815 68.4457 4.00717 69.1256 3.94705H69.1156ZM68.1857 5.17952C69.5955 5.33984 69.0956 5.27972 68.1157 5.17952H68.1857ZM67.5458 3.86689C67.5645 3.94956 67.5653 4.03529 67.5481 4.11827C67.5308 4.20126 67.4959 4.27956 67.4458 4.34785C67.2559 4.18753 67.3959 4.00717 67.5558 3.86689H67.5458ZM67.3059 2.49415C67.1459 2.65447 67.1959 2.87491 67.3059 3.11539H65.5961L67.3059 2.49415ZM36.5707 4.00717C36.6207 4.07731 36.6707 4.16749 36.7207 4.24765C36.3907 4.19755 36.2707 4.10737 36.5707 4.00717ZM23.6227 4.00717C23.8327 4.00717 24.0327 4.00717 24.2526 4.06729C23.9215 4.12117 23.5839 4.12117 23.2528 4.06729H23.9827L23.6227 4.00717ZM107.18 38.0753H107.36H107.18ZM109.419 35.7406C109.419 35.7406 109.609 35.8709 110.029 36.0212C108.414 36.2993 106.769 36.3499 105.14 36.1715C105.813 35.9758 106.503 35.8383 107.2 35.7607H107.39C107.82 35.6805 107.939 35.6505 107.88 35.6505C106.88 35.5703 105.6 35.5302 104.29 35.5102C105.12 35.0994 108.489 35.42 110.659 35.0793L111.229 35.2697C110.299 35.43 109.329 35.1695 109.079 35.7106L109.419 35.7406ZM120.418 38.6164L119.848 38.426C120.777 38.2757 121.747 38.5262 121.997 37.9851H121.647C121.647 37.9851 121.467 37.8549 121.037 37.7146C121.741 37.8992 122.461 38.01 123.187 38.0452C124.187 38.1254 125.467 38.1655 126.777 38.1855C126.017 38.5663 122.637 38.2457 120.468 38.5863L120.418 38.6164ZM123.707 35.6104H123.887H123.707ZM227.241 18.0352L227.511 17.1434C227.851 18.4962 226.141 20.911 226.021 22.2637C225.931 22.5543 225.881 21.8028 225.811 21.3819C225.221 24.929 226.421 21.8428 226.571 24.4881C226.241 24.9691 225.731 23.8569 225.671 25.6304C225.401 26.5222 226.741 30.7907 226.111 33.2156C226.361 32.6845 226.611 32.1535 226.801 33.3759C226.807 33.9904 226.691 34.6 226.461 35.1695C226.097 35.1074 225.73 35.0739 225.361 35.0693C225.052 35.0904 224.752 35.1793 224.481 35.3298C224.211 35.2697 224.101 35.2096 224.091 35.1595C222.621 35.3198 219.542 35.43 218.092 35.7106L217.192 35.5903C216.192 35.1996 214.073 35.3198 212.083 35.4701C212.273 35.41 212.433 35.3499 212.243 35.2697C211.819 35.4173 211.38 35.5148 210.933 35.5603H210.343C209.559 35.5775 208.775 35.5541 207.994 35.4901L208.234 35.41H207.484C207.44 35.3852 207.403 35.3506 207.375 35.3088C207.348 35.2671 207.33 35.2193 207.324 35.1695L202.215 35.2396L202.345 35.1094C201.271 35.0667 200.195 35.0935 199.125 35.1895C197.365 35.0994 195.416 34.9992 192.876 34.919L193.256 35.2296C192.856 35.2296 192.496 35.2296 192.146 35.2296C191.636 35.1695 191.356 35.0994 190.936 35.0392C190.507 35.1895 190.566 35.2697 190.866 35.3098H190.427C187.237 35.2096 182.858 35.41 181.948 34.7687C180.448 34.7687 181.248 34.9691 181.268 35.0994H179.968L179.778 35.0192L179.638 35.0994C178.938 35.0994 178.218 35.0994 177.509 35.0994C177.159 34.9891 176.979 34.8689 176.949 34.7687C177.309 34.7687 177.948 34.7086 178.338 34.6885C176.397 34.5655 174.45 34.5655 172.509 34.6885L174.509 34.8288C172.769 34.8889 170.91 34.909 169.02 34.919C166.33 34.7487 163.831 34.5683 162.331 34.919C159.791 34.919 157.332 35.0192 155.062 35.2096L155.512 35.4C154.209 35.5266 152.899 35.5467 151.593 35.4601C151.533 35.4601 151.503 35.4 151.513 35.3599H149.923C149.363 35.3599 148.673 35.3599 147.723 35.3599H147.063H147.143H147.013C145.846 35.5459 144.665 35.6264 143.484 35.6004C144.044 35.5002 143.624 35.4 143.144 35.2998C142.664 35.1996 141.874 35.0593 142.774 34.929C140.884 35.0693 140.094 35.1495 139.654 35.2296C134.925 35.1094 130.266 34.9791 125.717 34.9591L126.297 35.3298C125.438 35.4204 124.57 35.349 123.737 35.1194C124.1 35.0943 124.464 35.0943 124.827 35.1194C124.376 35.007 123.907 34.9831 123.447 35.0493H123.357H123.247C122.579 35.1006 121.924 35.2596 121.307 35.5202C117.308 35.2797 122.887 34.8088 121.647 34.7988H119.958L120.338 34.8689C119.568 35.0092 119.188 35.1595 118.568 35.2597C117.7 35.1424 116.824 35.0855 115.948 35.0893C116.358 35.0893 116.388 35.0292 116.798 35.0392C116.266 34.9841 115.73 34.9841 115.198 35.0392C115.117 35.0125 115.03 35.0125 114.948 35.0392C114.948 35.0392 114.738 34.9691 113.949 35.0392H110.949C109.809 34.7787 106.61 35.5202 107.76 34.7988C106.09 35.7206 103.66 34.6885 100.841 35.3899L101.031 34.9891C100.308 35.1248 99.5758 35.2051 98.8409 35.2296L100.321 34.7086C98.041 35.1495 95.9314 34.3278 93.7417 34.5683C98.321 34.5683 94.7416 35.0493 96.7412 35.3398C91.2121 35.8609 93.3718 34.3378 87.5427 34.4781C88.5425 34.4781 90.2223 34.7487 89.0425 34.909C87.8562 34.8561 86.6759 34.7087 85.513 34.4681C81.3137 34.5483 86.1529 34.8789 84.3632 35.1194C83.1834 34.7186 82.5335 35.1194 81.3037 35.3599C81.0437 35.3599 80.7838 35.4501 80.4738 35.4701V35.0693C77.7942 34.919 77.7242 35.2096 77.4743 35.43C76.832 35.4197 76.1908 35.487 75.5646 35.6304H75.0747L76.7744 35.1094L74.5347 35.2497L74.9947 34.7887C73.1444 35.0668 71.2667 35.1105 69.4055 34.919C69.7255 35.0793 69.5655 35.2897 68.9956 35.4501L66.456 35.3599C66.124 35.318 65.7881 35.318 65.4562 35.3599H64.8463C65.6591 34.9362 66.6006 34.8325 67.4858 35.0693C67.6158 34.939 68.1557 34.8088 68.2857 34.6785C66.6236 34.5249 64.9518 34.5047 63.2865 34.6184C63.6816 34.6248 64.0758 34.6583 64.4663 34.7186L61.3068 35.0693H59.8171C60.0335 34.9502 60.2714 34.8753 60.5169 34.8489C59.7671 34.8489 59.2171 35.0192 58.2673 35.0893H57.7374C58.0673 34.7587 57.9873 34.418 59.827 34.2677L55.6777 34.6284C55.4077 34.4881 53.558 34.2376 54.088 34.1174C51.7983 33.927 48.4588 34.7587 45.4093 34.4982C45.0471 34.6125 44.6693 34.67 44.2895 34.6685C41.4299 34.5984 38.8903 34.1976 35.5009 34.6685L33.5812 34.0673C30.9216 34.1976 36.1808 34.8088 31.7615 35.0693C28.6319 35.2597 30.5916 34.5683 29.4918 34.408C27.1567 34.977 24.7385 35.1196 22.3529 34.8288C23.3028 34.7186 24.0527 34.8288 24.9425 34.7587L22.7429 34.428C25.3925 33.897 27.3022 34.0773 25.2525 33.6164C24.9425 34.7587 16.7238 33.7366 16.4239 34.8789L14.9741 34.6384C15.394 34.6384 15.454 34.5783 15.864 34.6384C13.3044 34.1374 13.6643 35.2396 11.0047 35.3098H10.8647H10.8047C10.6048 35.3098 10.3948 35.3098 10.1548 35.3098C8.89505 35.2296 8.01519 35.0593 8.87505 34.919L7.46527 35.0693C7.07604 35.0908 6.68862 35.1377 6.30545 35.2096C5.91552 35.2096 6.09549 34.9891 6.40544 35.0092L4.88568 35.0793V34.7988C4.67571 34.7386 4.35576 34.2276 4.22578 33.8569C4.23937 33.7759 4.27383 33.6999 4.32577 33.6364C4.32577 33.6364 4.32577 33.7166 4.38576 33.7567C4.44575 33.7968 4.44575 34.0272 4.52573 33.9571L4.44575 33.6765L4.38576 33.0653L4.22578 32.0633C4.39575 31.6424 4.56573 31.8629 4.68571 32.3539C4.79573 32.8745 4.85268 33.4049 4.85568 33.937L5.21563 33.6465C5.21563 33.6465 5.29561 33.5362 5.31561 33.4461C5.32524 33.3662 5.32524 33.2854 5.31561 33.2056C5.35525 32.8689 5.32461 32.5277 5.22562 32.2036C4.93793 30.971 4.93793 29.6886 5.22562 28.4561L5.3856 30.3899C6.13548 29.1475 5.86552 27.6344 6.38544 25.44C6.13548 25.9611 5.20563 29.8288 4.87568 27.6044C5.01267 26.7201 4.97188 25.8173 4.7557 24.9491C5.22562 24.9491 5.11564 23.7567 5.08565 22.2937L5.70555 22.3939C5.52558 20.8108 5.21563 20.931 4.93567 19.9992C4.99566 18.2256 5.47558 17.8649 5.93551 17.444C6.0255 14.6184 5.15563 19.4481 5.04565 16.0513C5.20286 13.7693 5.07185 11.4766 4.65571 9.22761C4.7257 8.63643 4.80569 8.50617 4.86568 8.55627C5.03565 9.97912 5.3556 9.31779 5.27562 7.0232C5.12564 7.83483 5.02566 8.87691 4.78569 7.43403C4.78569 7.53423 4.78569 7.62441 4.78569 7.72461L4.69571 7.46409C4.69571 7.10336 4.85568 7.22361 4.93567 7.27371C4.7357 6.15146 4.30577 7.01318 4.1358 5.7206C3.83584 5.49014 3.99582 4.92902 4.19579 4.47811C4.79569 4.58833 5.3756 4.7186 5.84553 4.77872C6.07839 4.79876 6.31255 4.79876 6.54542 4.77872C6.96002 4.76346 7.37203 4.70639 7.77522 4.60837L7.9452 4.66849C7.71212 4.75345 7.47086 4.81389 7.22531 4.84886L8.03518 4.73864C8.03518 4.85888 7.52526 4.99916 7.68524 5.15948C9.66468 4.99009 11.6338 4.71583 13.5843 4.33783H13.7343L13.6543 4.27771L14.0342 4.24765L16.7038 4.59835C14.7041 4.19755 17.2437 3.71659 19.4334 3.32581C18.7335 3.12541 18.1436 2.95507 17.7437 2.87491L21.2431 2.58433C21.663 2.67451 21.3131 2.86489 20.7332 3.08533L21.3731 3.00517C22.6229 3.20557 21.983 3.51619 21.0831 3.81679L19.8233 3.48613C18.9635 3.80677 18.1536 4.16749 18.3336 4.48813C18.7121 4.40647 19.0966 4.3562 19.4834 4.33783C19.2534 4.42801 19.1134 4.50817 19.2134 4.55827C19.5749 4.55489 19.9331 4.49053 20.2733 4.36789L21.0331 4.90898L21.2231 4.67851L25.8224 5.00918C29.1141 4.23247 32.4546 3.6801 35.8208 3.35587C35.3609 3.59635 35.5209 3.96709 36.0008 4.35787C34.711 4.22761 32.8813 4.60837 30.9316 4.64845C31.2115 4.52821 31.2715 4.40797 30.7716 4.23763C28.432 4.23763 29.1319 4.54825 27.7721 4.69855C31.5515 4.60838 26.6823 4.89896 29.4218 5.10938C28.6719 5.1695 28.002 5.18954 27.3721 5.19956C28.052 5.19956 28.7119 5.29976 29.3718 5.3699H29.2818C29.1219 5.3699 29.0619 5.29976 29.2818 5.3198H29.3518C29.3988 5.25833 29.4608 5.21002 29.5318 5.17952C30.6216 5.25968 29.7018 5.27972 29.3518 5.3198C29.3518 5.3198 29.3518 5.3198 29.3518 5.3699L33.0313 5.17952C32.2314 5.17952 31.2215 5.17952 29.4518 5.17952C29.8888 4.99535 30.3403 4.84788 30.8016 4.73864C31.3615 4.82882 31.1316 4.99916 30.8516 5.0693L35.6508 4.55827C35.5609 4.88894 36.1908 4.89896 37.0406 4.9691L37.5306 5.1695C37.5294 5.13921 37.535 5.10905 37.5472 5.08128C37.5593 5.05351 37.5775 5.02885 37.6005 5.00918H37.8805C37.844 4.97827 37.8135 4.94091 37.7905 4.89896C38.3452 4.76509 38.9107 4.68125 39.4802 4.64845C39.1505 4.57496 38.8166 4.52142 38.4804 4.48813C39.6802 4.29775 42.1298 4.35787 43.4796 4.18753C43.5996 4.46809 43.1297 4.75868 40.75 4.68853C42.8197 5.18954 43.7496 4.29775 45.2893 4.15747H45.5093C45.1194 4.62841 46.5091 4.46809 47.9289 4.31779C47.9289 4.31779 47.9289 4.26769 47.8589 4.23763C48.9987 4.23763 49.9486 4.39795 49.4987 4.54825H48.9088H49.6286C47.7877 4.93202 45.9095 5.1068 44.0295 5.0693C45.1394 5.58032 44.5894 5.00918 46.3092 5.61038C44.8194 4.8689 52.5082 5.61038 50.1186 4.85888C51.8783 5.55026 53.1181 5.14946 55.4777 5.74064C55.4077 5.5703 54.6679 5.42 56.6975 5.50016C56.8433 5.43824 56.9938 5.38798 57.1475 5.34986H57.2774H57.1675C57.2575 5.34986 57.2674 5.34986 57.1675 5.34986C56.8248 5.30459 56.4889 5.21709 56.1676 5.08934C57.7007 4.79269 59.2559 4.62511 60.8169 4.58833C60.7263 4.71014 60.6185 4.81814 60.4969 4.90898L61.6168 4.51819C62.6166 4.59835 61.0269 4.70858 61.6168 4.88894L63.2465 4.57831C63.2834 4.63875 63.3399 4.68472 63.4065 4.70857L62.6366 5.20958C63.0616 5.05978 63.5003 4.95238 63.9464 4.88894C64.7163 5.10938 65.5961 5.27972 63.6065 5.43002H66.1661C67.7754 5.65905 69.4054 5.70611 71.0253 5.5703C72.2351 5.65046 74.0248 5.15948 73.025 5.45006L77.0243 5.2196V5.30978C79.9239 5.30978 82.9434 4.99916 86.1329 5.07932C85.9829 5.07932 85.9329 5.18954 86.0129 5.29976C85.0131 5.12942 84.3332 4.99916 84.0132 5.23964C84.8031 5.32982 85.483 5.38994 86.0929 5.42C86.1275 5.45249 86.1643 5.48262 86.2029 5.51018C86.6152 5.5511 87.0304 5.5511 87.4427 5.51018C88.3864 5.64679 89.3464 5.62308 90.2823 5.44004L89.6624 5.35988C89.0325 5.35988 88.4026 5.44004 87.6627 5.45006C87.8726 5.35988 87.8326 5.22962 88.1726 5.18954C88.5125 5.14946 89.1724 5.27972 89.6324 5.35988C91.2943 5.20882 92.9646 5.172 94.6316 5.24966L95.0215 5.51018C94.5916 5.51018 94.1317 5.5703 93.8717 5.5703L99.3108 5.74064C99.8857 5.78235 100.463 5.72818 101.021 5.58032C102.87 6.45206 109.329 5.7707 112.339 5.921L112.449 5.50016C114.528 5.50016 116.508 5.39996 119.088 5.22962L118.928 4.84886H119.438C119.768 4.90661 120.102 4.93345 120.438 4.92902C120.128 4.92902 119.888 4.8689 119.688 4.82882C121.897 4.69856 125.017 5.15948 128.166 5.1194C127.586 5.24517 126.986 5.24517 126.407 5.1194C130.596 5.9711 135.245 4.50817 139.055 5.1194C139.813 5.00257 140.585 5.00257 141.344 5.1194H141.114H141.504C141.924 5.18954 142.354 5.25968 142.814 5.3198C142.451 5.23405 142.084 5.16716 141.714 5.1194C142.444 5.1194 143.554 5.1194 144.634 4.9691L145.094 5.37992H145.354C146.413 5.53022 146.203 5.18954 145.634 4.88894C146.183 4.8188 146.683 4.73864 147.073 4.64845C147.943 5.29976 149.923 4.42801 151.073 5.1194C151.753 4.80878 155.852 4.85888 156.912 4.29775C158.067 4.43882 159.236 4.43882 160.391 4.29775L160.901 4.80878L163.551 4.11739C165.15 4.42801 165.82 4.61839 164.221 5.00918C168.07 4.39795 167.35 4.77872 170.62 4.17751L170.46 4.50817C171.629 4.50817 173.509 4.04725 174.209 4.32781C176.829 4.95908 187.207 4.41799 193.886 4.99916C192.586 3.99715 197.015 5.44004 197.275 4.67851C197.665 4.90898 198.605 5.03924 197.515 5.24966C200.945 5.0192 202.675 5.61038 205.044 4.9691C205.434 5.20958 204.304 5.30978 204.654 5.45006C205.129 5.33351 205.622 5.31307 206.104 5.38994C206.454 5.5202 205.604 5.58032 205.104 5.68052C208.614 5.68052 208.964 4.92902 209.224 4.25767C210.507 4.55386 211.849 4.46677 213.083 4.00717C213.703 4.22761 214.733 4.45807 212.553 4.53823C213.783 4.53823 220.042 4.85888 220.162 4.32781C220.825 4.42373 221.498 4.42373 222.162 4.32781H224.861C225.341 4.32781 225.801 4.32781 226.711 4.32781L226.291 4.24765C226.668 4.04633 227.084 3.93005 227.511 3.90697C227.511 4.44805 227.321 5.2196 227.381 6.09134H227.301C227.234 6.48287 227.188 6.87749 227.161 7.27371C227.161 7.62441 227.161 7.90497 227.101 8.12541C227.091 8.4269 227.108 8.72868 227.151 9.02721C227.231 10.0341 227.161 11.0474 226.941 12.0332L227.411 11.8028C228.451 12.2236 226.861 15.6004 227.241 18.0352ZM4.88568 27.6945C4.98566 28.2456 5.29561 29.3378 5.01566 29.6986C4.47574 29.1174 4.7357 28.6264 4.88568 27.6945Z" fill="#759A21"/>
<path d="M212.513 1.82349C212.571 1.83871 212.625 1.86623 212.672 1.90418C212.718 1.94213 212.756 1.98964 212.783 2.04349C213.003 2.00349 213.003 1.89349 212.513 1.82349Z" fill="#759A21"/>
<path d="M185.807 39.1482H185.707C185.666 39.1583 185.631 39.1833 185.607 39.2182L185.807 39.1482Z" fill="#759A21"/>
<path d="M49.7986 5.70095L51.4886 5.61095C50.9184 5.62997 50.3479 5.58299 49.7886 5.47095C49.8286 5.55095 50.0886 5.67095 49.7986 5.70095Z" fill="#759A21"/>
<path d="M61.457 5.25043C60.827 5.16043 61.067 5.68043 60.707 5.55043C60.027 6.01043 64.877 5.01043 61.457 5.25043Z" fill="#759A21"/>
<path d="M6.97643 34.8891L7.59643 34.7791L5.83643 34.5991L6.97643 34.8891Z" fill="#759A21"/>
<path d="M231.4 24.6693L231.76 23.4869L231.6 23.3767C231.427 23.7842 231.359 24.2285 231.4 24.6693Z" fill="#759A21"/>
<path d="M220.032 39.3679L220.442 39.3779L219.682 38.8879L220.032 39.3679Z" fill="#759A21"/>
<path d="M200.075 39.9993C200.895 39.9993 201.845 39.9093 202.665 39.9293C200.895 40.0193 199.855 39.3793 200.075 39.9993Z" fill="#759A21"/>
</svg>
